<svg version="1.1" xmlns="http://www.w3.org/2000/svg" x="0px" y="0px" viewBox="0 0 648 432">
  <style type="text/css">
    .st30-postcard-classical{fill:#F5EEDF;}
  </style>
  <rect width="648" height="432"/>
  <g class="st30-postcard-classical">
    <path d="M404.9,216.5h3.7v-4.7h2.9v4.7h7.4v3.3h-16.8v-8.3h2.9V216.5z"/>
    <path d="M404.9,205.8h3.7v-5.2h2.9v5.2h4.5v-5.4h2.9v8.7h-16.8v-8.7h2.9V205.8z"/>
    <path d="M402.1,197.3v-4.7c0-4.9,3.6-8.1,8.4-8.1c4.7,0,8.4,3.3,8.4,8.1v4.7H402.1z M416,194v-0.5c0-4-2.2-5.6-5.5-5.6
      c-3.7,0-5.5,1.9-5.5,5.6v0.5H416z"/>
    <path d="M404.9,178.7h3.7v-5.2h2.9v5.2h4.5v-5.4h2.9v8.7h-16.8v-8.7h2.9V178.7z"/>
    <path d="M418.9,158.9v4l-6.8,4.1v0h6.8v3.3h-16.8v-4.4c0-3.3,1.5-5.6,5.1-5.6c2.1,0,4.3,1.2,4.7,3.4L418.9,158.9z
       M409.8,167v-0.4c0-1.8-0.5-3.1-2.6-3.1c-2.1,0-2.5,1.3-2.5,3.1v0.4H409.8z"/>
    <path d="M415.3,152.8l3.5,1.4v3.5l-17.2-6.5v-2.5l17.2-6.4v3.5l-3.5,1.3V152.8z M406.5,149.9L406.5,149.9l6.1,1.9v-4
      L406.5,149.9z"/>
    <path d="M416,136.9v-4.6h2.9v7.9h-16.8v-3.3H416z"/>
    <path d="M408.7,113.3h-6.6V110h16.8v3.3h-7.5v6.1h7.5v3.3h-16.8v-3.3h6.6V113.3z"/>
    <path d="M418.9,103.4v3.3h-16.8v-3.3H418.9z"/>
    <path d="M416,96.8v-4.6h2.9v7.9h-16.8v-3.3H416z"/>
    <path d="M416,86.9v-4.6h2.9v7.9h-16.8v-3.3H416z"/>
    <path d="M418.9,69.4v3.3h-16.8v-4.5c0-3.5,1.4-5.8,5.2-5.8c3.6,0,5.3,1.9,5.3,5.4v1.6H418.9z M409.9,69.4v-0.7
      c0-1.9-0.4-3-2.6-3c-2.2,0-2.5,1.2-2.5,3.1v0.6H409.9z"/>
    <path d="M415.3,57.9l3.5,1.4v3.5l-17.2-6.5v-2.5l17.2-6.4v3.5l-3.5,1.3V57.9z M406.5,55.1L406.5,55.1l6.1,1.9v-4
      L406.5,55.1z"/>
    <path d="M418.9,34v4l-6.8,4.1v0h6.8v3.3h-16.8v-4.4c0-3.3,1.5-5.6,5.1-5.6c2.1,0,4.3,1.2,4.7,3.4L418.9,34z
       M409.8,42.1v-0.4c0-1.8-0.5-3.1-2.6-3.1c-2.1,0-2.5,1.3-2.5,3.1v0.4H409.8z"/>
    <path d="M402.1,23.5v-4l7.8,6.4l9-6.7v4.2l-7.6,5.4v0h7.6V32h-16.8v-3.3h7.1v0L402.1,23.5z"/>
      <path d="M531.2,356.8v0.1l32.8,11.7v3.5l-32.8,11.3v0.1l32.1,4.6v10.2l-53.1-8.7v-7.1l34.1-12.8l-34.1-12.2v-7.3
        l53.1-7.8v10.2L531.2,356.8z"/>
      <path d="M511.6,340v-10.1h29c6.4,0,15.4-0.5,15.4-9.1c0-8.6-9-9.1-15.4-9.1h-29v-10.1h30.9c12.6,0,22.2,5.4,22.2,19.2
        c0,13.9-9.5,19.2-22.2,19.2H511.6z"/>
      <path d="M523,272.5c-2.6,1.9-4.3,4.4-4.3,7.8c0,3.2,2.5,6.3,5.8,6.3c8.7,0,5.1-20.5,22.4-20.5
        c10.4,0,17.7,6.5,17.7,17c0,7.1-4.1,12.4-10.1,15.9l-6.4-6.5c4-1.4,7.5-5,7.5-9.3c0-4.1-3.5-6.7-7.5-6.7c-5.4,0-6.9,4.9-8.4,9
        c-2.7,6.7-6.1,11.5-14.1,11.5c-8.6,0-15.5-6.4-15.5-15.1c0-4.6,2.3-11,5.8-14.1L523,272.5z"/>
      <path d="M563.3,252.2v10.1h-51.7v-10.1H563.3z"/>
      <path d="M525.3,211.5c-3.4,2.8-5.5,7.1-5.5,11.4c0,9.7,8.9,15.2,17.8,15.2c8.7,0,17.4-5.8,17.4-15.2
        c0-4.3-2.3-8.6-5.5-11.5h12c1.8,3.8,3.1,7.5,3.1,11.7c0,14.5-12.6,25.3-26.8,25.3c-14.7,0-27.7-10.4-27.7-25.5c0-4,1.1-8,3-11.5
        H525.3z"/>
      <path d="M532.6,110.9h-21v-5.8h51.7v5.8h-25.4v26.5h25.4v5.8h-51.7v-5.8h21V110.9z"/>
      <path d="M563.3,82v5.8h-51.7V82H563.3z"/>
      <path d="M558,59.3V45h5.4v20h-51.7v-5.8H558z"/>
      <path d="M558,27.6V13.3h5.4v20h-51.7v-5.8H558z"/>
      <path d="M540.6,193.8c0-5.9,4.8-10.5,10.6-10.5c5.8,0,10.6,4.7,10.6,10.5c0,5.8-4.8,10.6-10.6,10.6
        C545.4,204.4,540.6,199.7,540.6,193.8z M559.6,193.9c0-4.6-3.7-8.4-8.4-8.4s-8.4,3.8-8.4,8.4c0,4.6,3.7,8.4,8.4,8.4
        C555.9,202.3,559.6,198.5,559.6,193.9z"/>
      <path d="M534.7,204.9l-15.9-16.7v15.8h-2.3v-21.3l15.9,16.6v-15.7h2.3V204.9z"/>
      <path d="M556.9,149.8h2.3v18.3h4.9v2.1h-12.2v-2.1h5V149.8z"/>
      <path d="M534.4,161.9v8.3h-2.3v-20.4h2.3v10h10.4v-10h2.3v20.4h-2.3v-8.3H534.4z"/>
      <path d="M525.3,170.2h-10.6v-2.1h8.3V162h-8.1v-2.1h8.1v-8h-8.3v-2.1h10.6V170.2z"/>
      <path d="M610.7,212.7h-2.1v3.2h2v0.8h-2v4.3h-0.8V212h2.9V212.7z"/>
      <path d="M617.2,221V212h0.9c1.3,0,2.5,0.1,2.5,2.3c0,1.2-0.3,2.3-1.7,2.3l2,4.4H620l-1.9-4.4h0v4.4H617.2z M618,215.9
        h0.3c1.2,0,1.4-0.4,1.4-1.6c0-1.4-0.4-1.6-1.5-1.6H618V215.9z"/>
      <path d="M630.1,212.7h-2v3.2h2v0.8h-2v3.6h2v0.8h-2.9V212h2.9V212.7z"/>
      <path d="M639.4,212.7h-2v3.2h2v0.8h-2v3.6h2v0.8h-2.9V212h2.9V212.7z"/>
      <path d="M428.5,221v-9.1h0.9c1.3,0,2.5,0.1,2.5,2.4c0,1.8-0.6,2.4-2.3,2.4h-0.2v4.4H428.5z M429.3,215.9h0.3
        c1.2,0,1.3-0.4,1.4-1.6c0-1.3-0.3-1.6-1.5-1.6h-0.2V215.9z"/>
      <path d="M438.2,221v-9.1h0.9c1.3,0,2.5,0.1,2.5,2.3c0,1.2-0.3,2.3-1.7,2.3l2,4.4H441l-1.9-4.4h0v4.4H438.2z
         M439,215.8h0.3c1.2,0,1.4-0.4,1.4-1.6c0-1.4-0.4-1.6-1.5-1.6H439V215.8z"/>
      <path d="M451.1,212.7h-2v3.2h2v0.8h-2v3.6h2v0.8h-2.9v-9.1h2.9V212.7z"/>
      <path d="M460.8,213.3c-0.4-0.4-0.8-0.7-1.3-0.7c-0.8,0-1.3,0.7-1.3,1.5c0,1.1,0.8,1.6,1.6,2.1
        c0.8,0.5,1.5,1.1,1.5,2.4c0,1.3-0.9,2.6-2.3,2.6c-0.5,0-1-0.1-1.4-0.5v-1.1c0.4,0.4,0.9,0.7,1.5,0.7c0.9,0,1.4-0.8,1.4-1.6
        c0-1.1-0.8-1.5-1.5-2.1c-0.8-0.5-1.6-1.1-1.6-2.4c0-1.2,0.7-2.4,2.1-2.4c0.5,0,1,0.2,1.4,0.5V213.3z"/>
      <path d="M470.5,212.7h-2v3.2h2v0.8h-2v3.6h2v0.8h-2.9v-9.1h2.9V212.7z"/>
      <path d="M480.8,221H480l-2-6.1c-0.1-0.4-0.2-0.8-0.3-1.2h0c0,0.6,0.1,1.2,0.1,1.8v5.5H477v-9.1h0.7l2.1,6.3
        c0.1,0.3,0.2,0.6,0.3,0.9h0c0-0.4-0.1-0.8-0.1-1.2v-6.1h0.7V221z"/>
      <path d="M490.6,212.7h-1.4v8.3h-0.8v-8.3h-1.4v-0.8h3.6V212.7z"/>
      <path d="M500.1,213.3c-0.4-0.4-0.8-0.7-1.3-0.7c-0.8,0-1.3,0.7-1.3,1.5c0,1.1,0.8,1.6,1.6,2.1
        c0.8,0.5,1.5,1.1,1.5,2.4c0,1.3-0.9,2.6-2.3,2.6c-0.5,0-1-0.1-1.4-0.5v-1.1c0.4,0.4,0.9,0.7,1.5,0.7c0.9,0,1.4-0.8,1.4-1.6
        c0-1.1-0.8-1.5-1.5-2.1c-0.8-0.5-1.6-1.1-1.6-2.4c0-1.2,0.7-2.4,2.1-2.4c0.5,0,1,0.2,1.4,0.5V213.3z"/>
  <rect x="580.7" y="82.1" width="15.9" height="349.9"/>
  </g>
  <g>
    <path d="M584.9,373.9c-1.2,1-1.9,2.4-1.9,3.9c0,3.3,3,5.2,6,5.2c2.9,0,5.9-2,5.9-5.1c0-1.5-0.8-2.9-1.9-3.9h4.1c0.6,1.3,1,2.6,1,4
      c0,4.9-4.2,8.6-9.1,8.6c-5,0-9.4-3.5-9.4-8.6c0-1.4,0.4-2.7,1-3.9H584.9z"/>
    <path d="M594.8,359.9V355h3v8.2h-17.5v-3.4H594.8z"/>
    <path d="M594.1,341.2l3.7,1.4v3.6l-18-6.8v-2.6l18-6.6v3.6l-3.7,1.3V341.2z M584.9,338.3L584.9,338.3l6.4,2v-4.2L584.9,338.3z"/>
    <path d="M584.1,312.6c-0.9,0.7-1.4,1.5-1.4,2.6c0,1.1,0.8,2.1,2,2.1c2.9,0,1.7-6.9,7.6-6.9c3.5,0,6,2.2,6,5.8
      c0,2.4-1.4,4.2-3.4,5.4l-2.2-2.2c1.3-0.5,2.6-1.7,2.6-3.2c0-1.4-1.2-2.3-2.5-2.3c-1.8,0-2.3,1.7-2.9,3c-0.9,2.3-2.1,3.9-4.8,3.9
      c-2.9,0-5.2-2.2-5.2-5.1c0-1.6,0.8-3.7,2-4.8L584.1,312.6z"/>
    <path d="M584.1,292.2c-0.9,0.7-1.4,1.5-1.4,2.6c0,1.1,0.8,2.1,2,2.1c2.9,0,1.7-6.9,7.6-6.9c3.5,0,6,2.2,6,5.8
      c0,2.4-1.4,4.2-3.4,5.4l-2.2-2.2c1.3-0.5,2.6-1.7,2.6-3.2c0-1.4-1.2-2.3-2.5-2.3c-1.8,0-2.3,1.7-2.9,3c-0.9,2.3-2.1,3.9-4.8,3.9
      c-2.9,0-5.2-2.2-5.2-5.1c0-1.6,0.8-3.7,2-4.8L584.1,292.2z"/>
    <path d="M597.7,276.4v3.4h-17.5v-3.4H597.7z"/>
    <path d="M584.9,253.8c-1.2,1-1.9,2.4-1.9,3.9c0,3.3,3,5.2,6,5.2c2.9,0,5.9-2,5.9-5.1c0-1.5-0.8-2.9-1.9-3.9h4.1c0.6,1.3,1,2.6,1,4
      c0,4.9-4.2,8.6-9.1,8.6c-5,0-9.4-3.5-9.4-8.6c0-1.4,0.4-2.7,1-3.9H584.9z"/>
    <path d="M594.1,239.5l3.7,1.4v3.6l-18-6.8v-2.6l18-6.6v3.6l-3.7,1.3V239.5z M584.9,236.6L584.9,236.6l6.4,2v-4.2L584.9,236.6z"/>
    <path d="M594.8,215.6v-4.8h3v8.2h-17.5v-3.4H594.8z"/>
    <path d="M591.8,182.8c1.6,0,3,0,4.4,1c1.3,0.9,2,2.3,2,3.9c0,1.3-0.7,2.6-1.6,3.4l-2.5-2.2c0.5-0.2,1.1-0.8,1.1-1.3
      c0-1.7-2.8-1.5-4-1.5h-11v-3.4H591.8z"/>
    <path d="M580.2,172v-3.4h9.8c2.2,0,5.2-0.2,5.2-3.1c0-2.9-3-3.1-5.2-3.1h-9.8V159h10.5c4.3,0,7.5,1.8,7.5,6.5s-3.2,6.5-7.5,6.5
      H580.2z"/>
    <path d="M579.8,148.1v-2.5l12.2-9.2v0h-11.8V133h17.9v2.5l-12.2,9.2v0h11.9v3.4H579.8z"/>
    <path d="M583.2,118.6h3.9v-5.4h3v5.4h4.7V113h3v9.1h-17.5V113h3V118.6z"/>
  </g>
</svg>
