<svg version="1.1" xmlns="https://www.w3.org/2000/svg" x="0px" y="0px" viewBox="0 0 648 432">
  <style type="text/css">
    .st31-postcard-classical{fill:#F5EEDF;}
    .st32-postcard-classical{fill:none;stroke:#F5EEDF;stroke-width:0.898;}
  </style>
  <rect width="648" height="432"/>
    <g class="st31-postcard-classical">
      <path d="M224.2,103.8h0.6l-3.5,3.4l3.7,3.7h-0.6l-3.4-3.4l-0.2,0.2v3.2h-0.5v-7.1h0.5v3.3L224.2,103.8z"/>
      <path d="M226.2,110.9h-0.5v-7.1h0.5V110.9z"/>
      <path d="M233.8,105.1L233.8,105.1l-2.5,6.1l-2.5-6.1h0l-1.2,5.9h-0.4l1.5-7.3l2.6,6.4l2.6-6.4l1.5,7.3H235
        L233.8,105.1z"/>
      <path d="M236.4,110.9v-7.1h1.4c0.5,0,1,0,1.5,0.4c0.4,0.4,0.6,0.9,0.6,1.5c0,0.6-0.3,1.1-0.8,1.4
        c0.9,0.2,1.5,0.9,1.5,1.8c0,0.6-0.2,1.1-0.7,1.5c-0.5,0.4-1,0.5-1.7,0.5H236.4z M236.8,107h0.8c0.5,0,0.9,0,1.3-0.3
        s0.5-0.6,0.5-1.1c0-0.5-0.2-0.9-0.6-1.2c-0.4-0.2-0.8-0.2-1.2-0.2h-0.8V107z M236.8,110.5h1.1c0.5,0,1,0,1.4-0.3s0.7-0.7,0.7-1.3
        c0-0.5-0.3-1-0.7-1.3c-0.4-0.2-1-0.2-1.5-0.2h-1V110.5z"/>
      <path d="M242.2,104.3v2.6h2.9v0.4h-2.9v3.2h2.9v0.4h-3.4v-7.1h3.4v0.4H242.2z"/>
      <path d="M249.7,110.9h-0.5l-2.3-3.4h-0.2v3.4h-0.5v-7.1h0.9c0.6,0,1.1,0,1.6,0.4c0.5,0.4,0.7,0.9,0.7,1.5
        c0,1.2-0.9,1.9-2,1.8L249.7,110.9z M247.2,107.1c0.4,0,0.9,0,1.2-0.3c0.3-0.3,0.5-0.7,0.5-1.1c0-0.5-0.2-1.1-0.8-1.3
        c-0.4-0.2-0.9-0.2-1.3-0.2h-0.3v2.9H247.2z"/>
      <path d="M251.2,110.5h1.8v0.4h-2.3v-7.1h0.5V110.5z"/>
      <path d="M254.3,104.3v2.6h2.9v0.4h-2.9v3.2h2.9v0.4h-3.4v-7.1h3.4v0.4H254.3z"/>
      <path d="M257.9,103.8h0.5l2.1,3.6l2.1-3.6h0.5l-2.4,4.1v3h-0.5v-3L257.9,103.8z"/>
      <path d="M270.5,103.8h0.6l-3.5,3.4l3.7,3.7h-0.6l-3.4-3.4l-0.2,0.2v3.2h-0.5v-7.1h0.5v3.3L270.5,103.8z"/>
      <path d="M278.5,107.4c0,2-1.7,3.6-3.7,3.6c-2,0-3.7-1.6-3.7-3.6c0-2,1.7-3.6,3.7-3.6
        C276.8,103.7,278.5,105.4,278.5,107.4z M271.6,107.4c0,1.7,1.5,3.2,3.2,3.2c1.8,0,3.2-1.5,3.2-3.2c0-1.7-1.5-3.2-3.2-3.2
        C273.1,104.2,271.6,105.6,271.6,107.4z"/>
      <path d="M286.1,111.1l-5.9-6.3v6.1h-0.5v-7.2l5.9,6.3v-6.2h0.5V111.1z"/>
      <path d="M294.3,107.5c0,0.9-0.1,1.7-0.7,2.4c-0.7,0.7-1.7,1.1-2.7,1.1c-2,0-3.6-1.7-3.6-3.6c0-2,1.7-3.7,3.7-3.7
        c1.3,0,2.3,0.6,3.1,1.7l-0.4,0.3c-0.6-0.9-1.6-1.5-2.7-1.5c-1.7,0-3.2,1.5-3.2,3.2c0,1.7,1.4,3.2,3.2,3.2c0.8,0,1.5-0.3,2.1-0.8
        c0.6-0.5,0.8-1.1,0.9-1.9h-2.5v-0.4H294.3z"/>
      <path d="M298.6,111.4h1.1v0.5h-1.6v-9h1.6v0.5h-1.1V111.4z"/>
      <path d="M302,110.9h-0.5v-7.1h1.2c0.6,0,1.1,0,1.5,0.4c0.4,0.4,0.6,0.9,0.6,1.5c0,0.5-0.2,1.1-0.6,1.4
        c-0.4,0.4-1,0.5-1.6,0.5H302V110.9z M302.8,107.1c0.5,0,0.9-0.1,1.2-0.4c0.3-0.3,0.5-0.6,0.5-1.1c0-0.4-0.2-0.9-0.5-1.1
        c-0.4-0.3-0.8-0.3-1.2-0.3H302v2.9H302.8z"/>
      <path d="M306.3,110.9h-0.5v-7.1h0.5V110.9z"/>
      <path d="M308.6,108.6l-0.9,2.3h-0.5l3-7.3l3,7.3h-0.5l-0.9-2.3H308.6z M310.1,104.7l-1.4,3.4h2.8L310.1,104.7z"/>
      <path d="M320.3,111.1l-5.9-6.3v6.1h-0.5v-7.2l5.9,6.3v-6.2h0.5V111.1z"/>
      <path d="M328.8,107.4c0,2-1.7,3.6-3.7,3.6c-2,0-3.7-1.6-3.7-3.6c0-2,1.7-3.6,3.7-3.6
        C327.1,103.7,328.8,105.4,328.8,107.4z M321.9,107.4c0,1.7,1.5,3.2,3.2,3.2c1.8,0,3.2-1.5,3.2-3.2c0-1.7-1.5-3.2-3.2-3.2
        C323.4,104.2,321.9,105.6,321.9,107.4z"/>
      <path d="M331,103.4h-1.1v-0.5h1.6v9h-1.6v-0.5h1.1V103.4z"/>
      <path d="M317.4,89.8l-0.9,2.3H316l3-7.3l3,7.3h-0.5l-0.9-2.3H317.4z M319,86l-1.4,3.4h2.8L319,86z"/>
      <path d="M323.2,91.7h1.8v0.4h-2.3v-7.1h0.5V91.7z"/>
      <path d="M326.3,92.1h-0.5v-7.1h0.5V92.1z"/>
      <path d="M333.5,86.5c-0.5-0.7-1.5-1.1-2.4-1.1c-1.8,0-3.2,1.5-3.2,3.3c0,0.8,0.4,1.6,0.9,2.2c0.6,0.6,1.4,1,2.3,1
        c0.8,0,1.8-0.4,2.4-1.1v0.6c-0.7,0.6-1.5,0.9-2.4,0.9c-2,0-3.7-1.6-3.7-3.6c0-2,1.7-3.6,3.7-3.6c0.9,0,1.7,0.3,2.3,0.9V86.5z"/>
      <path d="M335.2,92.1h-0.5v-7.1h0.5V92.1z"/>
      <path d="M337.4,89.8l-0.9,2.3H336l3-7.3l3,7.3h-0.5l-0.9-2.3H337.4z M338.9,86l-1.4,3.4h2.8L338.9,86z"/>
      <path d="M347.4,91.1l2.6-6.4l2.6,6.4l2-6.1h0.5l-2.4,7.3l-2.7-6.5l-2.7,6.5l-2.4-7.3h0.5L347.4,91.1z"/>
      <path d="M356.2,89.8l-0.9,2.3h-0.5l3-7.3l3,7.3h-0.5l-0.9-2.3H356.2z M357.7,86l-1.4,3.4h2.8L357.7,86z"/>
      <path d="M365,92.1h-0.5l-2.3-3.4H362v3.4h-0.5v-7.1h0.9c0.6,0,1.1,0,1.6,0.4c0.5,0.4,0.7,0.9,0.7,1.5
        c0,1.2-0.9,1.9-2,1.8L365,92.1z M362.6,88.4c0.4,0,0.9,0,1.2-0.3c0.3-0.3,0.5-0.7,0.5-1.1c0-0.5-0.2-1.1-0.8-1.3
        c-0.4-0.2-0.9-0.2-1.3-0.2H362v2.9H362.6z"/>
      <path d="M366.1,85.1h1.3c1,0,1.8,0.2,2.6,0.9c0.7,0.7,1.1,1.6,1.1,2.7c0,1-0.4,1.9-1.1,2.6c-0.8,0.8-1.6,0.9-2.7,0.9
        h-1.3V85.1z M367.3,91.7c0.9,0,1.7-0.2,2.4-0.9c0.6-0.6,0.9-1.4,0.9-2.3c0-0.9-0.4-1.7-1-2.4c-0.7-0.6-1.4-0.8-2.3-0.8h-0.8v6.2
        H367.3z"/>
      <path d="M374.9,92.7h1.1v0.5h-1.6v-9h1.6v0.5h-1.1V92.7z"/>
      <path d="M383.2,86.5c-0.5-0.7-1.5-1.1-2.4-1.1c-1.8,0-3.2,1.5-3.2,3.3c0,0.8,0.4,1.6,0.9,2.2c0.6,0.6,1.4,1,2.3,1
        c0.8,0,1.8-0.4,2.4-1.1v0.6c-0.7,0.6-1.5,0.9-2.4,0.9c-2,0-3.7-1.6-3.7-3.6c0-2,1.7-3.6,3.7-3.6c0.9,0,1.7,0.3,2.3,0.9V86.5z"/>
      <path d="M384.8,85.5v2.6h2.9v0.4h-2.9v3.2h2.9v0.4h-3.4v-7.1h3.4v0.4H384.8z"/>
      <path d="M389.4,91.7h1.8v0.4h-2.3v-7.1h0.5V91.7z"/>
      <path d="M392.4,91.7h1.8v0.4H392v-7.1h0.5V91.7z"/>
      <path d="M401.5,88.6c0,2-1.7,3.6-3.7,3.6c-2,0-3.7-1.6-3.7-3.6c0-2,1.7-3.6,3.7-3.6C399.9,85,401.5,86.6,401.5,88.6z
         M394.6,88.6c0,1.7,1.5,3.2,3.2,3.2c1.8,0,3.2-1.5,3.2-3.2c0-1.7-1.5-3.2-3.2-3.2C396.1,85.4,394.6,86.9,394.6,88.6z"/>
      <path d="M403.7,84.6h-1.1v-0.5h1.6v9h-1.6v-0.5h1.1V84.6z"/>
      <path d="M316.7,329.5h1.3c1,0,1.8,0.2,2.6,0.9c0.7,0.7,1.1,1.6,1.1,2.7c0,1-0.4,1.9-1.1,2.6c-0.8,0.8-1.6,0.9-2.7,0.9
        h-1.3V329.5z M318,336.1c0.9,0,1.7-0.2,2.4-0.9c0.6-0.6,0.9-1.4,0.9-2.3c0-0.9-0.4-1.7-1-2.4c-0.7-0.6-1.4-0.8-2.3-0.8h-0.8v6.2
        H318z"/>
      <path d="M323.3,334.2l-0.9,2.3h-0.5l3-7.3l3,7.3h-0.5l-0.9-2.3H323.3z M324.9,330.4l-1.4,3.4h2.8L324.9,330.4z"/>
      <path d="M335.1,336.8l-5.9-6.3v6.1h-0.5v-7.2l5.9,6.3v-6.2h0.5V336.8z"/>
      <path d="M337.1,336.6h-0.5v-7.1h0.5V336.6z"/>
      <path d="M339.1,329.9v2.6h2.9v0.4h-2.9v3.2h2.9v0.4h-3.4v-7.1h3.4v0.4H339.1z"/>
      <path d="M343.6,336.1h1.8v0.4h-2.3v-7.1h0.5V336.1z"/>
      <path d="M352.4,330.7c-0.3-0.5-0.8-0.8-1.4-0.8c-0.8,0-1.3,0.6-1.3,1.4c0,0.7,0.7,1.1,1.3,1.3l1.4,0.7
        c0.5,0.3,0.8,0.8,0.8,1.4c0,1.2-1.1,2.1-2.2,2.1c-1,0-1.8-0.6-2.1-1.5l0.4-0.2c0.3,0.8,0.9,1.3,1.7,1.3c0.9,0,1.7-0.7,1.7-1.7
        c0-0.8-0.8-1.1-1.4-1.4l-1.3-0.7c-0.5-0.3-0.7-0.7-0.7-1.3c0-1.1,0.8-1.8,1.8-1.8c0.7,0,1.4,0.4,1.7,1L352.4,330.7z"/>
      <path d="M354.7,336.6h-0.5v-7.1h0.5V336.6z"/>
      <path d="M362.2,330.7L362.2,330.7l-2.5,6.1l-2.5-6.1h0l-1.2,5.9h-0.4l1.5-7.3l2.6,6.4l2.6-6.4l1.5,7.3h-0.4
        L362.2,330.7z"/>
      <path d="M367.9,337.1h1.1v0.5h-1.6v-9h1.6v0.5h-1.1V337.1z"/>
      <path d="M372.6,335.5L372.6,335.5l2.1-6h0.5l-2.6,7.3l-2.5-7.3h0.5L372.6,335.5z"/>
      <path d="M376.4,336.6H376v-7.1h0.5V336.6z"/>
      <path d="M384.9,333c0,2-1.7,3.6-3.7,3.6c-2,0-3.7-1.6-3.7-3.6s1.7-3.6,3.7-3.6C383.2,329.4,384.9,331,384.9,333z
         M378,333c0,1.7,1.5,3.2,3.2,3.2c1.8,0,3.2-1.5,3.2-3.2c0-1.7-1.5-3.2-3.2-3.2C379.5,329.8,378,331.3,378,333z"/>
      <path d="M386.5,336.1h1.8v0.4h-2.3v-7.1h0.5V336.1z"/>
      <path d="M389.6,336.6h-0.5v-7.1h0.5V336.6z"/>
      <path d="M397.6,336.8l-5.9-6.3v6.1h-0.5v-7.2l5.9,6.3v-6.2h0.5V336.8z"/>
      <path d="M400.3,329.1h-1.1v-0.5h1.6v9h-1.6v-0.5h1.1V329.1z"/>
      <path d="M320.2,355.3h-0.5l-2.3-3.4h-0.2v3.4h-0.5v-7.1h0.9c0.6,0,1.1,0,1.6,0.4c0.5,0.4,0.7,0.9,0.7,1.5
        c0,1.2-0.9,1.9-2,1.8L320.2,355.3z M317.7,351.6c0.4,0,0.9,0,1.2-0.3c0.3-0.3,0.5-0.7,0.5-1.1c0-0.5-0.2-1.1-0.8-1.3
        c-0.4-0.2-0.9-0.2-1.3-0.2h-0.3v2.9H317.7z"/>
      <path d="M322.2,353l-0.9,2.3h-0.5l3-7.3l3,7.3h-0.5l-0.9-2.3H322.2z M323.8,349.2l-1.4,3.4h2.8L323.8,349.2z"/>
      <path d="M327.6,348.3h1.3c1,0,1.8,0.2,2.6,0.9c0.7,0.7,1.1,1.6,1.1,2.7c0,1-0.4,1.9-1.1,2.6c-0.8,0.8-1.6,0.9-2.7,0.9
        h-1.3V348.3z M328.8,354.9c0.9,0,1.7-0.2,2.4-0.9c0.6-0.6,0.9-1.4,0.9-2.3c0-0.9-0.4-1.7-1-2.4c-0.7-0.6-1.4-0.8-2.3-0.8H328v6.2
        H328.8z"/>
      <path d="M338.5,351.3v-3h0.5v7.1h-0.5v-3.7h-4.3v3.7h-0.5v-7.1h0.5v3H338.5z"/>
      <path d="M341,355.3h-0.5v-7.1h0.5V355.3z"/>
      <path d="M348.7,349.4c-0.3-0.5-0.8-0.8-1.4-0.8c-0.8,0-1.3,0.6-1.3,1.4c0,0.7,0.7,1.1,1.3,1.3l1.4,0.7
        c0.5,0.3,0.8,0.8,0.8,1.4c0,1.2-1.1,2.1-2.2,2.1c-1,0-1.8-0.6-2.1-1.5l0.4-0.2c0.3,0.8,0.9,1.3,1.7,1.3c0.9,0,1.7-0.7,1.7-1.7
        c0-0.8-0.8-1.1-1.4-1.4l-1.3-0.7c-0.5-0.3-0.7-0.7-0.7-1.3c0-1.1,0.8-1.8,1.8-1.8c0.7,0,1.4,0.4,1.7,1L348.7,349.4z"/>
      <path d="M351.2,353l-0.9,2.3h-0.5l3-7.3l3,7.3h-0.5l-0.9-2.3H351.2z M352.7,349.2l-1.4,3.4h2.8L352.7,349.2z"/>
      <path d="M362.9,355.6l-5.9-6.3v6.1h-0.5v-7.2l5.9,6.3v-6.2h0.5V355.6z"/>
      <path d="M366,355.3h-0.5v-6.7h-1.8v-0.4h4.1v0.4H366V355.3z"/>
      <path d="M375.1,351.8c0,2-1.7,3.6-3.7,3.6c-2,0-3.7-1.6-3.7-3.6s1.7-3.6,3.7-3.6C373.4,348.2,375.1,349.8,375.1,351.8
        z M368.2,351.8c0,1.7,1.5,3.2,3.2,3.2c1.8,0,3.2-1.5,3.2-3.2c0-1.7-1.5-3.2-3.2-3.2C369.7,348.6,368.2,350.1,368.2,351.8z"/>
      <path d="M379.3,349.4c-0.3-0.5-0.8-0.8-1.4-0.8c-0.8,0-1.3,0.6-1.3,1.4c0,0.7,0.7,1.1,1.3,1.3l1.4,0.7
        c0.5,0.3,0.8,0.8,0.8,1.4c0,1.2-1.1,2.1-2.2,2.1c-1,0-1.8-0.6-2.1-1.5l0.4-0.2c0.3,0.8,0.9,1.3,1.7,1.3c0.9,0,1.7-0.7,1.7-1.7
        c0-0.8-0.8-1.1-1.4-1.4l-1.3-0.7c-0.5-0.3-0.7-0.7-0.7-1.3c0-1.1,0.8-1.8,1.8-1.8c0.7,0,1.4,0.4,1.7,1L379.3,349.4z"/>
      <path d="M384.4,355.9h1.1v0.5h-1.6v-9h1.6v0.5h-1.1V355.9z"/>
      <path d="M389.1,354.3L389.1,354.3l2.1-6h0.5l-2.6,7.3l-2.5-7.3h0.5L389.1,354.3z"/>
      <path d="M392.9,355.3h-0.5v-7.1h0.5V355.3z"/>
      <path d="M401.4,351.8c0,2-1.7,3.6-3.7,3.6c-2,0-3.7-1.6-3.7-3.6s1.7-3.6,3.7-3.6C399.7,348.2,401.4,349.8,401.4,351.8
        z M394.5,351.8c0,1.7,1.5,3.2,3.2,3.2c1.8,0,3.2-1.5,3.2-3.2c0-1.7-1.5-3.2-3.2-3.2C396,348.6,394.5,350.1,394.5,351.8z"/>
      <path d="M403,354.9h1.8v0.4h-2.3v-7.1h0.5V354.9z"/>
      <path d="M406.1,355.3h-0.5v-7.1h0.5V355.3z"/>
      <path d="M414.1,355.6l-5.9-6.3v6.1h-0.5v-7.2l5.9,6.3v-6.2h0.5V355.6z"/>
      <path d="M416.8,347.9h-1.1v-0.5h1.6v9h-1.6v-0.5h1.1V347.9z"/>
      <path d="M317.2,385.8v6.9c0,0.9-0.2,1.6-1.2,1.6c-0.5,0-1-0.3-1.2-0.8l0.3-0.3c0.2,0.3,0.5,0.6,0.9,0.6
        c0.7,0,0.8-0.7,0.8-1.2v-6.9H317.2z"/>
      <path d="M319.5,390.6l-0.9,2.3h-0.5l3-7.3l3,7.3h-0.5l-0.9-2.3H319.5z M321,386.7l-1.4,3.4h2.8L321,386.7z"/>
      <path d="M330.1,387.3c-0.5-0.7-1.5-1.1-2.4-1.1c-1.8,0-3.2,1.5-3.2,3.3c0,0.8,0.4,1.6,0.9,2.2c0.6,0.6,1.4,1,2.3,1
        c0.8,0,1.8-0.4,2.4-1.1v0.6c-0.7,0.6-1.5,0.9-2.4,0.9c-2,0-3.7-1.6-3.7-3.6c0-2,1.7-3.6,3.7-3.6c0.9,0,1.7,0.3,2.3,0.9V387.3z"/>
      <path d="M336.8,392.1c-0.6,0.5-1.5,0.8-2.3,0.8c-2,0-3.7-1.6-3.7-3.6c0-2,1.7-3.6,3.7-3.6c2,0,3.7,1.6,3.7,3.6
        c0,1-0.4,1.8-1,2.6l0.9,1h-0.6L336.8,392.1z M336.7,391.6c0.6-0.6,0.9-1.3,0.9-2.1c0-1.8-1.4-3.3-3.2-3.3c-1.8,0-3.2,1.5-3.2,3.2
        c0,1.8,1.5,3.2,3.2,3.2c0.7,0,1.4-0.3,2-0.7l-1.8-1.8h0.6L336.7,391.6z"/>
      <path d="M343.6,385.8h0.5v4.4c0,0.7,0,1.3-0.5,1.9c-0.5,0.5-1.2,0.8-1.9,0.8c-0.7,0-1.4-0.3-1.9-0.8
        c-0.5-0.6-0.5-1.2-0.5-1.9v-4.4h0.5v4.3c0,0.6,0,1.3,0.4,1.8c0.3,0.5,1,0.7,1.6,0.7s1.2-0.2,1.6-0.7c0.4-0.5,0.4-1.1,0.4-1.8
        V385.8z"/>
      <path d="M346,386.2v2.6h2.9v0.4H346v3.2h2.9v0.4h-3.4v-7.1h3.4v0.4H346z"/>
      <path d="M350.6,392.5h1.8v0.4h-2.3v-7.1h0.5V392.5z"/>
      <path d="M351.8,385.8h0.5l2.1,3.6l2.1-3.6h0.5l-2.4,4.1v3h-0.5v-3L351.8,385.8z"/>
      <path d="M364.1,393.1l-5.9-6.3v6.1h-0.5v-7.2l5.9,6.3v-6.2h0.5V393.1z"/>
      <path d="M368.6,392.9v-7.1h1.4c0.5,0,1,0,1.5,0.4c0.4,0.4,0.6,0.9,0.6,1.5c0,0.6-0.3,1.1-0.8,1.4
        c0.9,0.2,1.5,0.9,1.5,1.8c0,0.6-0.2,1.1-0.7,1.5c-0.5,0.4-1,0.5-1.7,0.5H368.6z M369,389h0.8c0.5,0,0.9,0,1.3-0.3
        c0.4-0.3,0.5-0.6,0.5-1.1c0-0.5-0.2-0.9-0.6-1.2c-0.4-0.2-0.8-0.2-1.2-0.2H369V389z M369,392.5h1.1c0.5,0,1,0,1.4-0.3
        s0.7-0.7,0.7-1.3c0-0.5-0.3-1-0.7-1.3c-0.4-0.2-1-0.2-1.5-0.2h-1V392.5z"/>
      <path d="M377.4,392.9h-0.5l-2.3-3.4h-0.2v3.4h-0.5v-7.1h0.9c0.6,0,1.1,0,1.6,0.4c0.5,0.4,0.7,0.9,0.7,1.5
        c0,1.2-0.9,1.9-2,1.8L377.4,392.9z M374.9,389.1c0.4,0,0.9,0,1.2-0.3c0.3-0.3,0.5-0.7,0.5-1.1c0-0.5-0.2-1.1-0.8-1.3
        c-0.4-0.2-0.9-0.2-1.3-0.2h-0.3v2.9H374.9z"/>
      <path d="M378.9,392.9h-0.5v-7.1h0.5V392.9z"/>
      <path d="M382,392.9h-0.5v-6.7h-1.8v-0.4h4.1v0.4H382V392.9z"/>
      <path d="M386.6,392.9h-0.5v-6.7h-1.8v-0.4h4.1v0.4h-1.8V392.9z"/>
      <path d="M389.7,386.2v2.6h2.9v0.4h-2.9v3.2h2.9v0.4h-3.4v-7.1h3.4v0.4H389.7z"/>
      <path d="M400.1,393.1l-5.9-6.3v6.1h-0.5v-7.2l5.9,6.3v-6.2h0.5V393.1z"/>
      <path d="M404.8,393.4h1.1v0.5h-1.6v-9h1.6v0.5h-1.1V393.4z"/>
      <path d="M409.6,391.9L409.6,391.9l2.1-6h0.5l-2.6,7.3l-2.5-7.3h0.5L409.6,391.9z"/>
      <path d="M413.4,392.9h-0.5v-7.1h0.5V392.9z"/>
      <path d="M421.9,389.4c0,2-1.7,3.6-3.7,3.6c-2,0-3.7-1.6-3.7-3.6s1.7-3.6,3.7-3.6C420.2,385.7,421.9,387.4,421.9,389.4
        z M415,389.4c0,1.7,1.5,3.2,3.2,3.2c1.8,0,3.2-1.5,3.2-3.2c0-1.7-1.5-3.2-3.2-3.2C416.4,386.2,415,387.6,415,389.4z"/>
      <path d="M423.5,392.5h1.8v0.4H423v-7.1h0.5V392.5z"/>
      <path d="M427.1,390.6l-0.9,2.3h-0.5l3-7.3l3,7.3h-0.5l-0.9-2.3H427.1z M428.7,386.7l-1.4,3.4h2.8L428.7,386.7z"/>
      <path d="M433.5,385.4h-1.1v-0.5h1.6v9h-1.6v-0.5h1.1V385.4z"/>
      <path d="M234.8,374.1h-0.5v-6.7h-1.8V367h4.1v0.4h-1.8V374.1z"/>
      <path d="M241,374.1h-0.5l-2.3-3.4h-0.2v3.4h-0.5V367h0.9c0.6,0,1.1,0,1.6,0.4c0.5,0.4,0.7,0.9,0.7,1.5
        c0,1.2-0.9,1.9-2,1.8L241,374.1z M238.5,370.4c0.4,0,0.9,0,1.2-0.3c0.3-0.3,0.5-0.7,0.5-1.1c0-0.5-0.2-1.1-0.8-1.3
        c-0.4-0.2-0.9-0.2-1.3-0.2h-0.3v2.9H238.5z"/>
      <path d="M248.9,370.6c0,2-1.7,3.6-3.7,3.6c-2,0-3.7-1.6-3.7-3.6s1.7-3.6,3.7-3.6C247.2,367,248.9,368.6,248.9,370.6z
         M242,370.6c0,1.7,1.5,3.2,3.2,3.2c1.8,0,3.2-1.5,3.2-3.2c0-1.7-1.5-3.2-3.2-3.2C243.4,367.4,242,368.8,242,370.6z"/>
      <path d="M248.8,367h0.5l2.1,3.6l2.1-3.6h0.5l-2.4,4.1v3h-0.5v-3L248.8,367z"/>
      <path d="M259.3,374.1h-0.5v-6.7H257V367h4.1v0.4h-1.8V374.1z"/>
      <path d="M265.4,374.1h-0.5l-2.3-3.4h-0.2v3.4h-0.5V367h0.9c0.6,0,1.1,0,1.6,0.4c0.5,0.4,0.7,0.9,0.7,1.5
        c0,1.2-0.9,1.9-2,1.8L265.4,374.1z M262.9,370.4c0.4,0,0.9,0,1.2-0.3c0.3-0.3,0.5-0.7,0.5-1.1c0-0.5-0.2-1.1-0.8-1.3
        c-0.4-0.2-0.9-0.2-1.3-0.2h-0.3v2.9H262.9z"/>
      <path d="M267.4,371.8l-0.9,2.3H266l3-7.3l3,7.3h-0.5l-0.9-2.3H267.4z M269,368l-1.4,3.4h2.8L269,368z"/>
      <path d="M274.1,373.1L274.1,373.1l2.1-6h0.5l-2.6,7.3l-2.5-7.3h0.5L274.1,373.1z"/>
      <path d="M277.9,367.5v2.6h2.9v0.4h-2.9v3.2h2.9v0.4h-3.4V367h3.4v0.4H277.9z"/>
      <path d="M288.4,374.4l-5.9-6.3v6.1H282V367l5.9,6.3V367h0.5V374.4z"/>
      <path d="M290.4,367.5v2.6h2.9v0.4h-2.9v3.2h2.9v0.4h-3.4V367h3.4v0.4H290.4z"/>
      <path d="M298,374.1h-0.5l-2.3-3.4h-0.2v3.4h-0.5V367h0.9c0.6,0,1.1,0,1.6,0.4c0.5,0.4,0.7,0.9,0.7,1.5
        c0,1.2-0.9,1.9-2,1.8L298,374.1z M295.5,370.4c0.4,0,0.9,0,1.2-0.3c0.3-0.3,0.5-0.7,0.5-1.1c0-0.5-0.2-1.1-0.8-1.3
        c-0.4-0.2-0.9-0.2-1.3-0.2h-0.3v2.9H295.5z"/>
      <path d="M302.2,374.7h1.1v0.5h-1.6v-9h1.6v0.5h-1.1V374.7z"/>
      <path d="M310.5,368.5c-0.5-0.7-1.5-1.1-2.4-1.1c-1.8,0-3.2,1.5-3.2,3.3c0,0.8,0.4,1.6,0.9,2.2c0.6,0.6,1.4,1,2.3,1
        c0.8,0,1.8-0.4,2.4-1.1v0.6c-0.7,0.6-1.5,0.9-2.4,0.9c-2,0-3.7-1.6-3.7-3.6c0-2,1.7-3.6,3.7-3.6c0.9,0,1.7,0.3,2.3,0.9V368.5z"/>
      <path d="M312.1,367.5v2.6h2.9v0.4h-2.9v3.2h2.9v0.4h-3.4V367h3.4v0.4H312.1z"/>
      <path d="M316.6,373.7h1.8v0.4h-2.3V367h0.5V373.7z"/>
      <path d="M319.7,373.7h1.8v0.4h-2.3V367h0.5V373.7z"/>
      <path d="M328.8,370.6c0,2-1.7,3.6-3.7,3.6c-2,0-3.7-1.6-3.7-3.6s1.7-3.6,3.7-3.6C327.1,367,328.8,368.6,328.8,370.6z
         M321.9,370.6c0,1.7,1.5,3.2,3.2,3.2c1.8,0,3.2-1.5,3.2-3.2c0-1.7-1.5-3.2-3.2-3.2C323.4,367.4,321.9,368.8,321.9,370.6z"/>
      <path d="M331,366.6h-1.1v-0.5h1.6v9h-1.6v-0.5h1.1V366.6z"/>
      <path d="M351.9,33.3h3.7c2.8,0,5.1,2.2,5.1,5.1s-2.3,5.1-5.1,5.1h-3.7V33.3z M354.5,41.2h0.6c1.6,0,2.9-0.9,2.9-2.8
        c0-1.8-1.2-2.8-2.9-2.8h-0.6V41.2z"/>
      <path d="M370.6,33.3V39c0,1.3-0.1,2.6-1.1,3.6c-0.8,0.8-2.2,1.1-3.3,1.1c-1.2,0-2.5-0.3-3.3-1.1c-1-1-1.1-2.3-1.1-3.6
        v-5.7h2.6v5.3c0,1.3,0.1,2.7,1.8,2.7s1.8-1.4,1.8-2.7v-5.3H370.6z"/>
      <path d="M382.9,38.2c0,3.3-2.3,5.6-5.6,5.6s-5.6-2.3-5.6-5.6c0-3.1,2.7-5.2,5.6-5.2S382.9,35.2,382.9,38.2z
         M374.5,38.2c0,1.7,1.3,3,2.9,3s2.9-1.3,2.9-3c0-1.4-1.3-2.7-2.9-2.7S374.5,36.8,374.5,38.2z"/>
      <path d="M393,39.5l2.5-6.1h2.9l-4.3,10.1h-2l-4.2-10.1h2.9L393,39.5z"/>
      <path d="M401.5,43.4h-2.6V33.3h2.6V43.4z"/>
      <path d="M408.7,35.9c-0.5-0.4-1.1-0.7-1.7-0.7c-0.5,0-1.1,0.3-1.1,0.8c0,0.6,0.7,0.8,1.2,1l0.7,0.2
        c1.4,0.4,2.5,1.1,2.5,2.8c0,1-0.2,2-1,2.7c-0.8,0.7-1.8,1-2.9,1c-1.3,0-2.5-0.4-3.6-1.2l1.1-2.1c0.7,0.6,1.4,1,2.3,1
        c0.6,0,1.3-0.3,1.3-1c0-0.7-1-1-1.6-1.2c-1.6-0.5-2.7-0.9-2.7-2.9c0-2,1.5-3.4,3.5-3.4c1,0,2.3,0.3,3.2,0.8L408.7,35.9z"/>
      <path d="M416.7,35.9c-0.5-0.4-1.1-0.7-1.7-0.7c-0.5,0-1.1,0.3-1.1,0.8c0,0.6,0.7,0.8,1.2,1l0.7,0.2
        c1.4,0.4,2.5,1.1,2.5,2.8c0,1-0.2,2-1,2.7c-0.8,0.7-1.8,1-2.9,1c-1.3,0-2.5-0.4-3.6-1.2l1.1-2.1c0.7,0.6,1.4,1,2.3,1
        c0.6,0,1.3-0.3,1.3-1c0-0.7-1-1-1.6-1.2c-1.6-0.5-2.7-0.9-2.7-2.9c0-2,1.5-3.4,3.5-3.4c1,0,2.3,0.3,3.2,0.8L416.7,35.9z"/>
      <path d="M422,43.4h-2.6V33.3h2.6V43.4z"/>
      <path d="M428.2,33.3h3.7c2.8,0,5.1,2.2,5.1,5.1s-2.3,5.1-5.1,5.1h-3.7V33.3z M430.9,41.2h0.6c1.6,0,2.9-0.9,2.9-2.8
        c0-1.8-1.2-2.8-2.9-2.8h-0.6V41.2z"/>
      <path d="M442,33.3l-2.5,4.4H438l1.7-4.4H442z"/>
      <path d="M444.3,41.7l-0.7,1.8h-2.8l3.9-10.1h2.9l3.8,10.1h-2.8l-0.7-1.8H444.3z M446.2,36.5L446.2,36.5l-1.1,3.2h2.2
        L446.2,36.5z"/>
      <path d="M460.6,43.4h-3.3l-2.5-3.9h0v3.9h-2.6V33.3h3.9c2,0,3.5,1,3.5,3.1c0,1.4-0.8,2.6-2.2,2.9L460.6,43.4z
         M454.8,37.9h0.3c0.9,0,1.8-0.2,1.8-1.3s-1-1.3-1.8-1.3h-0.3V37.9z"/>
      <path d="M465,43.4h-2.6v-7.9h-2.2v-2.2h7v2.2H465V43.4z"/>
      <path d="M470.7,35.6v1.7h3v2.2h-3v1.7h3.1v2.2H468V33.3h5.7v2.2H470.7z"/>
      <path d="M305.9,31.4l6.9-6.1c1.1-1,3.8-3.4,3.8-4.9c0-0.8-0.6-1.4-1.4-1.4c-1.3,0-1.5,1.1-1.5,2.2h-6.2
        c0.5-5.1,2.7-7.3,7.9-7.3c3.6,0,7.4,2.1,7.4,6.1c0,3.5-3,5.7-6.1,6.6v0.2l3-0.4l3.4-0.2v5.3H305.9z"/>
      <path d="M325.6,19.7v-5.6h16.8l-9.9,17.3h-7l6.5-11c0.2-0.4,0.4-0.8,0.7-1v-0.1l-2.5,0.2L325.6,19.7z"/>
    </g>
    <line class="st32-postcard-classical" x1="342.6" y1="37.9" x2="305.4" y2="37.9"/>
    <g class="st31-postcard-classical">
      <path d="M312.5,46.7v-2.5h9.4l-6.6,11.4H312l5.2-8.9H312.5z"/>
      <path d="M325.4,49.6v2.3h-4.3v-2.3H325.4z"/>
      <path d="M328.6,55.6l3.3-3.8l0,0c-0.5,0.2-1,0.3-1.6,0.3c-2.2,0-3.7-1.9-3.7-4c0-2.8,2.3-4.3,4.9-4.3
        c1.1,0,2.4,0.3,3.3,1c0.9,0.7,1.5,2,1.5,3.2c0,1.7-0.8,3.2-1.8,4.5l-2.4,3.2H328.6z M329.7,47.9c0,1,0.8,1.9,1.8,1.9
        s1.9-0.8,1.9-1.9s-0.8-1.9-1.9-1.9S329.7,46.9,329.7,47.9z"/>
      <path d="M313.1,62h4c2.2,0,3.7,1,3.7,3.3c0,2.4-1.3,3.4-3.6,3.4h-1.5v3.4h-2.6V62z M315.8,66.7h0.4c1,0,1.9,0,1.9-1.2
        c0-1.3-0.9-1.3-1.9-1.3h-0.4V66.7z"/>
      <path d="M324.5,62h2.6l2.1,5.4l2.2-5.4h2.6l1.5,10.2h-2.6l-0.7-5.8h0l-2.4,5.8h-1.1l-2.3-5.8h0l-0.8,5.8h-2.6
        L324.5,62z"/>
      <path d="M137.8,278.5c-0.5-0.4-1.1-0.7-1.7-0.7c-0.5,0-1.1,0.3-1.1,0.8c0,0.6,0.7,0.8,1.2,1l0.7,0.2
        c1.4,0.4,2.5,1.1,2.5,2.8c0,1-0.2,2-1,2.7c-0.8,0.7-1.8,1-2.9,1c-1.3,0-2.5-0.4-3.6-1.2l1.1-2.1c0.7,0.6,1.4,1,2.3,1
        c0.6,0,1.3-0.3,1.3-1c0-0.7-1-1-1.6-1.2c-1.6-0.5-2.7-0.9-2.7-2.9c0-2,1.5-3.4,3.5-3.4c1,0,2.3,0.3,3.2,0.8L137.8,278.5z"/>
      <path d="M144.4,286h-2.6v-7.9h-2.2v-2.2h7v2.2h-2.2V286z"/>
      <path d="M155.8,286h-3.3l-2.5-3.9h0v3.9h-2.6v-10.1h3.9c2,0,3.5,1,3.5,3.1c0,1.4-0.8,2.6-2.2,2.9L155.8,286z
         M150,280.4h0.3c0.9,0,1.8-0.2,1.8-1.3s-1-1.3-1.8-1.3H150V280.4z"/>
      <path d="M159.1,286h-2.6v-10.1h2.6V286z"/>
      <path d="M160.8,275.9h2.6l4.8,6.2h0v-6.2h2.6V286h-2.6l-4.8-6.2h0v6.2h-2.6V275.9z"/>
      <path d="M182.7,280.4c0,1.5-0.1,2.7-1,4c-1,1.4-2.5,2-4.2,2c-3.2,0-5.4-2.2-5.4-5.3c0-3.3,2.2-5.4,5.5-5.4
        c2.1,0,3.7,0.9,4.6,2.8l-2.5,1c-0.4-1-1.1-1.6-2.2-1.6c-1.7,0-2.6,1.6-2.6,3.2c0,1.6,0.9,3.2,2.7,3.2c1.1,0,2-0.6,2.1-1.8h-2.1
        v-2.1H182.7z"/>
      <path d="M188.4,275.9h4c2.2,0,3.7,1,3.7,3.3c0,2.4-1.3,3.4-3.6,3.4h-1.5v3.3h-2.6V275.9z M191.1,280.5h0.4
        c1,0,1.9,0,1.9-1.2c0-1.3-0.9-1.3-1.9-1.3h-0.4V280.5z"/>
      <path d="M207.9,280.8c0,3.3-2.3,5.6-5.6,5.6s-5.6-2.3-5.6-5.6c0-3.1,2.7-5.2,5.6-5.2S207.9,277.7,207.9,280.8z
         M199.5,280.8c0,1.7,1.3,3,2.9,3s2.9-1.3,2.9-3c0-1.4-1.3-2.7-2.9-2.7S199.5,279.4,199.5,280.8z"/>
      <path d="M211.8,278.1v1.7h3v2.2h-3v1.7h3.1v2.2h-5.7v-10.1h5.7v2.2H211.8z"/>
      <path d="M220.5,286h-2.6v-7.9h-2.2v-2.2h7v2.2h-2.2V286z"/>
      <path d="M229,278.5c-0.5-0.4-1.1-0.7-1.7-0.7c-0.5,0-1.1,0.3-1.1,0.8c0,0.6,0.7,0.8,1.2,1l0.7,0.2
        c1.4,0.4,2.5,1.1,2.5,2.8c0,1-0.2,2-1,2.7c-0.8,0.7-1.8,1-2.9,1c-1.3,0-2.5-0.4-3.6-1.2l1.1-2.1c0.7,0.6,1.4,1,2.3,1
        c0.6,0,1.3-0.3,1.3-1c0-0.7-1-1-1.6-1.2c-1.6-0.5-2.7-0.9-2.7-2.9c0-2,1.5-3.4,3.5-3.4c1,0,2.3,0.3,3.2,0.8L229,278.5z"/>
      <path d="M244.9,286.6l-0.8-1c-0.8,0.5-1.7,0.7-2.8,0.7c-3.2,0-5.6-2.3-5.6-5.6c0-3.1,2.7-5.2,5.6-5.2
        c3.1,0,5.6,2.1,5.6,5.4c0,1.3-0.5,2.5-1.3,3.6l1.7,1.7L244.9,286.6z M243.7,282.5c0.3-0.4,0.5-1,0.5-1.5c0-1.5-1.3-2.9-2.8-2.9
        c-1.6,0-2.9,1.3-2.9,2.7c0,1.7,1.3,3,2.9,3c0.3,0,0.5,0,0.8-0.1l-1.6-1.6l2.5-0.3L243.7,282.5z"/>
      <path d="M256.9,275.9v5.7c0,1.3-0.1,2.6-1.1,3.6c-0.8,0.8-2.2,1.1-3.3,1.1c-1.2,0-2.5-0.3-3.3-1.1
        c-1-1-1.1-2.3-1.1-3.6v-5.7h2.6v5.3c0,1.3,0.1,2.7,1.8,2.7s1.8-1.4,1.8-2.7v-5.3H256.9z"/>
      <path d="M260.7,284.3L260,286h-2.8l3.9-10.1h2.9l3.8,10.1h-2.8l-0.7-1.8H260.7z M262.5,279L262.5,279l-1.1,3.2h2.2
        L262.5,279z"/>
      <path d="M276.9,286h-3.3l-2.5-3.9h0v3.9h-2.6v-10.1h3.9c2,0,3.5,1,3.5,3.1c0,1.4-0.8,2.6-2.2,2.9L276.9,286z
         M271.1,280.4h0.3c0.9,0,1.8-0.2,1.8-1.3s-1-1.3-1.8-1.3h-0.3V280.4z"/>
      <path d="M281.4,286h-2.6v-7.9h-2.2v-2.2h7v2.2h-2.2V286z"/>
      <path d="M287,278.1v1.7h3v2.2h-3v1.7h3.1v2.2h-5.7v-10.1h5.7v2.2H287z"/>
      <path d="M295.7,286h-2.6v-7.9h-2.2v-2.2h7v2.2h-2.2V286z"/>
      <path d="M310.5,257l8.9-0.3v17.3h-6.3v-11.8l-2.7,0.2V257z"/>
      <path d="M330.5,268c0,1,0.7,2,1.8,2c0.9,0,1.7-0.7,1.7-1.6c0-0.9-0.7-1.6-1.6-1.6c-0.3,0-0.6,0-0.9,0.1v-3.6l0.5,0
        c0.7,0.1,1.3-0.5,1.3-1.2c0-0.7-0.5-1.2-1.2-1.2c-0.7,0-1.2,0.6-1.1,1.3h-6.2c0.4-4.3,3.5-5.8,7.5-5.8c2.9,0,7.2,1.4,7.2,5
        c0,1.4-0.8,2.8-2.1,3.4v0.1c1.8,0.5,2.9,2.1,2.9,3.9c0,4.2-4.4,5.5-7.8,5.5c-4.2,0-8-1.6-8.2-6.4H330.5z"/>
    </g>
    <line class="st32-postcard-classical" x1="342.6" y1="280.5" x2="305.4" y2="280.5"/>
    <g class="st31-postcard-classical">
      <path d="M312.5,289.2v-2.5h9.4l-6.6,11.4H312l5.2-8.9H312.5z"/>
      <path d="M325.4,292.2v2.3h-4.3v-2.3H325.4z"/>
      <path d="M328.6,298.2l3.3-3.8l0,0c-0.5,0.2-1,0.3-1.6,0.3c-2.2,0-3.7-1.9-3.7-4c0-2.8,2.3-4.3,4.9-4.3
        c1.1,0,2.4,0.3,3.3,1c0.9,0.7,1.5,2,1.5,3.2c0,1.7-0.8,3.2-1.8,4.5l-2.4,3.2H328.6z M329.7,290.5c0,1,0.8,1.9,1.8,1.9
        s1.9-0.8,1.9-1.9c0-1-0.8-1.9-1.9-1.9S329.7,289.5,329.7,290.5z"/>
      <path d="M313.1,304.6h4c2.2,0,3.7,1,3.7,3.3c0,2.4-1.3,3.4-3.6,3.4h-1.5v3.4h-2.6V304.6z M315.8,309.3h0.4
        c1,0,1.9,0,1.9-1.2c0-1.3-0.9-1.3-1.9-1.3h-0.4V309.3z"/>
      <path d="M324.5,304.6h2.6l2.1,5.4l2.2-5.4h2.6l1.5,10.2h-2.6l-0.7-5.8h0l-2.4,5.8h-1.1l-2.3-5.8h0l-0.8,5.8h-2.6
        L324.5,304.6z"/>
    <path d="M327.3,128.2v-1.4H319V126h8.3v-1.4h0.8v3.6H327.3z"/>
    <path d="M323.6,138.5c-1.7,0-4.7-0.1-4.7-2.2c0-2,2.5-2.2,4.7-2.2c2.3,0,4.7,0.3,4.7,2.2
      C328.2,138.3,325.6,138.5,323.6,138.5z M323.6,134.9c-1.6,0-3.8,0.1-3.8,1.4c0,1.3,2.2,1.4,3.8,1.4c1.6,0,3.8-0.1,3.8-1.4
      C327.5,135,325.2,134.9,323.6,134.9z"/>
    <path d="M327.3,156v-1.4H319v-0.8h8.3v-1.4h0.8v3.6H327.3z"/>
    <path d="M319,166v-0.8h4.7v-2.1H319v-0.8h9.1v0.8h-3.6v2.1h3.6v0.8H319z"/>
    <path d="M327.3,175.6v-2h-3.2v2h-0.8v-2h-3.6v2H319v-2.9h9.1v2.9H327.3z"/>
    <path d="M319,190.2h9.1v0.9c0,1.3-0.1,2.5-2.4,2.5c-1.8,0-2.4-0.6-2.4-2.3V191H319V190.2z M324.1,191v0.3
      c0,1.2,0.4,1.3,1.6,1.4c1.3,0,1.6-0.3,1.6-1.5V191H324.1z"/>
    <path d="M321.9,203.7c-1.7,0-3-0.1-3-1.9c0-1.8,1.4-1.9,3-1.9h6.2v0.8H322c-1.5,0-2.2,0.1-2.2,1.1c0,1,0.7,1.1,2.2,1.1
      h6.2v0.8H321.9z"/>
    <path d="M328.1,211.6c0,1.2-0.1,2.2-2.3,2.2c-0.9,0-1.7-0.2-2.1-1.1c-0.3,1.1-1.2,1.3-2.2,1.3c-1.9,0-2.5-0.7-2.5-2.5
      v-1.1h9.1V211.6z M323.4,211.3h-3.6v0.2c0,1.3,0.4,1.6,1.7,1.6c1.5,0,1.9-0.5,1.9-1.6V211.3z M327.4,211.3h-3.3v0.2
      c0,0.7-0.1,1.4,1.7,1.4c1.4,0,1.6-0.3,1.6-1.4V211.3z"/>
    <path d="M319.8,221.4v2H319v-2.8h9.1v0.8H319.8z"/>
    <path d="M319,230.5v-0.8h9.1v0.8H319z"/>
    <path d="M319.3,240.6c-0.2-0.3-0.4-0.8-0.4-1.2c0-2.1,2.8-2.4,4.3-2.4c1.5,0,5,0,5,2.5c0,0.3-0.1,0.8-0.3,1.1H327
      c0.2-0.3,0.4-0.6,0.4-1.1c0-1.5-2.1-1.7-3.8-1.7c-1.1,0-3.9,0-3.9,1.6c0,0.4,0.2,0.8,0.4,1.1H319.3z"/>
    <path d="M167.5,418.2H167l-0.6-4.1c0-0.2,0-0.7-0.1-1h0c0,0.3-0.1,0.8-0.1,1l-0.7,4.1H165l-1-6.1h0.6l0.5,4.1
      c0,0.3,0.1,0.6,0.1,0.9h0c0-0.3,0.1-0.6,0.1-0.9l0.7-4.1h0.5l0.6,4.1c0,0.3,0.1,0.6,0.1,0.9h0c0-0.3,0.1-0.6,0.1-0.9l0.6-4.1h0.6
      L167.5,418.2z"/>
    <path d="M177.3,418.2h-0.5l-0.6-4.1c0-0.2,0-0.7-0.1-1h0c0,0.3-0.1,0.8-0.1,1l-0.7,4.1h-0.5l-1-6.1h0.6l0.5,4.1
      c0,0.3,0.1,0.6,0.1,0.9h0c0-0.3,0.1-0.6,0.1-0.9l0.7-4.1h0.5l0.6,4.1c0,0.3,0.1,0.6,0.1,0.9h0c0-0.3,0.1-0.6,0.1-0.9l0.6-4.1h0.6
      L177.3,418.2z"/>
    <path d="M187,418.2h-0.5l-0.6-4.1c0-0.2,0-0.7-0.1-1h0c0,0.3-0.1,0.8-0.1,1l-0.7,4.1h-0.5l-1-6.1h0.6l0.5,4.1
      c0,0.3,0.1,0.6,0.1,0.9h0c0-0.3,0.1-0.6,0.1-0.9l0.7-4.1h0.5l0.6,4.1c0,0.3,0.1,0.6,0.1,0.9h0c0-0.3,0.1-0.6,0.1-0.9l0.6-4.1h0.6
      L187,418.2z"/>
    <path d="M193.8,417.8c0,0.2-0.2,0.4-0.4,0.4s-0.4-0.2-0.4-0.4c0-0.2,0.2-0.4,0.4-0.4S193.8,417.6,193.8,417.8z"/>
    <path class="st31" d="M203.3,418.2h-0.6l-0.4-4.5c0-0.2,0-0.4,0-0.6h0c0,0.4-0.1,0.8-0.1,1.2l-0.7,3.8H201l-0.7-4.5
      c0-0.2,0-0.4-0.1-0.6h0c0,0.4,0,0.8-0.1,1.2l-0.5,3.9h-0.5l0.9-6.1h0.5l0.7,4.5c0,0.2,0,0.4,0.1,0.6h0c0-0.3,0.1-0.7,0.1-1l0.7-4.1
      h0.5L203.3,418.2z"/>
    <path d="M211.1,416.3c0,1.1-0.1,2-1.3,2c-1.2,0-1.3-0.9-1.3-2v-4.1h0.6v4.1c0,1,0.1,1.5,0.7,1.5c0.6,0,0.7-0.5,0.7-1.5
      v-4.1h0.6V416.3z"/>
    <path d="M218.8,413.1c-0.2-0.3-0.5-0.5-0.9-0.5c-0.6,0-0.9,0.5-0.9,1c0,0.7,0.5,1,1,1.4c0.5,0.4,1,0.7,1,1.6
      c0,0.9-0.6,1.7-1.5,1.7c-0.3,0-0.7-0.1-1-0.3v-0.7c0.3,0.3,0.6,0.5,1,0.5c0.6,0,0.9-0.5,0.9-1.1c0-0.7-0.5-1-1-1.4
      c-0.5-0.4-1-0.7-1-1.6c0-0.8,0.5-1.6,1.4-1.6c0.4,0,0.7,0.1,1,0.3V413.1z"/>
    <path d="M225,418.2h-0.6v-6.1h0.6V418.2z"/>
    <path d="M232.9,418c-0.2,0.1-0.5,0.2-0.8,0.2c-1.4,0-1.6-1.9-1.6-2.9c0-1,0-3.3,1.7-3.3c0.2,0,0.5,0.1,0.7,0.2v0.6
      c-0.2-0.2-0.4-0.3-0.7-0.3c-1,0-1.1,1.4-1.1,2.5c0,0.7,0,2.6,1.1,2.6c0.3,0,0.5-0.1,0.7-0.3V418z"/>
    <path d="M241,415.2c0,1.1-0.1,3.1-1.5,3.1c-1.3,0-1.5-1.7-1.5-3.1c0-1.5,0.2-3.1,1.5-3.1
      C240.9,412,241,413.8,241,415.2z M238.6,415.2c0,1.1,0,2.6,0.9,2.6c0.9,0,0.9-1.5,0.9-2.6c0-1.1,0-2.6-0.9-2.6
      C238.7,412.5,238.6,414.1,238.6,415.2z"/>
    <path d="M249,418.2h-0.5l-1.4-4.1c-0.1-0.2-0.1-0.5-0.2-0.8h0c0,0.4,0.1,0.8,0.1,1.2v3.7h-0.5v-6.1h0.5l1.4,4.2
      c0.1,0.2,0.1,0.4,0.2,0.6h0c0-0.3-0.1-0.5-0.1-0.8v-4h0.5V418.2z"/>
    <path d="M256.7,412.6h-0.9v5.5h-0.6v-5.5h-0.9v-0.5h2.4V412.6z"/>
    <path d="M264.5,418.2h-0.6v-3.1h-1.4v3.1H262v-6.1h0.6v2.4h1.4v-2.4h0.6V418.2z"/>
    <path d="M272,412.6h-1.3v2.1h1.3v0.5h-1.3v2.4h1.3v0.5h-1.9v-6.1h1.9V412.6z"/>
    <path d="M280,418.2h-0.6v-3.1H278v3.1h-0.6v-6.1h0.6v2.4h1.4v-2.4h0.6V418.2z"/>
    <path d="M286.1,418.2h-0.6v-6.1h0.6V418.2z"/>
    <path d="M292.3,417.7h1.3v0.5h-1.9v-6.1h0.6V417.7z"/>
    <path d="M299.4,417.7h1.3v0.5h-1.9v-6.1h0.6V417.7z"/>
    <path d="M306.8,417.8c0,0.2-0.2,0.4-0.4,0.4s-0.4-0.2-0.4-0.4c0-0.2,0.2-0.4,0.4-0.4S306.8,417.6,306.8,417.8z"/>
    <path d="M314.4,418c-0.2,0.1-0.5,0.2-0.8,0.2c-1.4,0-1.6-1.9-1.6-2.9c0-1,0-3.3,1.7-3.3c0.2,0,0.5,0.1,0.7,0.2v0.6
      c-0.2-0.2-0.4-0.3-0.7-0.3c-1,0-1.1,1.4-1.1,2.5c0,0.7,0,2.6,1.1,2.6c0.3,0,0.5-0.1,0.7-0.3V418z"/>
    <path d="M322.5,415.2c0,1.1-0.1,3.1-1.5,3.1c-1.3,0-1.5-1.7-1.5-3.1c0-1.5,0.2-3.1,1.5-3.1
      C322.4,412,322.5,413.8,322.5,415.2z M320.1,415.2c0,1.1,0,2.6,0.9,2.6c0.9,0,0.9-1.5,0.9-2.6c0-1.1,0-2.6-0.9-2.6
      C320.1,412.5,320.1,414.1,320.1,415.2z"/>
    <path d="M331.8,418.2h-0.6l-0.4-4.5c0-0.2,0-0.4,0-0.6h0c0,0.4-0.1,0.8-0.1,1.2l-0.7,3.8h-0.5l-0.7-4.5
      c0-0.2,0-0.4-0.1-0.6h0c0,0.4,0,0.8-0.1,1.2l-0.5,3.9h-0.5l0.9-6.1h0.5l0.7,4.5c0,0.2,0,0.4,0.1,0.6h0c0-0.3,0.1-0.7,0.1-1l0.7-4.1
      h0.5L331.8,418.2z"/>
    </g>
  <line class="st32-postcard-classical" x1="0" y1="415.4" x2="161.6" y2="415.4"/>
</svg>
