<svg version="1.1" xmlns="https://www.w3.org/2000/svg" xmlns:xlink="https://www.w3.org/1999/xlink" x="0px" y="0px" viewBox="0 0 648 432">
<style type="text/css">
  .st11-postcard-jazz{clip-path:url(#SVGID_2_);fill:#D2232A;}
  .st12-postcard-jazz{clip-path:url(#SVGID_2_);}
  .st13-postcard-jazz{fill:#F5EEDF;}
  .st14-postcard-jazz{fill:#D2232A;}
  .st15-postcard-jazz{fill:none;stroke:#000000;stroke-width:5.375;}
  .st16-postcard-jazz{fill:none;stroke:#D2232A;stroke-width:3.225;}
  .st17-postcard-jazz{fill:none;stroke:#000000;stroke-width:1.613;stroke-miterlimit:2.15;}
  .st18-postcard-jazz{clip-path:url(#SVGID_2_);fill:none;stroke:#000000;stroke-width:3.225;}
</style>
<g>
  <defs>
    <rect id="SVGID_1_" width="648" height="432"/>
  </defs>
  <clipPath id="SVGID_2_">
    <use xlink:href="#SVGID_1_"  style="overflow:visible;"/>
  </clipPath>
  <rect class="st11-postcard-jazz" width="648" height="432"/>
  <g class="st12-postcard-jazz">
    <polygon class="st13-postcard-jazz" points="225.2,0 166.3,325.7 514.8,388.7 577.8,40.2 355.4,0 		"/>
    <g>
      <path d="M292.8,130.8l-0.2,0l-29.3,51l-5.8-1.1l-9-57.9l-0.2,0l-17.3,52l-16.9-3.1L244.6,86l11.9,2.1l11,60.5l30.5-53l12.1,2.2
        l-3.1,90.6l-16.9-3.1L292.8,130.8z"/>
      <path d="M326.7,103.2l16.8,3l-8.7,48.1c-1.9,10.6-3.7,25.7,10.5,28.3c14.2,2.6,17.9-12.2,19.8-22.8l8.7-48.1l16.8,3l-9.3,51.4
        c-3.8,21-15.5,35.2-38.6,31s-29.1-21.6-25.3-42.6L326.7,103.2z"/>
      <path d="M435.3,142.4c-2.4-4.9-6-8.4-11.6-9.4c-5.4-1-11.2,2.2-12.2,7.8c-2.6,14.5,32.6,14.6,27.3,43.4
        c-3.1,17.2-16,27.5-33.6,24.3c-11.9-2.1-19.3-10.6-23.4-21.5l12.7-8.6c1.1,7,6.1,14,13.2,15.3c6.8,1.2,12.1-3.8,13.3-10.4
        c1.6-8.9-6.1-12.9-12.4-16.7c-10.2-6.6-17.3-13.6-14.9-26.9c2.6-14.2,15.3-23.8,29.7-21.2c7.6,1.4,17.6,7.1,21.8,13.8
        L435.3,142.4z"/>
      <path d="M456.9,215.6l-16.8-3l15.5-86l16.8,3L456.9,215.6z"/>
      <path d="M535.9,164.6c-3.6-6.5-10.1-11.2-17.3-12.5c-16.1-2.9-28,10.2-30.7,25.1c-2.6,14.5,4.3,30.7,20,33.5
        c7.2,1.3,15-1.2,20.7-5.7l-3.6,19.9c-6.8,1.8-13.5,2.9-20.4,1.6c-24.2-4.4-38.3-28.5-34-52.2c4.4-24.4,25.5-42.8,50.7-38.3
        c6.7,1.2,13,4.2,18.2,8.5L535.9,164.6z"/>
    </g>
    <g>
      <path d="M357.4,249.7l6.3-34.9l9.6,1.7l-15.5,86l-9.6-1.7l7.6-42.2l-44-8l-7.6,42.2l-9.6-1.7l15.5-86l9.6,1.7l-6.3,34.9
        L357.4,249.7z"/>
      <path d="M395.9,309.4l-9.6-1.7l15.5-86l9.6,1.7L395.9,309.4z"/>
      <path d="M435.3,307.4l23.7,4.3l-1.6,8.9l-33.3-6l15.5-86l9.6,1.7L435.3,307.4z"/>
      <path d="M487.8,316.9l23.7,4.3l-1.6,8.9l-33.3-6l15.5-86l9.6,1.7L487.8,316.9z"/>
    </g>
    <g>
      <path d="M225.2,236.9c9.8,1.8,16,11.2,14.3,20.8c-1.7,9.7-10.9,16.3-20.7,14.5c-9.7-1.8-16.1-11.2-14.4-20.8
        C206.2,241.7,215.5,235.1,225.2,236.9z M219.4,268.5c7.6,1.4,15.1-3.7,16.5-11.4c1.4-7.7-3.9-15-11.5-16.4
        c-7.7-1.4-15.1,3.6-16.5,11.4C206.5,259.8,211.8,267.1,219.4,268.5z"/>
      <path d="M208.5,224.1l32.5-21.4l-26.3-4.7l0.7-3.8l35.4,6.4L218.4,222l26.1,4.7l-0.7,3.8L208.5,224.1z"/>
    </g>
    <g>
      <path d="M285.4,275.6l-0.7,3.8l-30.4-5.5l-1.5,8.2l-3.5-0.6l3.7-20.2l3.5,0.6l-1.5,8.3L285.4,275.6z"/>
      <path d="M271.9,234.9l-13.8-2.5l0.7-3.8l33.9,6.1l-0.7,3.8l-16.6-3l-3.1,17.4l16.6,3l-0.7,3.8l-33.9-6.1l0.7-3.8l13.8,2.5
        L271.9,234.9z"/>
      <path d="M260.9,217.5l3.2-17.6l3.5,0.6l-2.5,13.8l10.1,1.8l2.4-13.4l3.5,0.6l-2.4,13.4l13.3,2.4l2.5-13.8l3.5,0.6l-3.2,17.6
        L260.9,217.5z"/>
    </g>
    <g class="st14-postcard-jazz">
      <path d="M247.2,5.4l-1.1,6.1l7.8,1.4l-0.8,4.7l-7.8-1.4l-2.2,12.1l-5.4-1l5-27.5l13.7,2.5l-0.8,4.7L247.2,5.4z"/>
      <path d="M264.7,8.5l-1.1,6.1l8.5,1.5l-0.8,4.7l-8.5-1.5l-1.3,7.4l8.9,1.6l-0.8,4.7l-14.2-2.6l5-27.5l14.2,2.6
        l-0.8,4.7L264.7,8.5z"/>
      <path d="M279.3,6.3l7.7,1.4c8,1.4,12.2,8.4,10.8,16.2c-1.4,7.7-8,12.7-15.8,11.3l-7.6-1.4L279.3,6.3z M280.5,30.2
        l0.9,0.2c6.6,1.2,9.8-2,10.8-7.4c1.1-6-1.4-9.6-7.5-10.7l-0.9-0.2L280.5,30.2z"/>
      <path d="M308.8,16.5l-1.1,6.1l8.5,1.5l-0.8,4.7l-8.5-1.5l-1.3,7.4l8.9,1.6l-0.8,4.7l-14.2-2.6l5-27.5l14.2,2.6
        l-0.8,4.7L308.8,16.5z"/>
      <path d="M337,45.2l-6.5-1.2l-4.7-12.3l-0.1,0l-2,11.1l-5.4-1l5-27.5l7.3,1.3c5.4,1,8.8,4.1,7.7,9.9
        c-0.6,3.5-3.2,6.7-7,6.6L337,45.2z M326.4,27.9l0.7,0.1c3,0.5,5.2,0,5.8-3.3c0.6-3.4-1.4-4.4-4.3-5l-0.7-0.1L326.4,27.9z"/>
      <path d="M348,41.2l-3.3,5.4l-5.7-1l15.8-26.3L359,20l5.3,30.1l-5.7-1l-1.1-6.2L348,41.2z M355.2,27.6L355.2,27.6
        l-4.9,9.4l6.5,1.2L355.2,27.6z"/>
      <path d="M373.6,47l7.6,1.4l-0.8,4.7l-13-2.3l5-27.5l5.4,1L373.6,47z"/>
      <path d="M410.9,41.3l2-10.8l5.4,1l-5,27.5l-5.4-1l2.2-12.3l-9.9-1.8L398,56.2l-5.4-1l5-27.5l5.4,1l-2,10.8
        L410.9,41.3z"/>
      <path d="M424.1,60.9l-5.4-1l5-27.5l5.4,1L424.1,60.9z"/>
      <path d="M435.6,58.2l7.6,1.4l-0.8,4.7l-13-2.3l5-27.5l5.4,1L435.6,58.2z"/>
      <path d="M451.6,61.1l7.6,1.4l-0.8,4.7l-13-2.3l5-27.5l5.4,1L451.6,61.1z"/>
      <path d="M476,70.3l-5.4-1l5-27.5l7.3,1.3c5.8,1,9.1,4,8,10.3c-1.1,5.8-4.7,8.1-10.4,7.1l-2.7-0.5L476,70.3z
         M478.7,55.6l1.1,0.2c3.2,0.6,5,0.2,5.7-3.4c0.6-3.5-1.3-4.4-4.3-5l-0.9-0.2L478.7,55.6z"/>
      <path d="M495.7,67.9l-3.3,5.4l-5.7-1L502.5,46l4.2,0.8l5.3,30.1l-5.7-1l-1.1-6.2L495.7,67.9z M502.9,54.4L502.9,54.4
        l-4.9,9.4l6.5,1.2L502.9,54.4z"/>
      <path d="M533.7,80.8l-6.5-1.2l-4.7-12.3l-0.1,0l-2,11.1l-5.4-1l5-27.5l7.3,1.3c5.4,1,8.8,4.1,7.7,9.9
        c-0.6,3.5-3.2,6.7-7,6.6L533.7,80.8z M523.1,63.5l0.7,0.1c3,0.5,5.2,0,5.8-3.3c0.6-3.4-1.4-4.4-4.3-5l-0.7-0.1L523.1,63.5z"/>
      <path d="M555.7,56.3l6.6,1.2l-12.7,10.8l8.3,16.8l-6.9-1.2l-6.6-14l-0.1,0l-2.2,12.4l-5.4-1l5-27.5l5.4,1L545,66.4
        l0.1,0L555.7,56.3z"/>
    </g>
    <g class="st14-postcard-jazz">
      <path d="M193.5,313.1l-1.1-0.2l0.3-9.1c0-0.5,0.2-1.5,0.2-2.2l-0.1,0c-0.2,0.7-0.4,1.7-0.6,2.1l-3.1,8.6l-1.1-0.2
        l0.3-13.5l1.3,0.2l-0.4,9c0,0.7-0.1,1.3-0.1,2l0.1,0c0.2-0.6,0.4-1.3,0.6-1.9l3.1-8.5l1,0.2l-0.3,9c0,0.7-0.1,1.3-0.1,2l0.1,0
        c0.2-0.6,0.4-1.3,0.6-1.9l3-8.6l1.2,0.2L193.5,313.1z"/>
      <path d="M212.4,316.5l-1.1-0.2l0.3-9.1c0-0.5,0.2-1.5,0.2-2.2l-0.1,0c-0.2,0.7-0.4,1.7-0.6,2.1l-3.1,8.6l-1.1-0.2
        l0.3-13.5l1.3,0.2l-0.4,9c0,0.7-0.1,1.3-0.1,2l0.1,0c0.2-0.6,0.4-1.3,0.6-1.9l3.1-8.5l1,0.2l-0.3,9c0,0.7-0.1,1.3-0.1,2l0.1,0
        c0.2-0.6,0.4-1.3,0.6-1.9l3-8.6l1.2,0.2L212.4,316.5z"/>
      <path d="M231.3,319.9l-1.1-0.2l0.3-9.1c0-0.5,0.2-1.5,0.2-2.2l-0.1,0c-0.2,0.7-0.4,1.7-0.6,2.1l-3.1,8.6l-1.1-0.2
        l0.3-13.5l1.3,0.2l-0.4,9c0,0.7-0.1,1.3-0.1,2l0.1,0c0.2-0.6,0.4-1.3,0.6-1.9l3.1-8.5l1,0.2l-0.3,9c0,0.7-0.1,1.3-0.1,2l0.1,0
        c0.2-0.6,0.4-1.3,0.6-1.9l3-8.6l1.2,0.2L231.3,319.9z"/>
      <path d="M243.9,321.4c-0.1,0.5-0.6,0.8-1.1,0.7c-0.5-0.1-0.8-0.6-0.7-1.1c0.1-0.5,0.6-0.8,1.1-0.7
        C243.6,320.4,243.9,320.9,243.9,321.4z"/>
      <path d="M262,325.5l-1.2-0.2l0.8-9.9c0-0.4,0.1-0.8,0.2-1.3l-0.1,0c-0.3,0.9-0.5,1.7-0.8,2.5l-2.9,8.1l-1-0.2l0.3-10
        c0-0.4,0-0.8,0.1-1.3l-0.1,0c-0.2,0.8-0.3,1.7-0.6,2.6l-2.6,8.2l-1.2-0.2l4.2-12.8l1,0.2l-0.3,10.1c0,0.4-0.1,0.9-0.1,1.3l0.1,0
        c0.2-0.7,0.4-1.5,0.7-2.2l3.1-8.6l1,0.2L262,325.5z"/>
      <path d="M277.5,323.9c-0.4,2.4-1,4.3-3.5,3.8c-2.6-0.5-2.4-2.5-2-4.8l1.6-9l1.2,0.2l-1.6,8.9c-0.4,2.2-0.5,3.3,1,3.5
        c1.4,0.3,1.7-0.8,2.1-3l1.6-8.9l1.2,0.2L277.5,323.9z"/>
      <path d="M293.3,319.7c-0.4-0.7-0.9-1.3-1.7-1.4c-1.2-0.2-2.1,0.7-2.3,1.8c-0.3,1.5,0.7,2.5,1.7,3.4
        c1,1,1.9,2,1.6,3.8c-0.3,1.9-1.9,3.5-4,3.1c-0.7-0.1-1.4-0.5-2-1l0.3-1.6c0.5,0.7,1.1,1.3,1.9,1.5c1.3,0.2,2.2-0.8,2.4-2
        c0.3-1.5-0.7-2.4-1.7-3.4c-1-1-2-2-1.6-3.9c0.3-1.8,1.7-3.3,3.7-2.9c0.8,0.1,1.4,0.5,2,1.1L293.3,319.7z"/>
      <path d="M302.6,332.8l-1.2-0.2l2.4-13.2l1.2,0.2L302.6,332.8z"/>
      <path d="M317.4,335.1c-0.5,0.2-1.2,0.3-1.8,0.2c-3.1-0.6-2.8-4.7-2.4-6.9c0.4-2.1,1.4-7.2,5-6.6
        c0.5,0.1,1.1,0.3,1.5,0.7l-0.2,1.3c-0.4-0.4-0.8-0.7-1.4-0.9c-2.1-0.4-3,2.7-3.4,5.1c-0.3,1.5-1,5.6,1.3,6
        c0.6,0.1,1.2-0.1,1.7-0.3L317.4,335.1z"/>
      <path d="M334,331.7c-0.4,2.5-1.4,6.7-4.5,6.2c-2.9-0.5-2.6-4.3-2-7.3c0.6-3.3,1.7-6.7,4.5-6.2
        C334.9,324.9,334.5,328.8,334,331.7z M328.8,330.7c-0.4,2.3-0.9,5.6,1,5.9c1.9,0.3,2.6-2.9,3-5.2c0.4-2.3,0.9-5.6-1-5.9
        C329.9,325.1,329.2,328.4,328.8,330.7z"/>
      <path d="M347.9,341l-1.1-0.2l-1.4-9.4c-0.1-0.6-0.1-1.2-0.1-1.8l-0.1,0c-0.1,0.9-0.2,1.7-0.3,2.6l-1.4,8l-1.1-0.2
        l2.4-13.2l1.1,0.2l1.4,9.7c0.1,0.5,0.1,1,0.2,1.4l0.1,0c0.1-0.6,0.1-1.2,0.2-1.8l1.6-8.8l1.1,0.2L347.9,341z"/>
      <path d="M364.5,331.5l-2-0.4l-2.2,12l-1.2-0.2l2.2-12l-2-0.4l0.2-1.1l5.2,0.9L364.5,331.5z"/>
      <path d="M377,346.2l-1.2-0.2l1.2-6.8l-3-0.5l-1.2,6.8l-1.2-0.2l2.4-13.2l1.2,0.2l-1,5.3l3,0.5l1-5.3l1.2,0.2
        L377,346.2z"/>
      <path d="M393.2,336.7l-2.9-0.5l-0.8,4.6l2.8,0.5l-0.2,1.1l-2.8-0.5l-0.9,5.2l2.9,0.5l-0.2,1.1l-4.1-0.7l2.4-13.2
        l4.1,0.7L393.2,336.7z"/>
      <path d="M406,351.5l-1.2-0.2l1.2-6.8l-3-0.5l-1.2,6.8l-1.2-0.2l2.4-13.2l1.2,0.2l-1,5.3l3,0.5l1-5.3l1.2,0.2
        L406,351.5z"/>
      <path d="M417.2,353.5l-1.2-0.2l2.4-13.2l1.2,0.2L417.2,353.5z"/>
      <path d="M428.5,354.4l2.9,0.5l-0.2,1.1l-4.1-0.7l2.4-13.2l1.2,0.2L428.5,354.4z"/>
      <path d="M441.7,356.8l2.9,0.5l-0.2,1.1l-4.1-0.7l2.4-13.2l1.2,0.2L441.7,356.8z"/>
      <path d="M455.4,359.7c-0.1,0.5-0.6,0.8-1.1,0.7c-0.5-0.1-0.8-0.6-0.7-1.1c0.1-0.5,0.6-0.8,1.1-0.7
        C455.2,358.7,455.5,359.2,455.4,359.7z"/>
      <path d="M469.6,362.6c-0.5,0.2-1.2,0.3-1.8,0.2c-3.1-0.6-2.8-4.7-2.4-6.9c0.4-2.1,1.4-7.2,5-6.6
        c0.5,0.1,1.1,0.3,1.5,0.7l-0.2,1.3c-0.4-0.4-0.8-0.7-1.4-0.9c-2.1-0.4-3,2.7-3.4,5.1c-0.3,1.5-1,5.6,1.3,6
        c0.6,0.1,1.2-0.1,1.7-0.3L469.6,362.6z"/>
      <path d="M486.1,359.2c-0.4,2.5-1.4,6.7-4.5,6.2c-2.9-0.5-2.6-4.3-2-7.3c0.6-3.3,1.7-6.7,4.5-6.2
        C487,352.4,486.6,356.3,486.1,359.2z M480.9,358.2c-0.4,2.3-0.9,5.6,1,5.9s2.6-2.9,3-5.2c0.4-2.3,0.9-5.6-1-5.9
        C482,352.6,481.3,355.9,480.9,358.2z"/>
      <path d="M502.8,369l-1.2-0.2l0.8-9.9c0-0.4,0.1-0.8,0.2-1.3l-0.1,0c-0.3,0.9-0.5,1.7-0.8,2.5l-2.9,8.1l-1-0.2l0.3-10
        c0-0.4,0-0.8,0.1-1.3l-0.1,0c-0.2,0.8-0.3,1.7-0.6,2.6l-2.6,8.2l-1.2-0.2l4.2-12.8l1,0.2l-0.3,10.1c0,0.4-0.1,0.9-0.1,1.3l0.1,0
        c0.2-0.7,0.4-1.5,0.7-2.2l3.1-8.6l1,0.2L502.8,369z"/>
    </g>
    <g>
      <path d="M321.2,81.3l2.7-15.2l1.6,0.3c2.2,0.4,4.1,0.9,3.4,4.7c-0.5,2.9-1.7,3.8-4.6,3.3l-0.4-0.1l-1.3,7.3L321.2,81.3z
         M324.1,73.1l0.5,0.1c2,0.4,2.3-0.3,2.8-2.3c0.4-2.1-0.1-2.8-2.1-3.1l-0.3-0.1L324.1,73.1z"/>
      <path d="M339.6,84.7l2.7-15.2l1.5,0.3c2.1,0.4,4.1,0.9,3.4,4.6c-0.3,1.9-1.1,3.7-3.6,3.4l2,8l-1.5-0.3l-1.9-8l0,0l-1.3,7.4
        L339.6,84.7z M342.5,76.4l0.5,0.1c2,0.4,2.4-0.3,2.8-2.3c0.4-2.4-0.2-2.8-2-3.1l-0.3-0.1L342.5,76.4z"/>
      <path d="M365.7,75.1l-3.4-0.6l-1,5.3l3.3,0.6l-0.2,1.3l-3.3-0.6l-1.1,6l3.4,0.6l-0.2,1.3l-4.8-0.9l2.7-15.2l4.8,0.9L365.7,75.1z"
        />
      <path d="M383.8,79.5c-0.5-0.8-1-1.5-2-1.6c-1.4-0.3-2.4,0.8-2.6,2.1c-0.3,1.8,0.8,2.8,2,3.9c1.1,1.1,2.2,2.3,1.9,4.4
        c-0.4,2.2-2.2,4-4.6,3.6c-0.8-0.2-1.7-0.6-2.3-1.2l0.3-1.8c0.5,0.8,1.3,1.5,2.2,1.7c1.5,0.3,2.5-0.9,2.8-2.3
        c0.3-1.8-0.8-2.8-1.9-3.9c-1.1-1.1-2.3-2.3-1.9-4.5c0.4-2,2-3.8,4.2-3.4c0.9,0.2,1.6,0.6,2.2,1.2L383.8,79.5z"/>
      <path d="M402.4,81.7l-3.4-0.6l-1,5.3l3.3,0.6l-0.2,1.3l-3.3-0.6l-1.1,6l3.4,0.6l-0.2,1.3l-4.8-0.9l2.7-15.2l4.8,0.9L402.4,81.7z"
        />
      <path d="M419.2,99.1l-1.2-0.2L416.4,88c-0.1-0.7-0.1-1.4-0.2-2l-0.1,0c-0.1,1-0.2,2-0.4,3l-1.7,9.2l-1.2-0.2l2.7-15.2l1.2,0.2
        l1.6,11.2c0.1,0.6,0.1,1.1,0.2,1.7l0.1,0c0.1-0.7,0.1-1.4,0.2-2l1.8-10.1l1.2,0.2L419.2,99.1z"/>
      <path d="M440.3,88.6l-2.3-0.4l-2.5,13.9l-1.4-0.3l2.5-13.9l-2.3-0.4l0.2-1.3l6,1.1L440.3,88.6z"/>
      <path d="M458,92.9c-0.5-0.8-1-1.5-2-1.6c-1.4-0.3-2.4,0.8-2.6,2.1c-0.3,1.8,0.8,2.8,2,3.9c1.1,1.1,2.2,2.3,1.9,4.4
        c-0.4,2.2-2.2,4-4.6,3.6c-0.8-0.2-1.7-0.5-2.3-1.2l0.3-1.8c0.5,0.8,1.3,1.5,2.2,1.7c1.5,0.3,2.5-0.9,2.8-2.3
        c0.3-1.8-0.8-2.8-1.9-3.9c-1.1-1.1-2.3-2.3-1.9-4.5c0.4-2,2-3.8,4.2-3.4c0.9,0.2,1.6,0.6,2.2,1.2L458,92.9z"/>
    </g>
    <line class="st15-postcard-jazz" x1="468.9" y1="99.5" x2="549.9" y2="114.1"/>
    <line class="st15-postcard-jazz" x1="232.8" y1="56.8" x2="311.2" y2="70.9"/>
    <polygon class="st13-postcard-jazz" points="83,0 174.9,432 235.1,432 143.3,0 		"/>
    <rect x="-197.1" y="281.3" transform="matrix(-0.2079 -0.9781 0.9781 -0.2079 -87.4937 550.702)" class="st16-postcard-jazz" width="752.7" height="59"/>
    <g class="st14-postcard-jazz">
      <path d="M165.6,221.9c-1.9,0.4-3.6,0.7-5.5-0.1c-1.8-0.7-2.9-2.3-3.3-4.1c-0.3-1.5,0.2-3.2,1.1-4.5l3.5,1.9
        c-0.6,0.3-1.1,1.2-1,1.8c0.4,2,3.7,1,5,0.7l12.9-2.7l0.9,4L165.6,221.9z"/>
      <path d="M166.4,238.6l-4.7-0.8l-0.9-4.2l22.9,3.5l0.7,3.1l-19.5,12.3l-0.9-4.3l4-2.5L166.4,238.6z M177.9,239.8
        L177.9,239.8l-8-0.7l1,4.9L177.9,239.8z"/>
      <path d="M173.7,277.3l-3.5,0.7l-3.2-15l19,5.4l-1.6-7.7l3.5-0.7l3,14.1l-19-5.4L173.7,277.3z"/>
      <path d="M179.2,303.1l-3.5,0.7l-3.2-15l19,5.4l-1.6-7.7l3.5-0.7l3,14.1l-19-5.4L179.2,303.1z"/>
      <path d="M189.4,333.8c-1.9,0.4-3.6,0.7-5.5-0.1c-1.8-0.7-2.9-2.3-3.3-4.1c-0.3-1.5,0.2-3.2,1.1-4.5l3.5,1.9
        c-0.6,0.3-1.1,1.2-1,1.8c0.4,2,3.7,1,5,0.7l12.9-2.7l0.9,4L189.4,333.8z"/>
      <path d="M205.7,343.6l0.9,4L195,350c-2.5,0.5-6.1,1.5-5.4,4.9s4.4,2.9,6.9,2.3l11.5-2.5l0.9,4l-12.3,2.6
        c-5,1.1-9.3-0.3-10.5-5.8c-1.2-5.5,2.2-8.5,7.2-9.5L205.7,343.6z"/>
      <path d="M195.4,379.3l1.2,5.7l-3.5,0.7l-2.1-9.7l20.6-4.4l0.9,4L195.4,379.3z"/>
      <path d="M215.2,388.3l1,4.7l-6.4,5.1l8,2.4l1,4.7l-12.5-4.1l-9.5,2l-0.9-4l9.5-2L215.2,388.3z"/>
    </g>
    <path class="st17-postcard-jazz" d="M179.3,219l-0.9-4l-12.9,2.7c-1.3,0.3-4.6,1.2-5-0.7c-0.1-0.7,0.4-1.5,1-1.8l-3.5-1.9c-0.9,1.2-1.4,3-1.1,4.5
      c0.4,1.9,1.5,3.4,3.3,4.1c1.9,0.8,3.6,0.5,5.5,0.1L179.3,219z"/>
    <path class="st17-postcard-jazz" d="M171,244l-1-4.9l8,0.7l0,0.1L171,244z M168,245.8l-4,2.5l0.9,4.3l19.5-12.3l-0.7-3.1l-22.9-3.5l0.9,4.2
      l4.7,0.8L168,245.8z"/>
    <polygon class="st17-postcard-jazz" points="171.9,268.7 191,274.1 188,260.1 184.5,260.8 186.1,268.5 167.1,263.1 170.3,278 173.8,277.3 		"/>
    <polygon class="st17-postcard-jazz" points="177.4,294.5 196.5,299.9 193.5,285.9 190,286.6 191.6,294.3 172.6,288.9 175.7,303.8 179.2,303.1
      "/>
    <path class="st17-postcard-jazz" d="M203,330.9l-0.9-4l-12.9,2.7c-1.3,0.3-4.6,1.2-5-0.7c-0.1-0.7,0.4-1.5,1-1.8l-3.5-1.9c-0.9,1.2-1.4,3-1.1,4.5
      c0.4,1.9,1.5,3.4,3.3,4.1c1.9,0.8,3.6,0.5,5.5,0.1L203,330.9z"/>
    <path class="st17-postcard-jazz" d="M193.4,346.2c-5,1.1-8.4,4-7.2,9.5c1.2,5.5,5.4,6.8,10.5,5.8l12.3-2.6l-0.9-4l-11.5,2.5
      c-2.5,0.5-6.2,1.1-6.9-2.3c-0.7-3.4,2.8-4.4,5.4-4.9l11.5-2.5l-0.9-4L193.4,346.2z"/>
    <polygon class="st17-postcard-jazz" points="212.6,375.7 211.7,371.7 191.1,376 193.2,385.7 196.7,385 195.4,379.3 		"/>
    <polygon class="st17-postcard-jazz" points="205.5,397.1 196,399.1 196.9,403.2 206.3,401.2 218.9,405.3 217.9,400.6 209.9,398.2 216.3,393
      215.3,388.4 		"/>
    <g>
      <path d="M148.8,220.9l-0.5-2.4l-3.8,0.8l0.5,2.3l-0.9,0.2l-0.5-2.3l-5.1,1.1l-0.2-1l10.7-2.3l0.7,3.4L148.8,220.9z"/>
      <path d="M140.6,230.6l10.7-2.3l0.2,1.1c0.3,1.5,0.5,2.9-2.1,3.5c-1.4,0.3-2.8,0.3-3.2-1.4l-4.7,3.5l-0.2-1.1l4.8-3.4l0,0
        l-5.2,1.1L140.6,230.6z M146.9,230.3l0.1,0.4c0.3,1.4,0.8,1.5,2.2,1.2c1.7-0.4,1.8-0.9,1.5-2.2l0-0.2L146.9,230.3z"/>
      <path d="M153.6,243.7l-0.5-2.4l-3.8,0.8l0.5,2.3l-0.9,0.2l-0.5-2.3l-4.2,0.9l0.5,2.4l-0.9,0.2l-0.7-3.4l10.7-2.3l0.7,3.4
        L153.6,243.7z"/>
      <path d="M156,254.7l-0.5-2.4l-3.8,0.8l0.5,2.3l-0.9,0.2l-0.5-2.3l-4.2,0.9l0.5,2.4l-0.9,0.2l-0.7-3.4l10.7-2.3l0.7,3.4L156,254.7
        z"/>
      <path d="M160.3,275.3l-0.3-1.6l-9.8,2.1l-0.2-1l9.8-2.1l-0.3-1.6l0.9-0.2l0.9,4.2L160.3,275.3z"/>
      <path d="M158.5,288.4c-2,0.4-5.5,1-6.1-1.5c-0.5-2.3,2.4-3.3,4.9-3.8c2.7-0.6,5.6-0.8,6.1,1.5C163.9,287,160.8,287.9,158.5,288.4
        z M157.6,284.2c-1.9,0.4-4.5,1-4.2,2.6c0.3,1.5,3,1,4.9,0.6c1.9-0.4,4.5-1,4.2-2.6C162.2,283.2,159.5,283.8,157.6,284.2z"/>
      <path d="M167.3,308l-0.3-1.6l-9.8,2.1l-0.2-1l9.8-2.1l-0.3-1.6l0.9-0.2l0.9,4.2L167.3,308z"/>
      <path d="M160,321.9l-0.2-1l5.5-1.2l-0.5-2.5l-5.5,1.2l-0.2-1l10.7-2.3l0.2,1l-4.3,0.9l0.5,2.5l4.3-0.9l0.2,1L160,321.9z"/>
      <path d="M172.2,331.1l-0.5-2.4l-3.8,0.8l0.5,2.3l-0.9,0.2l-0.5-2.3l-4.2,0.9l0.5,2.4l-0.9,0.2l-0.7-3.4l10.7-2.3l0.7,3.4
        L172.2,331.1z"/>
      <path d="M166.1,350.4l10.7-2.3l0.2,1.1c0.3,1.5,0.5,2.9-2.2,3.5c-2.1,0.4-3-0.1-3.4-2.2l-0.1-0.3l-5.1,1.1L166.1,350.4z
         M172.3,350.1l0.1,0.4c0.3,1.4,0.8,1.5,2.2,1.2c1.5-0.3,1.8-0.8,1.5-2.2l0-0.2L172.3,350.1z"/>
      <path d="M172.8,365.6c-2,0.4-3.6,0.6-4-1.5c-0.5-2.1,1.1-2.6,3.1-3l7.3-1.6l0.2,1l-7.3,1.5c-1.8,0.4-2.6,0.7-2.4,1.8
        c0.2,1.1,1.1,1.1,2.9,0.7l7.3-1.5l0.2,1L172.8,365.6z"/>
      <path d="M182.1,373.3c0.3,1.4,0.4,2.6-2.1,3.1c-1.1,0.2-2,0.2-2.8-0.7c-0.1,1.4-1.1,1.8-2.3,2.1c-2.2,0.5-3.1-0.1-3.6-2.3
        l-0.3-1.3l10.7-2.3L182.1,373.3z M176.5,374.1l-4.3,0.9l0.1,0.3c0.3,1.5,0.9,1.8,2.4,1.5c1.8-0.4,2.1-1.1,1.9-2.4L176.5,374.1z
         M181.2,373.1l-3.9,0.8l0.1,0.3c0.2,0.8,0.2,1.7,2.4,1.2c1.7-0.4,1.8-0.8,1.5-2.1L181.2,373.1z"/>
      <path d="M174.8,386.9l0.5,2.3l-0.9,0.2l-0.7-3.3l10.7-2.3l0.2,1L174.8,386.9z"/>
      <path d="M176.1,397.7l-0.2-1l10.7-2.3l0.2,1L176.1,397.7z"/>
      <path d="M179,409.6c-0.3-0.3-0.6-0.8-0.7-1.3c-0.5-2.5,2.7-3.6,4.5-4c1.7-0.4,5.9-1.2,6.5,1.7c0.1,0.4,0.1,1-0.1,1.3l-1.1,0.2
        c0.2-0.5,0.3-0.9,0.2-1.3c-0.4-1.7-2.9-1.4-4.9-1c-1.2,0.3-4.6,1-4.2,2.9c0.1,0.5,0.4,0.9,0.8,1.2L179,409.6z"/>
    </g>
  <polyline class="st18-postcard-jazz" points="107.6,-95.7 166,183.5 114.9,195.1 196.9,576.9 	"/>
  <g>
  <polygon class="st13-postcard-jazz" points="197.4,432 495.9,432 480.8,366.6 		"/>
  <rect x="270.4" y="277.7" transform="matrix(-0.225 -0.9744 0.9744 -0.225 -51.1312 868.1429)" class="st16-postcard-jazz" width="98.7" height="353.5"/>
      <path d="M265,430.9l3.8-0.9l-3.4,6.7l6.6,5.1l-4,0.9l-5.2-4.2l0,0l1.2,5.1l-3.1,0.7l-2.7-11.8l3.1-0.7l1.1,4.9l0,0L265,430.9z"/>
      <path d="M275.8,440.8l-3.1,0.7l-2.7-11.8l3.1-0.7L275.8,440.8z"/>
      <path d="M275.1,428.5l3.1-0.7l7.3,5.9l0,0l-1.7-7.2l3.1-0.7l2.7,11.8l-3.1,0.7l-7.3-6l0,0l1.7,7.3l-3.1,0.7L275.1,428.5z"/>
      <path d="M302,427.8c0.4,1.7,0.6,3.2-0.1,5c-0.8,1.9-2.4,3-4.4,3.5c-3.7,0.9-6.9-1.1-7.8-4.8c-0.9-3.9,1.1-7,5-7.9
        c2.4-0.6,4.6,0.1,6.1,2.1l-2.6,1.9c-0.7-1-1.8-1.6-3-1.3c-2,0.5-2.6,2.6-2.2,4.5c0.4,1.8,2,3.5,4,3c1.3-0.3,2.2-1.2,2-2.6
        l-2.5,0.6l-0.6-2.4L302,427.8z"/>
      <path d="M306.5,421.3l-1.7,5.9l-1.8,0.4l0.8-5.7L306.5,421.3z"/>
      <path d="M314.5,422.6c-0.7-0.3-1.5-0.5-2.2-0.3c-0.6,0.1-1.2,0.6-1.1,1.3c0.2,0.7,1.1,0.8,1.6,0.8l0.8,0.1
        c1.8,0.1,3.2,0.6,3.7,2.6c0.3,1.2,0.3,2.5-0.5,3.5c-0.7,1-1.9,1.6-3.1,1.9c-1.5,0.3-3.1,0.2-4.5-0.4l0.7-2.8c0.9,0.5,2,0.8,3,0.6
        c0.7-0.2,1.4-0.7,1.2-1.5c-0.2-0.9-1.5-0.9-2.2-0.9c-2.1-0.1-3.4-0.3-4-2.6c-0.6-2.4,0.8-4.4,3.2-4.9c1.2-0.3,2.7-0.2,3.9,0.1
        L314.5,422.6z"/>
      <path d="M329.8,428.4l-3.1,0.7l-2.1-9.2l-2.5,0.6l-0.6-2.6l8.2-1.9l0.6,2.6l-2.5,0.6L329.8,428.4z"/>
      <path d="M343.1,425.3l-3.8,0.9l-4-3.9l0,0l1.1,4.6l-3.1,0.7l-2.7-11.8l4.6-1.1c2.3-0.5,4.4,0.2,5,2.7c0.4,1.6-0.2,3.3-1.8,3.9
        L343.1,425.3z M334.8,420.3l0.3-0.1c1-0.2,2.1-0.7,1.8-2c-0.3-1.3-1.5-1.2-2.5-1l-0.3,0.1L334.8,420.3z"/>
      <path d="M351.2,411l1.5,6.7c0.4,1.5,0.6,3-0.3,4.5c-0.8,1.2-2.2,1.9-3.6,2.2c-1.4,0.3-3,0.3-4.2-0.4c-1.4-0.9-1.9-2.4-2.2-3.9
        l-1.5-6.7l3.1-0.7l1.4,6.2c0.4,1.5,0.9,3.2,2.8,2.7c2-0.5,1.7-2.2,1.3-3.7l-1.4-6.2L351.2,411z"/>
      <path d="M362.5,412.5c-0.8-0.7-2-0.9-3-0.7c-1.9,0.4-2.8,2.2-2.4,4c0.4,1.9,2,2.9,4,2.5c1-0.2,1.9-1,2.4-1.9l0.9,3.7
        c-0.9,0.5-1.6,1-2.6,1.2c-1.7,0.4-3.4,0.1-4.8-0.7c-1.6-0.9-2.5-2.3-2.9-4c-0.4-1.6-0.1-3.3,0.7-4.7c0.9-1.5,2.4-2.6,4.1-3
        c1-0.2,2-0.2,3-0.1L362.5,412.5z"/>
      <path d="M370.3,406.5l3.8-0.9l-3.4,6.7l6.6,5.1l-4,0.9l-5.2-4.2l0,0l1.2,5.1l-3.1,0.7l-2.7-11.8l3.1-0.7l1.1,4.9l0,0L370.3,406.5
        z"/>
      <path d="M381.2,416.5l-3.1,0.7l-2.7-11.8l3.1-0.7L381.2,416.5z"/>
      <path d="M380.5,404.2l3.1-0.7l7.3,5.9l0,0l-1.7-7.2l3.1-0.7l2.7,11.8l-3.1,0.7l-7.3-6l0,0l1.7,7.3l-3.1,0.7L380.5,404.2z"/>
      <path d="M407.3,403.5c0.4,1.7,0.6,3.2-0.1,5c-0.8,1.9-2.4,3-4.4,3.5c-3.7,0.9-6.9-1.1-7.8-4.8c-0.9-3.9,1.1-7,5-7.9
        c2.4-0.6,4.6,0.1,6.1,2.1l-2.6,1.9c-0.7-1-1.8-1.6-3-1.3c-2,0.5-2.6,2.6-2.2,4.5c0.4,1.8,2,3.5,4,3c1.3-0.3,2.2-1.2,2-2.6
        l-2.5,0.6l-0.6-2.4L407.3,403.5z"/>
      <path d="M422.3,398.7c-0.8-0.7-2-0.9-3-0.7c-1.9,0.4-2.8,2.2-2.4,4c0.4,1.9,2,2.9,3.9,2.5c1-0.2,1.9-1,2.4-1.9l0.9,3.7
        c-0.9,0.5-1.6,1-2.6,1.2c-1.7,0.4-3.4,0.1-4.9-0.7c-1.6-0.9-2.5-2.3-2.9-4c-0.4-1.6-0.1-3.3,0.7-4.7c0.9-1.5,2.4-2.6,4.1-3
        c1-0.2,2-0.2,3-0.1L422.3,398.7z"/>
      <path d="M437,397.2c0.9,3.8-1.2,7.2-5,8.1c-3.8,0.9-7.2-1.2-8.1-5c-0.8-3.6,1.7-6.8,5.1-7.6S436.1,393.6,437,397.2z M427.1,399.5
        c0.5,2,2.3,3.2,4.2,2.8c1.8-0.4,3-2.3,2.5-4.3c-0.4-1.6-2.2-2.8-4.1-2.4C427.8,396,426.7,397.8,427.1,399.5z"/>
      <path d="M442.4,400.8c0.2,1-0.4,2-1.4,2.3c-1,0.2-2-0.4-2.3-1.4c-0.2-1,0.4-2,1.4-2.3C441.1,399.1,442.2,399.8,442.4,400.8z"/>
      <path d="M358.9,432.9l0.7,3.2l3.5-0.8l0.1,0.5l-3.5,0.8l0.9,4l3.6-0.8l0.1,0.5l-4.1,1l-2-8.7l4.1-1l0.1,0.5L358.9,432.9z"/>
      <path d="M372.3,429.2l0.7-0.2l-3.3,5.2l5.6,3.5l-0.7,0.2l-5.1-3.2l-0.2,0.3l0.9,3.9l-0.6,0.1l-2-8.7l0.6-0.1l0.9,4.1L372.3,429.2
        z"/>
      <path d="M376.8,437.4l-0.6,0.1l-2-8.7l0.6-0.1L376.8,437.4z"/>
      <path d="M386.5,435.4l-9.1-6.1l1.7,7.5l-0.6,0.1l-2-8.8l9.1,6l-1.8-7.6l0.6-0.1L386.5,435.4z"/>
      <path d="M395.5,428.7c0.3,1.1,0.3,2.1-0.2,3.1c-0.6,1.1-1.7,1.9-3,2.2c-2.4,0.6-4.9-1-5.5-3.4c-0.6-2.5,1-5,3.5-5.5
        c1.6-0.4,3,0.1,4.2,1.2l-0.4,0.5c-1-1-2.4-1.4-3.8-1.1c-2.1,0.5-3.5,2.8-3,4.9c0.5,2.1,2.7,3.5,4.9,3c0.9-0.2,1.8-0.8,2.3-1.5
        c0.6-0.8,0.7-1.6,0.5-2.5l-3.1,0.7l-0.1-0.5L395.5,428.7z"/>
      <path d="M401.8,432.3l1.4-0.3l0.1,0.6l-2,0.5l-2.5-11l2-0.5l0.1,0.6l-1.4,0.3L401.8,432.3z"/>
      <path d="M403.1,422.1l1.6-0.4c1.3-0.3,2.3-0.3,3.5,0.4c1.1,0.6,1.8,1.7,2.1,2.9c0.3,1.2,0.1,2.4-0.6,3.5c-0.7,1.1-1.7,1.6-3,1.9
        l-1.6,0.4L403.1,422.1z M406.5,430c1.1-0.3,2-0.7,2.7-1.7c0.6-0.9,0.8-2,0.5-3c-0.3-1.1-0.9-2-1.9-2.6c-1-0.6-1.9-0.5-3-0.3
        l-1,0.2l1.8,7.7L406.5,430z"/>
      <path d="M416.9,428.1l-0.6,0.1l-3.8-3.5l-0.3,0.1l0.9,4.1l-0.6,0.1l-2-8.7l1.1-0.2c0.7-0.2,1.4-0.3,2.1,0
        c0.7,0.3,1.1,0.9,1.3,1.7c0.3,1.5-0.5,2.5-2,2.8L416.9,428.1z M412.8,424.2c0.5-0.1,1.1-0.3,1.4-0.8c0.3-0.4,0.4-1,0.3-1.5
        c-0.1-0.6-0.6-1.2-1.3-1.4c-0.5-0.1-1.1,0-1.6,0.2l-0.4,0.1l0.8,3.5L412.8,424.2z"/>
      <path d="M421.3,417.9l0.6-0.1l1.2,5.4c0.2,0.9,0.4,1.6,0,2.5c-0.4,0.8-1.3,1.4-2.1,1.6c-0.9,0.2-1.9,0.1-2.6-0.5
        c-0.8-0.6-0.9-1.4-1.1-2.2l-1.2-5.4l0.6-0.1l1.2,5.3c0.2,0.8,0.4,1.6,1,2.1c0.6,0.5,1.5,0.5,2.1,0.4c0.7-0.2,1.5-0.6,1.8-1.3
        c0.3-0.7,0.1-1.5-0.1-2.3L421.3,417.9z"/>
      <path d="M431.3,417.2L431.3,417.2l-1.3,8.2l-4.7-6.8l0,0l0.2,7.5l-0.5,0.1l-0.2-9.4l5,7.2l1.4-8.6l3.9,8.5l-0.5,0.1L431.3,417.2z
        "/>
      <path d="M438.3,415.5c-0.5-0.5-1.2-0.8-2-0.6c-0.9,0.2-1.5,1.1-1.3,2c0.2,0.9,1.2,1.1,1.9,1.3l1.9,0.5c0.8,0.3,1.2,0.7,1.4,1.5
        c0.3,1.4-0.7,2.8-2.1,3.2c-1.2,0.3-2.3-0.3-3-1.3l0.4-0.3c0.6,0.8,1.4,1.3,2.5,1.1c1.1-0.3,1.9-1.4,1.7-2.5
        c-0.2-1-1.3-1.2-2.2-1.4l-1.8-0.5c-0.7-0.2-1.1-0.7-1.3-1.3c-0.3-1.3,0.4-2.4,1.7-2.7c0.9-0.2,1.8,0.1,2.4,0.7L438.3,415.5z"/>
      <path d="M441.4,412.8l-1.4,0.3l-0.1-0.6l2-0.5l2.5,11l-2,0.5l-0.1-0.6l1.4-0.3L441.4,412.8z"/>
      <path d="M449,431.4l0.6-0.1l2.9,3.3l1.1-4.2l0.6-0.1L453,435l3.4,3.9l-0.6,0.1l-3-3.4l-1.2,4.4l-0.6,0.1l1.3-5L449,431.4z"/>
      <path d="M456.9,429.1l-1.4,0.3l-0.1-0.6l2-0.5l2.5,11l-2,0.5l-0.1-0.6l1.4-0.3L456.9,429.1z"/>
    </g>
  </g>
</g>
</svg>
