<svg version="1.1" xmlns="http://www.w3.org/2000/svg" xmlns:xlink="http://www.w3.org/1999/xlink" x="0px" y="0px"
           viewBox="0 0 648 432">
        <style type="text/css">
          .st19-postcard-jazz{clip-path:url(#SVGID_2_);fill:#D2232A;}
          .st20-postcard-jazz{clip-path:url(#SVGID_2_);}
          .st21-postcard-jazz{fill:#F5EEDF;}
          .st22-postcard-jazz{fill:#D2232A;}
          .st23-postcard-jazz{fill:none;stroke:#D2232A;stroke-width:3.225;}
          .st24-postcard-jazz{fill:none;stroke:#000000;stroke-width:1.613;stroke-miterlimit:2.15;}
          .st25-postcard-jazz{clip-path:url(#SVGID_2_);fill:none;stroke:#000000;stroke-width:3.763;}
          .st26-postcard-jazz{clip-path:url(#SVGID_2_);fill:none;stroke:#000000;stroke-width:3.225;}
          .st27-postcard-jazz{fill:none;stroke:#000000;stroke-width:1.075;}
        </style>
        <g>
          <defs>
            <rect id="SVGID_1_" width="648" height="432"/>
          </defs>
          <clipPath id="SVGID_2_">
            <use xlink:href="#SVGID_1_"  style="overflow:visible;"/>
          </clipPath>
          <rect class="st19-postcard-jazz" width="648" height="432"/>

          <g class="st20-postcard-jazz">

              <polygon class="st21-postcard-jazz" points="28.6,0 12.9,86.8 361.4,149.8 388.5,0 		"/>
              <path d="M204,10.9l6.3-34.9l9.6,1.7l-15.5,86l-9.6-1.7l7.6-42.2l-44-8L150.8,54l-9.6-1.7l15.5-86l9.6,1.7L160,2.9L204,10.9z"/>
              <path d="M242.5,70.6l-9.6-1.7l15.5-86l9.6,1.7L242.5,70.6z"/>
              <path d="M281.9,68.5l23.7,4.3l-1.6,8.9l-33.3-6l15.5-86l9.6,1.7L281.9,68.5z"/>
              <path d="M334.4,78l23.7,4.3l-1.6,8.9l-33.3-6l15.5-86l9.6,1.7L334.4,78z"/>
              <path d="M71.8-2c9.8,1.8,16,11.2,14.3,20.8c-1.7,9.7-10.9,16.3-20.7,14.5C55.7,31.6,49.3,22.2,51,12.5S62.1-3.7,71.8-2z M66,29.6
                c7.6,1.4,15.1-3.7,16.5-11.4c1.4-7.7-3.9-15-11.5-16.4c-7.7-1.4-15.1,3.6-16.5,11.4S58.4,28.2,66,29.6z"/>
              <path d="M132,36.8l-0.7,3.8l-30.4-5.5l-1.5,8.2l-3.5-0.6l3.7-20.2l3.5,0.6l-1.5,8.3L132,36.8z"/>
              <path d="M118.6-4l-13.8-2.5l0.7-3.8l33.9,6.1l-0.7,3.8l-16.6-3L118.9,14l16.6,3l-0.7,3.8L101,14.6l0.7-3.8l13.8,2.5L118.6-4z"/>

            <g class="st22-postcard-jazz">
              <path d="M40.1,74.2L39,74l0.3-9.1c0-0.5,0.2-1.5,0.2-2.2l-0.1,0c-0.2,0.7-0.4,1.7-0.6,2.1l-3.1,8.6l-1.1-0.2
                l0.3-13.5l1.3,0.2l-0.4,9c0,0.7-0.1,1.3-0.1,2l0.1,0c0.2-0.6,0.4-1.3,0.6-1.9l3.1-8.5l1,0.2l-0.3,9c0,0.7-0.1,1.3-0.1,2l0.1,0
                c0.2-0.6,0.4-1.3,0.6-1.9l3-8.6l1.2,0.2L40.1,74.2z"/>
              <path d="M59,77.6l-1.1-0.2l0.3-9.1c0-0.5,0.2-1.5,0.2-2.2l-0.1,0c-0.2,0.7-0.4,1.7-0.6,2.1l-3.1,8.6l-1.1-0.2
                l0.3-13.5l1.3,0.2l-0.4,9c0,0.7-0.1,1.3-0.1,2l0.1,0c0.2-0.6,0.4-1.3,0.6-1.9l3.1-8.5l1,0.2l-0.3,9c0,0.7-0.1,1.3-0.1,2l0.1,0
                c0.2-0.6,0.4-1.3,0.6-1.9l3-8.6l1.2,0.2L59,77.6z"/>
              <path d="M77.9,81l-1.1-0.2l0.3-9.1c0-0.5,0.2-1.5,0.2-2.2l-0.1,0c-0.2,0.7-0.4,1.7-0.6,2.1l-3.1,8.6L72.4,80
                l0.3-13.5l1.3,0.2l-0.4,9c0,0.7-0.1,1.3-0.1,2l0.1,0c0.2-0.6,0.4-1.3,0.6-1.9l3.1-8.5l1,0.2l-0.3,9c0,0.7-0.1,1.3-0.1,2l0.1,0
                c0.2-0.6,0.4-1.3,0.6-1.9l3-8.6l1.2,0.2L77.9,81z"/>
              <path d="M90.5,82.5c-0.1,0.5-0.6,0.8-1.1,0.7c-0.5-0.1-0.8-0.6-0.7-1.1c0.1-0.5,0.6-0.8,1.1-0.7
                C90.2,81.6,90.5,82.1,90.5,82.5z"/>
              <path d="M108.6,86.6l-1.2-0.2l0.8-9.9c0-0.4,0.1-0.8,0.2-1.3l-0.1,0c-0.3,0.9-0.5,1.7-0.8,2.5l-2.9,8.1l-1-0.2
                l0.3-10c0-0.4,0-0.8,0.1-1.3l-0.1,0c-0.2,0.8-0.3,1.7-0.6,2.6l-2.6,8.2L99.6,85l4.2-12.8l1,0.2l-0.3,10.1c0,0.4-0.1,0.9-0.1,1.3
                l0.1,0c0.2-0.7,0.4-1.5,0.7-2.2l3.1-8.6l1,0.2L108.6,86.6z"/>
              <path d="M124.1,85.1c-0.4,2.4-1,4.3-3.5,3.8c-2.6-0.5-2.4-2.5-2-4.8l1.6-9l1.2,0.2l-1.6,8.9c-0.4,2.2-0.5,3.3,1,3.5
                c1.4,0.3,1.7-0.8,2.1-3l1.6-8.9l1.2,0.2L124.1,85.1z"/>
              <path d="M139.9,80.8c-0.4-0.7-0.9-1.3-1.7-1.4c-1.2-0.2-2.1,0.7-2.3,1.8c-0.3,1.5,0.7,2.5,1.7,3.4c1,1,1.9,2,1.6,3.8
                c-0.3,1.9-1.9,3.5-4,3.1c-0.7-0.1-1.4-0.5-2-1l0.3-1.6c0.5,0.7,1.1,1.3,1.9,1.5c1.3,0.2,2.2-0.8,2.4-2c0.3-1.5-0.7-2.4-1.7-3.4
                c-1-1-2-2-1.6-3.9c0.3-1.8,1.7-3.3,3.7-2.9c0.8,0.1,1.4,0.5,2,1.1L139.9,80.8z"/>
              <path d="M149.2,93.9l-1.2-0.2l2.4-13.2l1.2,0.2L149.2,93.9z"/>
              <path d="M164.1,96.2c-0.5,0.2-1.2,0.3-1.8,0.2c-3.1-0.6-2.8-4.7-2.4-6.9c0.4-2.1,1.4-7.2,5-6.6
                c0.5,0.1,1.1,0.3,1.5,0.7l-0.2,1.3c-0.4-0.4-0.8-0.7-1.4-0.9c-2.1-0.4-3,2.7-3.4,5.1c-0.3,1.5-1,5.6,1.3,6
                c0.6,0.1,1.2-0.1,1.7-0.3L164.1,96.2z"/>
              <path d="M180.6,92.8c-0.4,2.5-1.4,6.7-4.5,6.2c-2.9-0.5-2.6-4.3-2-7.3c0.6-3.3,1.7-6.7,4.5-6.2
                C181.5,86,181.1,89.9,180.6,92.8z M175.4,91.9c-0.4,2.3-0.9,5.6,1,5.9c1.9,0.3,2.6-2.9,3-5.2c0.4-2.3,0.9-5.6-1-5.9
                C176.5,86.2,175.8,89.5,175.4,91.9z"/>
              <path d="M194.5,102.1l-1.1-0.2l-1.4-9.4c-0.1-0.6-0.1-1.2-0.1-1.8l-0.1,0c-0.1,0.9-0.2,1.7-0.3,2.6l-1.4,8l-1.1-0.2
                l2.4-13.2l1.1,0.2l1.4,9.7c0.1,0.5,0.1,1,0.2,1.4l0.1,0c0.1-0.6,0.1-1.2,0.2-1.8l1.6-8.8l1.1,0.2L194.5,102.1z"/>
              <path d="M211.1,92.7l-2-0.4l-2.2,12l-1.2-0.2l2.2-12l-2-0.4l0.2-1.1l5.2,0.9L211.1,92.7z"/>
              <path d="M223.6,107.4l-1.2-0.2l1.2-6.8l-3-0.5l-1.2,6.8l-1.2-0.2l2.4-13.2l1.2,0.2l-1,5.3l3,0.5l1-5.3l1.2,0.2
                L223.6,107.4z"/>
              <path d="M239.8,97.9l-2.9-0.5l-0.8,4.6l2.8,0.5l-0.2,1.1l-2.8-0.5l-0.9,5.2l2.9,0.5l-0.2,1.1l-4.1-0.7l2.4-13.2
                l4.1,0.7L239.8,97.9z"/>
              <path d="M252.6,112.6l-1.2-0.2l1.2-6.8l-3-0.5l-1.2,6.8l-1.2-0.2l2.4-13.2l1.2,0.2l-1,5.3l3,0.5l1-5.3l1.2,0.2
                L252.6,112.6z"/>
              <path d="M263.8,114.7l-1.2-0.2l2.4-13.2l1.2,0.2L263.8,114.7z"/>
              <path d="M275.1,115.6l2.9,0.5l-0.2,1.1l-4.1-0.7l2.4-13.2l1.2,0.2L275.1,115.6z"/>
              <path d="M288.4,117.9l2.9,0.5l-0.2,1.1l-4.1-0.7l2.4-13.2l1.2,0.2L288.4,117.9z"/>
              <path d="M302.1,120.8c-0.1,0.5-0.6,0.8-1.1,0.7c-0.5-0.1-0.8-0.6-0.7-1.1c0.1-0.5,0.6-0.8,1.1-0.7
                C301.8,119.8,302.1,120.3,302.1,120.8z"/>
              <path d="M316.2,123.8c-0.5,0.2-1.2,0.3-1.8,0.2c-3.1-0.6-2.8-4.7-2.4-6.9c0.4-2.1,1.4-7.2,5-6.6
                c0.5,0.1,1.1,0.3,1.5,0.7l-0.2,1.3c-0.4-0.4-0.8-0.7-1.4-0.9c-2.1-0.4-3,2.7-3.4,5.1c-0.3,1.5-1,5.6,1.3,6
                c0.6,0.1,1.2-0.1,1.7-0.3L316.2,123.8z"/>
              <path d="M332.7,120.3c-0.4,2.5-1.4,6.7-4.5,6.2c-2.9-0.5-2.6-4.3-2-7.3c0.6-3.3,1.7-6.7,4.5-6.2
                C333.7,113.5,333.2,117.4,332.7,120.3z M327.5,119.4c-0.4,2.3-0.9,5.6,1,5.9c1.9,0.3,2.6-2.9,3-5.2s0.9-5.6-1-5.9
                C328.6,113.7,327.9,117.1,327.5,119.4z"/>
              <path d="M349.4,130.1l-1.2-0.2l0.8-9.9c0-0.4,0.1-0.8,0.2-1.3l-0.1,0c-0.3,0.9-0.5,1.7-0.8,2.5l-2.9,8.1l-1-0.2
                l0.3-10c0-0.4,0-0.8,0.1-1.3l-0.1,0c-0.2,0.8-0.3,1.7-0.6,2.6l-2.6,8.2l-1.2-0.2l4.2-12.8l1,0.2l-0.3,10.1c0,0.4-0.1,0.9-0.1,1.3
                l0.1,0c0.2-0.7,0.4-1.5,0.7-2.2l3.1-8.6l1,0.2L349.4,130.1z"/>
            </g>

            <polygon class="st21-postcard-jazz" points="-19.6,0 72.2,432 132.5,432 40.7,0 		"/>
            <rect x="-350.5" y="42.4" transform="matrix(-0.2079 -0.9781 0.9781 -0.2079 -39.1402 112.144)" class="st23-postcard-jazz" width="752.7" height="59"/>

            <g class="st22-postcard-jazz">
              <path d="M13-0.2L8.3-1L7.4-5.2l22.9,3.5l0.7,3.1L11.4,13.7l-0.9-4.3l4-2.5L13-0.2z M24.5,1L24.5,1l-8-0.7l1,4.9
                L24.5,1z"/>
              <path d="M20.3,38.4l-3.5,0.7l-3.2-15l19,5.4l-1.6-7.7l3.5-0.7l3,14.1l-19-5.4L20.3,38.4z"/>
              <path d="M25.8,64.2L22.3,65l-3.2-15l19,5.4l-1.6-7.7l3.5-0.7l3,14.1l-19-5.4L25.8,64.2z"/>
              <path d="M36,94.9c-1.9,0.4-3.6,0.7-5.5-0.1c-1.8-0.7-2.9-2.3-3.3-4.1c-0.3-1.5,0.2-3.2,1.1-4.5l3.5,1.9
                c-0.6,0.3-1.1,1.2-1,1.8c0.4,2,3.7,1,5,0.7L48.8,88l0.9,4L36,94.9z"/>
              <path d="M52.3,104.7l0.9,4l-11.5,2.5c-2.5,0.5-6.1,1.5-5.4,4.9c0.7,3.4,4.4,2.9,6.9,2.3l11.5-2.5l0.9,4l-12.3,2.6
                c-5,1.1-9.3-0.3-10.5-5.8c-1.2-5.5,2.2-8.5,7.2-9.5L52.3,104.7z"/>
              <path d="M42,140.4l1.2,5.7l-3.5,0.7l-2.1-9.7l20.6-4.4l0.9,4L42,140.4z"/>
              <path d="M61.8,149.5l1,4.7l-6.4,5.1l8,2.4l1,4.7l-12.5-4.1l-9.5,2l-0.9-4l9.5-2L61.8,149.5z"/>
            </g>

            <g class="st24-postcard-jazz">
            <path d="M17.6,5.1l-1-4.9l8,0.7l0,0.1L17.6,5.1z M14.6,6.9l-4,2.5l0.9,4.3L31,1.4l-0.7-3.1L7.4-5.2L8.3-1L13-0.2
              L14.6,6.9z"/>
            <polygon points="18.5,29.9 37.6,35.3 34.6,21.2 31.1,22 32.7,29.6 13.7,24.2 16.9,39.2 20.4,38.4 		"/>
            <polygon points="24,55.7 43.1,61.1 40.1,47 36.6,47.8 38.2,55.5 19.2,50 22.4,65 25.9,64.2 		"/>
            <path d="M49.7,92.1l-0.9-4l-12.9,2.7c-1.3,0.3-4.6,1.2-5-0.7c-0.1-0.7,0.4-1.5,1-1.8l-3.5-1.9c-0.9,1.2-1.4,3-1.1,4.5
              c0.4,1.9,1.5,3.4,3.3,4.1c1.9,0.8,3.6,0.5,5.5,0.1L49.7,92.1z"/>
            <path d="M40,107.3c-5,1.1-8.4,4-7.2,9.5c1.2,5.5,5.4,6.8,10.5,5.8l12.3-2.6l-0.9-4l-11.5,2.5
              c-2.5,0.5-6.2,1.1-6.9-2.3c-0.7-3.4,2.8-4.4,5.4-4.9l11.5-2.5l-0.9-4L40,107.3z"/>
            <polygon points="59.2,136.8 58.3,132.8 37.7,137.2 39.8,146.9 43.3,146.1 42.1,140.5 		"/>
            <polygon points="52.1,158.3 42.6,160.3 43.5,164.3 52.9,162.3 65.5,166.4 64.5,161.7 56.5,159.3 62.9,154.2
              61.9,149.5 		"/>
            </g>

              <path d="M0.2,4.8l-0.5-2.4l-3.8,0.8l0.5,2.3l-0.9,0.2L-5,3.5l-4.2,0.9l0.5,2.4l-0.9,0.2l-0.7-3.4L0.4,1.3l0.7,3.4L0.2,4.8z"/>
              <path d="M2.6,15.8l-0.5-2.4l-3.8,0.8l0.5,2.3l-0.9,0.2l-0.5-2.3l-4.2,0.9l0.5,2.4l-0.9,0.2l-0.7-3.4l10.7-2.3l0.7,3.4L2.6,15.8z"
                />
              <path d="M6.9,36.4l-0.3-1.6l-9.8,2.1l-0.2-1l9.8-2.1l-0.3-1.6L7,32l0.9,4.2L6.9,36.4z"/>
              <path d="M5.1,49.5c-2,0.4-5.5,1-6.1-1.5c-0.5-2.3,2.4-3.3,4.9-3.8c2.7-0.6,5.6-0.8,6.1,1.5C10.5,48.1,7.4,49,5.1,49.5z M4.2,45.3
                c-1.9,0.4-4.5,1-4.2,2.6c0.3,1.5,3,1,4.9,0.6s4.5-1,4.2-2.6C8.8,44.4,6.1,44.9,4.2,45.3z"/>
              <path d="M13.9,69.1l-0.3-1.6l-9.8,2.1l-0.2-1l9.8-2.1L13,64.9l0.9-0.2l0.9,4.2L13.9,69.1z"/>
              <path d="M6.6,83.1l-0.2-1l5.5-1.2l-0.5-2.5l-5.5,1.2l-0.2-1l10.7-2.3l0.2,1l-4.3,0.9l0.5,2.5l4.3-0.9l0.2,1L6.6,83.1z"/>
              <path d="M18.8,92.3l-0.5-2.4l-3.8,0.8L15,93l-0.9,0.2l-0.5-2.3l-4.2,0.9l0.5,2.4L9,94.4L8.3,91L19,88.7l0.7,3.4L18.8,92.3z"/>
              <path d="M12.7,111.5l10.7-2.3l0.2,1.1c0.3,1.5,0.5,2.9-2.2,3.5c-2.1,0.4-3-0.1-3.4-2.2l-0.1-0.3l-5.1,1.1L12.7,111.5z
                 M18.9,111.2l0.1,0.4c0.3,1.4,0.8,1.5,2.2,1.2c1.5-0.3,1.8-0.8,1.5-2.2l0-0.2L18.9,111.2z"/>
              <path d="M19.4,126.7c-2,0.4-3.6,0.6-4-1.5c-0.5-2.1,1.1-2.6,3.1-3l7.3-1.6l0.2,1l-7.3,1.5c-1.8,0.4-2.6,0.7-2.4,1.8
                c0.2,1.1,1.1,1.1,2.9,0.7l7.3-1.5l0.2,1L19.4,126.7z"/>
              <path d="M28.7,134.5c0.3,1.4,0.4,2.6-2.1,3.1c-1.1,0.2-2,0.2-2.8-0.7c-0.1,1.4-1.1,1.8-2.3,2.1c-2.2,0.5-3.1-0.1-3.6-2.3
                l-0.3-1.3l10.7-2.3L28.7,134.5z M23.1,135.2l-4.3,0.9l0.1,0.3c0.3,1.5,0.9,1.8,2.4,1.5c1.8-0.4,2.1-1.1,1.9-2.4L23.1,135.2z
                 M27.8,134.2l-3.9,0.8l0.1,0.3c0.2,0.8,0.2,1.7,2.4,1.2c1.7-0.4,1.8-0.8,1.5-2.1L27.8,134.2z"/>
              <path d="M21.4,148l0.5,2.3l-0.9,0.2l-0.7-3.3l10.7-2.3l0.2,1L21.4,148z"/>
              <path d="M22.7,158.9l-0.2-1l10.7-2.3l0.2,1L22.7,158.9z"/>
              <path d="M25.6,170.7c-0.3-0.3-0.6-0.8-0.7-1.3c-0.5-2.5,2.7-3.6,4.5-4c1.7-0.4,5.9-1.2,6.5,1.7c0.1,0.4,0.1,1-0.1,1.3l-1.1,0.2
                c0.2-0.5,0.3-0.9,0.2-1.3c-0.4-1.7-2.9-1.4-4.9-1c-1.2,0.3-4.6,1-4.2,2.9c0.1,0.5,0.4,0.9,0.8,1.2L25.6,170.7z"/>


              <line class="st25-postcard-jazz" x1="120.7" y1="397.4" x2="337.4" y2="186.7"/>
              <line class="st25-postcard-jazz" x1="50.8" y1="389.1" x2="267.4" y2="178.4"/>
              <polyline class="st26-postcard-jazz" points="-45.8,-334.5 12.6,-55.4 -38.5,-43.7 43.5,338 	"/>
              <polygon class="st21-postcard-jazz" points="20.7,410.3 227.7,432 373.9,432 382.6,349.1 31,312.1 		"/>
              <rect x="152.3" y="202.9" transform="matrix(0.1045 -0.9945 0.9945 0.1045 -196.9802 540.5346)" class="st23-postcard-jazz" width="98.7" height="353.5"/>
              <path d="M44.7,351.4l10-7.2c1.6-1.1,5.5-4,5.7-6c0.1-1-0.7-1.9-1.7-2c-1.8-0.2-2.1,1.3-2.3,2.7l-8.2-0.9
                c1.3-6.6,4.6-9.3,11.5-8.6c4.8,0.5,9.6,3.8,9,9.1c-0.5,4.6-4.8,7.1-9,7.9l0,0.2l4-0.1l4.5,0.2l-0.7,7.1L44.7,351.4z"/>
              <path d="M92.3,333.2l-0.7,6.4l-9.8-1c-0.2,0.9-0.5,1.8-1,2.6l0.2,0c0.9-0.9,2.9-0.9,4-0.8c4.2,0.4,7.6,3.6,7.1,8
                c-0.6,5.6-7,7.6-11.9,7.1c-2.4-0.3-6.9-1.5-9-2.8l1.6-6.1c1.6,1.1,4.8,2.4,6.7,2.6c1.4,0.1,4.1-0.1,4.3-1.9
                c0.2-1.9-3-2.6-4.4-2.8c-2.1-0.2-4.2-0.1-6.2,0.4l3.4-13.4L92.3,333.2z"/>
              <path d="M50.8,368.5l0.3-3.2l11.9,1.3l-9.9,13.6l-4.1-0.4l7.8-10.6L50.8,368.5z"/>
              <path d="M70.7,374.3l-0.3,2.9l-9.6-1l0.3-2.9L70.7,374.3z"/>
              <path d="M73.2,382.3l4.7-4.5l0,0c-0.7,0.2-1.3,0.3-2.1,0.2c-2.8-0.3-4.4-2.9-4.1-5.6c0.4-3.6,3.5-5.2,6.8-4.8
                c1.4,0.1,3,0.7,4,1.7c1.1,1.1,1.7,2.7,1.5,4.2c-0.2,2.1-1.5,4-2.9,5.5l-3.5,3.7L73.2,382.3z M75.6,372.7
                c-0.1,1.3,0.8,2.5,2.1,2.6c1.3,0.1,2.5-0.8,2.7-2.1c0.1-1.3-0.8-2.5-2.2-2.6C76.8,370.4,75.7,371.4,75.6,372.7z"/>
              <path d="M51.2,387.5l5.1,0.5c2.8,0.3,4.6,1.8,4.2,4.7c-0.3,3-2.1,4.2-5,3.9l-1.9-0.2l-0.4,4.3l-3.4-0.4L51.2,387.5z M53.9,393.7
                l0.6,0.1c1.2,0.1,2.4,0.3,2.6-1.3c0.2-1.6-0.9-1.8-2.2-1.9l-0.6-0.1L53.9,393.7z"/>
              <path d="M65.6,389l3.3,0.3l1.9,7.2l3.5-6.6l3.3,0.3l0.6,13.1l-3.4-0.4l-0.2-7.5l0,0l-3.9,7.1l-1.3-0.1l-2.2-7.7l0,0l-1.9,7.3
                l-3.3-0.4L65.6,389z"/>
              <line class="st27-postcard-jazz" x1="42.5" y1="357.1" x2="93.7" y2="362.5"/>
              <path d="M110.2,344.7l3.8,0.4l-0.3,2.7l-6.9-0.7L108,335l3.1,0.3L110.2,344.7z"/>
              <path d="M117.7,348.2l-3.1-0.3l1.3-12.1l3.1,0.3L117.7,348.2z"/>
              <path d="M133.2,343.5c-0.4,3.9-3.5,6.4-7.4,6c-3.9-0.4-6.4-3.5-6-7.4c0.4-3.7,3.9-5.9,7.3-5.5
                C130.6,336.9,133.6,339.9,133.2,343.5z M123.1,342.5c-0.2,2.1,1.2,3.8,3,4c1.9,0.2,3.6-1.2,3.8-3.2c0.2-1.7-1.2-3.4-3.1-3.6
                C125,339.4,123.3,340.8,123.1,342.5z"/>
              <path d="M135.2,337.8l3.1,0.3l5,8l0,0l0.8-7.4l3.1,0.3l-1.3,12.1l-3.1-0.3l-5-8l0,0l-0.8,7.4l-3.1-0.3L135.2,337.8z"/>
              <path d="M152.2,342.3l-0.2,2l3.5,0.4l-0.3,2.7l-3.5-0.4l-0.2,2.1l3.7,0.4l-0.3,2.7l-6.9-0.7l1.3-12.1l6.9,0.7l-0.3,2.7
                L152.2,342.3z"/>
              <path d="M160.3,350l3.8,0.4l-0.3,2.7l-6.9-0.7l1.3-12.1l3.1,0.3L160.3,350z"/>
              <path d="M173.8,351.4l3.8,0.4l-0.3,2.7l-6.9-0.7l1.3-12.1l3.1,0.3L173.8,351.4z"/>
              <path d="M191.5,349.6c-0.4,3.9-3.5,6.4-7.4,6c-3.9-0.4-6.4-3.5-6-7.4c0.4-3.7,3.9-5.9,7.3-5.5C188.9,343.1,191.9,346,191.5,349.6
                z M181.4,348.6c-0.2,2.1,1.2,3.8,3,4c1.9,0.2,3.6-1.2,3.8-3.2c0.2-1.7-1.2-3.4-3.1-3.6C183.2,345.6,181.5,346.9,181.4,348.6z"/>
              <path d="M204,345.1l-0.7,6.8c-0.2,1.6-0.4,3.1-1.7,4.1c-1.1,0.9-2.7,1.1-4.2,0.9c-1.4-0.1-3-0.7-3.9-1.8c-1.1-1.3-1-2.8-0.8-4.4
                l0.7-6.8l3.1,0.3l-0.7,6.4c-0.2,1.6-0.2,3.3,1.8,3.5c2,0.2,2.3-1.5,2.5-3.1l0.7-6.4L204,345.1z"/>
              <path d="M208.8,348.3l-0.2,2l3.5,0.4l-0.3,2.7l-3.5-0.4l-0.2,2.1l3.7,0.4l-0.3,2.7l-6.9-0.7l1.3-12.1l6.9,0.7l-0.3,2.7
                L208.8,348.3z"/>
              <path d="M221.8,346.9l3.9,0.4l-5.4,5.2l4.6,6.9l-4.1-0.4l-3.5-5.7l0,0l-0.6,5.2l-3.1-0.3l1.3-12.1l3.1,0.3l-0.5,5l0,0
                L221.8,346.9z"/>
              <path d="M229.8,350.5l-0.2,2l3.5,0.4l-0.3,2.7l-3.5-0.4l-0.2,2.1l3.7,0.4l-0.3,2.7l-6.9-0.7l1.3-12.1l6.9,0.7l-0.3,2.7
                L229.8,350.5z"/>
              <path d="M244.8,361.6l-3.1-0.3l1-9.4l-2.6-0.3l0.3-2.7l8.3,0.9l-0.3,2.7l-2.6-0.3L244.8,361.6z"/>
              <path d="M258.4,363l-3.9-0.4l-2.5-5l0,0l-0.5,4.7l-3.1-0.3l1.3-12.1l4.7,0.5c2.4,0.3,4.1,1.6,3.8,4.2c-0.2,1.7-1.3,3-3,3.1
                L258.4,363z M252.2,355.6l0.3,0c1,0.1,2.2,0,2.3-1.3c0.1-1.3-1-1.6-2-1.7l-0.3,0L252.2,355.6z"/>
              <path d="M262.4,363.4l-3.1-0.3l1.3-12.1l3.1,0.3L262.4,363.4z"/>
              <path d="M277.8,358.7c-0.4,3.9-3.5,6.4-7.4,6c-3.9-0.4-6.4-3.5-6-7.4c0.4-3.7,3.9-5.9,7.3-5.5
                C275.3,352.2,278.2,355.1,277.8,358.7z M267.7,357.7c-0.2,2.1,1.2,3.8,3,4s3.6-1.2,3.8-3.2c0.2-1.7-1.2-3.4-3.1-3.6
                S267.9,356,267.7,357.7z"/>
              <path d="M105.3,365.8l2.3,0.2l-0.1,0.5l-2.8-0.3l0.9-8.9l0.6,0.1L105.3,365.8z"/>
              <path d="M109,366.8l-0.6-0.1l0.9-8.9l0.6,0.1L109,366.8z"/>
              <path d="M120,363.4c-0.3,2.5-2.6,4.3-5.1,4.1c-2.5-0.3-4.4-2.5-4.1-5c0.3-2.5,2.6-4.3,5.1-4.1C118.4,358.7,120.3,361,120,363.4z
                 M111.4,362.5c-0.2,2.2,1.4,4.2,3.6,4.4c2.2,0.2,4.2-1.4,4.5-3.6c0.2-2.2-1.4-4.2-3.6-4.4C113.6,358.7,111.6,360.4,111.4,362.5z"
                />
              <path d="M128.9,369.2l-6.6-8.7l-0.8,7.6l-0.6-0.1l0.9-9l6.6,8.6l0.8-7.7l0.6,0.1L128.9,369.2z"/>
              <path d="M132.2,360.8l-0.3,3.2l3.6,0.4l-0.1,0.5l-3.6-0.4l-0.4,4.1l3.7,0.4l-0.1,0.5l-4.2-0.4l0.9-8.9l4.2,0.4l-0.1,0.5
                L132.2,360.8z"/>
              <path d="M136.9,369.2l2.3,0.2l-0.1,0.5l-2.8-0.3l0.9-8.9l0.6,0.1L136.9,369.2z"/>
              <path d="M144.4,370l2.3,0.2l-0.1,0.5l-2.8-0.3l0.9-8.9l0.6,0.1L144.4,370z"/>
              <path d="M156.1,367.2c-0.3,2.5-2.6,4.3-5.1,4.1s-4.4-2.5-4.1-5c0.3-2.5,2.6-4.3,5.1-4.1C154.5,362.5,156.4,364.8,156.1,367.2z
                 M147.5,366.3c-0.2,2.2,1.4,4.2,3.6,4.4c2.2,0.2,4.2-1.4,4.5-3.6c0.2-2.2-1.4-4.2-3.6-4.4C149.7,362.5,147.7,364.1,147.5,366.3z"
                />
              <path d="M163.3,363.5l0.6,0.1l-0.6,5.5c-0.1,0.9-0.2,1.7-0.9,2.4c-0.7,0.6-1.6,0.9-2.5,0.8s-1.8-0.5-2.3-1.3
                c-0.5-0.8-0.4-1.6-0.3-2.5l0.6-5.5l0.6,0.1l-0.6,5.4c-0.1,0.8-0.2,1.6,0.2,2.3c0.4,0.6,1.2,1,1.9,1.1c0.7,0.1,1.6-0.1,2.1-0.7
                c0.5-0.5,0.6-1.4,0.7-2.2L163.3,363.5z"/>
              <path d="M166.2,364.4l-0.3,3.2l3.6,0.4l-0.1,0.5l-3.6-0.4l-0.4,4.1l3.7,0.4l-0.1,0.5l-4.2-0.4l0.9-8.9l4.2,0.4l-0.1,0.5
                L166.2,364.4z"/>
              <path d="M176,364.9l0.8,0.1l-4.8,3.8l4.1,5.1l-0.7-0.1l-3.8-4.7l-0.3,0.2l-0.4,4l-0.6-0.1l0.9-8.9l0.6,0.1l-0.4,4.1L176,364.9z"
                />
              <path d="M178.4,365.6l-0.3,3.2l3.6,0.4l-0.1,0.5l-3.6-0.4l-0.4,4.1l3.7,0.4l-0.1,0.5l-4.2-0.4l0.9-8.9l4.2,0.4l-0.1,0.5
                L178.4,365.6z"/>
              <path d="M186.8,375.7l1.4,0.2l-0.1,0.6l-2-0.2l1.2-11.3l2,0.2l-0.1,0.6l-1.4-0.2L186.8,375.7z"/>
              <path d="M193,374.3L193,374.3l3.4-7.3l0.6,0.1l-4.2,8.8l-2.2-9.5l0.6,0.1L193,374.3z"/>
              <path d="M205.8,372.5c-0.3,2.5-2.6,4.3-5.1,4.1c-2.5-0.3-4.4-2.5-4.1-5c0.3-2.5,2.6-4.3,5.1-4.1C204.1,367.7,206,370,205.8,372.5
                z M197.1,371.6c-0.2,2.2,1.4,4.2,3.6,4.4c2.2,0.2,4.2-1.4,4.5-3.6c0.2-2.2-1.4-4.2-3.6-4.4C199.4,367.7,197.4,369.4,197.1,371.6z
                "/>
              <path d="M207.2,377.1l-0.6-0.1l0.9-8.9l0.6,0.1L207.2,377.1z"/>
              <path d="M216.9,371c-0.6-0.9-1.7-1.6-2.8-1.7c-2.2-0.2-4.2,1.5-4.5,3.7c-0.1,1,0.2,2.1,0.9,2.9c0.7,0.8,1.7,1.4,2.7,1.5
                c1,0.1,2.4-0.3,3.1-1l-0.1,0.8c-0.9,0.6-2,0.9-3.1,0.8c-2.5-0.3-4.4-2.5-4.1-5c0.3-2.5,2.6-4.3,5.1-4.1c1.1,0.1,2.1,0.6,2.8,1.5
                L216.9,371z"/>
              <path d="M219,369.9l-0.3,3.2l3.6,0.4l-0.1,0.5l-3.6-0.4l-0.4,4.1l3.7,0.4l-0.1,0.5l-4.2-0.4l0.9-8.9l4.2,0.4l-0.1,0.5L219,369.9z
                "/>
              <path d="M232.2,378.2c-1.1,0.7-2.3,1.4-3.4,1.3c-1.3-0.1-2.2-1.3-2.1-2.6c0.2-1.6,1.7-2.3,3-2.9c-0.3-0.6-0.8-1.3-0.7-2
                c0.1-0.9,1-1.6,1.9-1.5c0.9,0.1,1.5,0.9,1.4,1.8c-0.1,1-1,1.5-1.9,2l1.9,3.2l1.3-1.1l0.4,0.3l-1.4,1.3l1.2,1.9l-0.6-0.1
                L232.2,378.2z M229.4,374.8c-0.9,0.5-2,1-2.1,2.1c-0.1,1,0.5,1.9,1.6,2.1c1,0.1,2.2-0.7,3.1-1.3l-1.9-3.3L229.4,374.8z
                 M229.6,372.1c-0.1,0.6,0.4,1.2,0.6,1.7c0.7-0.4,1.5-0.7,1.6-1.6c0.1-0.6-0.4-1.2-1-1.2C230.2,370.9,229.6,371.5,229.6,372.1z"/>
              <path d="M247.1,377c-0.1,1.1-0.4,2.1-1.2,2.9c-0.9,0.8-2.3,1.2-3.5,1.1c-2.5-0.3-4.3-2.5-4.1-5c0.3-2.5,2.6-4.4,5.1-4.1
                c1.6,0.2,2.8,1.1,3.6,2.5l-0.5,0.3c-0.7-1.3-1.8-2.1-3.2-2.3c-2.2-0.2-4.2,1.5-4.4,3.6c-0.2,2.2,1.4,4.2,3.6,4.4
                c1,0.1,1.9-0.2,2.7-0.7c0.8-0.6,1.2-1.3,1.3-2.2l-3.2-0.3l0.1-0.5L247.1,377z"/>
              <path d="M254.3,373.1l0.6,0.1l-0.6,5.5c-0.1,0.9-0.2,1.7-0.9,2.4c-0.7,0.6-1.6,0.9-2.5,0.8s-1.8-0.5-2.3-1.3
                c-0.5-0.8-0.4-1.6-0.3-2.5l0.6-5.5l0.6,0.1l-0.6,5.4c-0.1,0.8-0.2,1.6,0.2,2.3c0.4,0.6,1.2,1,1.9,1.1c0.7,0.1,1.6-0.1,2.1-0.6
                c0.5-0.5,0.6-1.4,0.7-2.2L254.3,373.1z"/>
              <path d="M256.3,382.3l-0.6-0.1l0.9-8.9l0.6,0.1L256.3,382.3z"/>
              <path d="M260.1,382.7l-0.6-0.1l0.9-8.3l-2.3-0.2l0.1-0.5l5.2,0.5l-0.1,0.5l-2.3-0.2L260.1,382.7z"/>
              <path d="M263.8,380.1l-1.5,2.8l-0.6-0.1l4.7-8.8l2.7,9.6l-0.6-0.1l-0.9-3L263.8,380.1z M266.3,375.5l-2.2,4.1l3.5,0.4
                L266.3,375.5z"/>
              <path d="M274.5,384.2l-0.6-0.1l-2.5-4.5l-0.3,0l-0.4,4.2l-0.6-0.1l0.9-8.9l1.1,0.1c0.7,0.1,1.4,0.2,2,0.7c0.6,0.5,0.8,1.2,0.7,2
                c-0.2,1.5-1.3,2.2-2.8,2.1L274.5,384.2z M271.9,379.1c0.6,0.1,1.1,0.1,1.6-0.2c0.5-0.3,0.7-0.8,0.8-1.3c0.1-0.7-0.2-1.3-0.8-1.7
                c-0.4-0.3-1-0.3-1.6-0.4l-0.4,0l-0.4,3.6L271.9,379.1z"/>
              <path d="M278.1,375.1l-1.4-0.2l0.1-0.6l2,0.2l-1.2,11.3l-2-0.2l0.1-0.6l1.4,0.2L278.1,375.1z"/>
              <path d="M110.8,379L110.8,379l-3.9,7.3l-2.3-8l0,0l-2.3,7.2l-0.5-0.1l2.9-9l2.4,8.4l4.1-7.7l0.9,9.4l-0.5-0.1L110.8,379z"/>
              <path d="M113.8,386.7l-0.6-0.1l0.9-8.9l0.6,0.1L113.8,386.7z"/>
              <path d="M123.5,380.6c-0.6-0.9-1.7-1.6-2.8-1.7c-2.2-0.2-4.2,1.5-4.5,3.7c-0.1,1,0.2,2.1,0.9,2.9c0.7,0.8,1.7,1.4,2.7,1.5
                c1,0.1,2.4-0.3,3.1-1l-0.1,0.8c-0.9,0.6-2,0.9-3.1,0.8c-2.5-0.3-4.4-2.5-4.1-5c0.3-2.5,2.6-4.3,5.1-4.1c1.1,0.1,2.1,0.6,2.8,1.5
                L123.5,380.6z"/>
              <path d="M130.6,383.3l0.4-3.8l0.6,0.1l-0.9,8.9l-0.6-0.1l0.5-4.6l-5.4-0.6l-0.5,4.6l-0.6-0.1l0.9-8.9l0.6,0.1l-0.4,3.8
                L130.6,383.3z"/>
              <path d="M133.7,385.9l-1.5,2.8l-0.6-0.1l4.7-8.8l2.7,9.5l-0.6-0.1l-0.9-3L133.7,385.9z M136.1,381.3l-2.2,4.1l3.5,0.4
                L136.1,381.3z"/>
              <path d="M141.4,381.2l-0.3,3.2l3.6,0.4l-0.1,0.5L141,385l-0.4,4.1l3.7,0.4l-0.1,0.5l-4.2-0.4l0.9-8.9l4.2,0.4l-0.1,0.5
                L141.4,381.2z"/>
              <path d="M146.1,389.6l2.3,0.2l-0.1,0.5l-2.8-0.3l0.9-8.9l0.6,0.1L146.1,389.6z"/>
              <path d="M162.1,387.3c-0.3,2.5-2.6,4.3-5.1,4.1c-2.5-0.3-4.4-2.5-4.1-5c0.3-2.5,2.6-4.3,5.1-4.1
                C160.5,382.6,162.4,384.8,162.1,387.3z M153.5,386.4c-0.2,2.2,1.4,4.2,3.6,4.4c2.2,0.2,4.2-1.4,4.5-3.6c0.2-2.2-1.4-4.2-3.6-4.4
                C155.7,382.6,153.7,384.2,153.5,386.4z"/>
              <path d="M163.6,391.4l2.3,0.2l-0.1,0.5l-2.8-0.3l0.9-8.9l0.6,0.1L163.6,391.4z"/>
              <path d="M168.4,389.5l-1.5,2.8l-0.6-0.1l4.7-8.8l2.7,9.6l-0.6-0.1l-0.9-3L168.4,389.5z M170.8,384.9l-2.2,4.1l3.5,0.4
                L170.8,384.9z"/>
              <path d="M175.9,393.3l-0.6-0.1l0.9-8.3l-2.3-0.2l0.1-0.5l5.2,0.5l-0.1,0.5l-2.3-0.2L175.9,393.3z"/>
              <path d="M185.5,385.3l0.6,0.1l-0.6,5.5c-0.1,0.9-0.2,1.7-0.9,2.4c-0.7,0.6-1.6,0.9-2.5,0.8c-0.9-0.1-1.8-0.5-2.3-1.3
                c-0.5-0.8-0.4-1.6-0.3-2.5l0.6-5.5l0.6,0.1l-0.6,5.4c-0.1,0.8-0.2,1.6,0.2,2.3c0.4,0.6,1.2,1,1.9,1.1c0.7,0.1,1.6-0.1,2.1-0.7
                c0.5-0.5,0.6-1.4,0.7-2.2L185.5,385.3z"/>
              <path d="M188.5,385.6l-0.9,8.7c-0.1,1.1-0.5,2-1.8,1.9c-0.6-0.1-1.2-0.5-1.4-1.1l0.5-0.3c0.2,0.4,0.5,0.8,1,0.9
                c0.9,0.1,1-0.7,1.1-1.4l0.9-8.7L188.5,385.6z"/>
              <path d="M190.5,391.9l-1.5,2.8l-0.6-0.1l4.7-8.8l2.7,9.6l-0.6-0.1l-0.9-3L190.5,391.9z M193,387.2l-2.2,4.1l3.5,0.4L193,387.2z"
                />
              <path d="M200.5,396.6l1.4,0.2l-0.1,0.6l-2-0.2l1.2-11.3l2,0.2l-0.1,0.6l-1.4-0.2L200.5,396.6z"/>
              <path d="M204.1,396.2l0.9-8.9l1.8,0.2c0.7,0.1,1.3,0.2,1.8,0.7c0.5,0.5,0.6,1.2,0.5,1.9c-0.1,0.8-0.5,1.4-1.2,1.7
                c1.1,0.3,1.7,1.3,1.6,2.4c-0.1,0.7-0.4,1.3-1,1.8c-0.7,0.5-1.3,0.5-2.1,0.4L204.1,396.2z M204.7,395.8l1.4,0.1
                c0.6,0.1,1.3,0.2,1.8-0.2c0.6-0.3,1-0.8,1-1.5c0.1-0.6-0.2-1.3-0.8-1.7c-0.5-0.3-1.3-0.4-1.8-0.5l-1.2-0.1L204.7,395.8z
                 M205.2,391.4l1,0.1c0.6,0.1,1.1,0.1,1.6-0.2c0.5-0.3,0.7-0.7,0.8-1.4c0.1-0.6-0.1-1.2-0.6-1.5c-0.4-0.3-1-0.4-1.5-0.4l-1-0.1
                L205.2,391.4z"/>
              <path d="M211.7,394.1l-1.5,2.8l-0.6-0.1l4.7-8.8l2.7,9.6l-0.6-0.1l-0.9-3L211.7,394.1z M214.2,389.5l-2.2,4.1l3.5,0.4
                L214.2,389.5z"/>
              <path d="M222.8,390.7c-0.3-0.7-0.9-1.1-1.7-1.2c-1-0.1-1.7,0.6-1.8,1.5s0.7,1.4,1.4,1.8l1.6,1.1c0.6,0.5,0.9,1.1,0.8,1.9
                c-0.2,1.5-1.6,2.4-3,2.3c-1.2-0.1-2.1-1-2.4-2.2l0.5-0.2c0.3,1,0.9,1.7,2,1.8c1.2,0.1,2.3-0.7,2.4-1.9c0.1-1-0.9-1.5-1.6-2
                l-1.5-1c-0.5-0.4-0.8-1-0.8-1.7c0.1-1.3,1.2-2.1,2.5-2c0.9,0.1,1.7,0.7,2,1.5L222.8,390.7z"/>
              <path d="M229.1,391.4c-0.3-0.7-0.9-1.1-1.7-1.2c-1-0.1-1.8,0.6-1.8,1.5c-0.1,0.9,0.7,1.4,1.4,1.8l1.6,1.1
                c0.6,0.5,0.9,1.1,0.8,1.9c-0.2,1.5-1.6,2.4-3,2.3c-1.2-0.1-2.1-1-2.4-2.2l0.5-0.2c0.3,1,0.9,1.7,2,1.8c1.2,0.1,2.3-0.7,2.4-1.9
                c0.1-1-0.9-1.5-1.6-2l-1.5-1c-0.5-0.4-0.8-1-0.8-1.7c0.1-1.3,1.2-2.1,2.5-2c0.9,0.1,1.7,0.7,2,1.5L229.1,391.4z"/>
              <path d="M232.9,389.8l-1.4-0.2l0.1-0.6l2,0.2l-1.2,11.3l-2-0.2l0.1-0.6l1.4,0.2L232.9,389.8z"/>
              <path d="M102.2,396l-0.9,8.7c-0.1,1.1-0.5,2-1.8,1.9c-0.6-0.1-1.2-0.5-1.4-1.1l0.5-0.3c0.2,0.4,0.5,0.8,1,0.9
                c0.9,0.1,1-0.7,1.1-1.4l0.9-8.7L102.2,396z"/>
              <path d="M109.5,396.8l0.6,0.1l-0.6,5.5c-0.1,0.9-0.2,1.7-0.9,2.4c-0.7,0.6-1.6,0.9-2.5,0.8s-1.8-0.5-2.3-1.3
                c-0.5-0.8-0.4-1.6-0.3-2.5l0.6-5.5l0.6,0.1l-0.6,5.4c-0.1,0.8-0.2,1.6,0.2,2.3c0.4,0.6,1.2,1,1.9,1.1c0.7,0.1,1.6-0.1,2.1-0.7
                c0.5-0.5,0.6-1.4,0.7-2.2L109.5,396.8z"/>
              <path d="M115.6,398.9c-0.3-0.7-0.9-1.1-1.7-1.2c-1-0.1-1.7,0.6-1.8,1.5c-0.1,0.9,0.7,1.4,1.4,1.8l1.6,1.1
                c0.6,0.5,0.9,1.1,0.8,1.9c-0.2,1.5-1.6,2.4-3,2.3c-1.2-0.1-2.1-1-2.4-2.2l0.5-0.2c0.3,1,0.9,1.7,2,1.8c1.2,0.1,2.3-0.7,2.4-1.9
                c0.1-1-0.9-1.5-1.6-2l-1.5-1c-0.5-0.4-0.8-1-0.8-1.7c0.1-1.3,1.2-2.1,2.5-2c0.9,0.1,1.7,0.7,2,1.5L115.6,398.9z"/>
              <path d="M118.8,406.7l-0.6-0.1l0.9-8.3l-2.3-0.2l0.1-0.5l5.2,0.5l-0.1,0.5l-2.3-0.2L118.8,406.7z"/>
              <path d="M122.6,407.1l-0.6-0.1l0.9-8.9l0.6,0.1L122.6,407.1z"/>
              <path d="M132.4,408.5l-6.6-8.7l-0.8,7.6l-0.6-0.1l0.9-9l6.6,8.6l0.8-7.7l0.6,0.1L132.4,408.5z"/>
              <path d="M138,408.7l0.9-8.9l1.8,0.2c0.7,0.1,1.3,0.2,1.8,0.7c0.5,0.5,0.6,1.2,0.5,1.9c-0.1,0.8-0.5,1.4-1.2,1.7
                c1.1,0.3,1.7,1.3,1.6,2.4c-0.1,0.7-0.4,1.3-1,1.7c-0.7,0.5-1.3,0.5-2.1,0.4L138,408.7z M138.6,408.3l1.4,0.1
                c0.6,0.1,1.3,0.2,1.8-0.2c0.6-0.3,1-0.8,1-1.5c0.1-0.6-0.2-1.3-0.8-1.7c-0.5-0.3-1.3-0.4-1.8-0.5l-1.2-0.1L138.6,408.3z
                 M139.1,404l1,0.1c0.6,0.1,1.1,0.1,1.6-0.2c0.5-0.3,0.7-0.7,0.8-1.4c0.1-0.6-0.1-1.2-0.6-1.5c-0.4-0.3-1-0.4-1.5-0.4l-1-0.1
                L139.1,404z"/>
              <path d="M148.9,409.9l-0.6-0.1l-2.5-4.5l-0.3,0l-0.4,4.2l-0.6-0.1l0.9-8.9l1.1,0.1c0.7,0.1,1.4,0.2,2,0.7c0.6,0.5,0.8,1.2,0.7,2
                c-0.2,1.5-1.3,2.2-2.8,2.1L148.9,409.9z M146.3,404.8c0.6,0.1,1.1,0.1,1.6-0.2c0.5-0.3,0.7-0.8,0.8-1.3c0.1-0.7-0.2-1.3-0.8-1.7
                c-0.4-0.3-1-0.3-1.6-0.4l-0.4,0l-0.4,3.6L146.3,404.8z"/>
              <path d="M159.1,406.5c-0.3,2.5-2.6,4.3-5.1,4.1s-4.4-2.5-4.1-5c0.3-2.5,2.6-4.3,5.1-4.1C157.5,401.7,159.4,404,159.1,406.5z
                 M150.5,405.6c-0.2,2.2,1.4,4.2,3.6,4.4c2.2,0.2,4.2-1.4,4.5-3.6c0.2-2.2-1.4-4.2-3.6-4.4C152.8,401.7,150.7,403.4,150.5,405.6z"
                />
              <path d="M162,410l4.2-7.7l2.5,8.4l3.3-7.4l0.6,0.1l-4,8.8l-2.5-8.6l-4.2,7.8l-2-9.5l0.6,0.1L162,410z"/>
              <path d="M180.5,413.5l-6.6-8.7l-0.8,7.6l-0.6-0.1l0.9-9l6.6,8.6l0.8-7.7l0.6,0.1L180.5,413.5z"/>
              <path d="M186.3,414.5l1.4,0.2l-0.1,0.6l-2-0.2l1.2-11.3l2,0.2l-0.1,0.6l-1.4-0.2L186.3,414.5z"/>
              <path d="M190.8,405.3l1.6,0.2c1.3,0.1,2.3,0.5,3.2,1.5c0.8,1,1.2,2.2,1.1,3.5c-0.1,1.2-0.7,2.3-1.7,3.1c-1.1,0.8-2.1,1-3.5,0.8
                l-1.6-0.2L190.8,405.3z M191.5,413.8c1.2,0.1,2.2,0,3.1-0.8c0.8-0.7,1.4-1.6,1.5-2.7c0.1-1.1-0.2-2.2-1-3.1
                c-0.8-0.9-1.7-1.1-2.8-1.3l-1-0.1l-0.8,7.8L191.5,413.8z"/>
              <path d="M201.9,415.5l-0.6-0.1l-2.5-4.5l-0.3,0l-0.4,4.2l-0.6-0.1l0.9-8.9l1.1,0.1c0.7,0.1,1.4,0.2,2,0.7c0.6,0.5,0.8,1.2,0.7,2
                c-0.2,1.5-1.3,2.2-2.8,2.1L201.9,415.5z M199.3,410.4c0.6,0.1,1.1,0.1,1.6-0.2c0.5-0.3,0.7-0.8,0.8-1.3c0.1-0.7-0.2-1.3-0.8-1.7
                c-0.4-0.3-1-0.3-1.6-0.4l-0.4,0l-0.4,3.6L199.3,410.4z"/>
              <path d="M209.4,407.3l0.6,0.1l-0.6,5.5c-0.1,0.9-0.2,1.7-0.9,2.4c-0.7,0.6-1.6,0.9-2.5,0.8s-1.8-0.5-2.3-1.3
                c-0.5-0.8-0.4-1.6-0.3-2.5l0.6-5.5l0.6,0.1l-0.6,5.4c-0.1,0.8-0.2,1.6,0.2,2.3c0.4,0.6,1.2,1,1.9,1.1s1.6-0.1,2.1-0.6
                c0.5-0.5,0.6-1.4,0.7-2.2L209.4,407.3z"/>
              <path d="M219,409.8L219,409.8l-3.9,7.3l-2.3-8l0,0l-2.3,7.2l-0.5-0.1l2.9-9l2.4,8.4l4.1-7.7l0.9,9.4l-0.5-0.1L219,409.8z"/>
              <path d="M226.2,410.5c-0.3-0.7-0.9-1.1-1.7-1.2c-1-0.1-1.8,0.6-1.8,1.5c-0.1,0.9,0.7,1.4,1.4,1.8l1.6,1.1
                c0.6,0.5,0.9,1.1,0.8,1.9c-0.2,1.5-1.6,2.4-3,2.3c-1.2-0.1-2.1-1-2.4-2.2l0.5-0.2c0.3,1,0.9,1.7,2,1.8c1.2,0.1,2.3-0.7,2.4-1.9
                c0.1-1-0.9-1.5-1.6-2l-1.5-1c-0.5-0.4-0.8-1-0.8-1.7c0.1-1.3,1.2-2.1,2.5-2c0.9,0.1,1.7,0.7,2,1.5L226.2,410.5z"/>
              <path d="M230.1,409l-1.4-0.2l0.1-0.6l2,0.2l-1.2,11.3l-2-0.2l0.1-0.6l1.4,0.2L230.1,409z"/>
              <rect x="117" y="38.8" transform="matrix(-0.225 -0.9744 0.9744 -0.225 -6.2942 426.0938)" class="st21-postcard-jazz" width="98.7" height="353.5"/>
              <rect x="117" y="38.8" transform="matrix(-0.225 -0.9744 0.9744 -0.225 -6.2942 426.0938)" class="st23-postcard-jazz" width="98.7" height="353.5"/>
              <path d="M56.4,204.7l4.4-1c3.3-0.8,6.6,1.2,7.4,4.5s-1.4,6.6-4.7,7.3l-4.4,1L56.4,204.7z M61.7,213.3l0.7-0.2
                c1.8-0.4,3.2-1.8,2.6-4.1c-0.5-2.1-2.2-3-4.1-2.5l-0.7,0.2L61.7,213.3z"/>
              <path d="M72.9,211.2l-0.3,2.2l-3.3,0.8l1.8-12.9l3.4-0.8l7.2,10.8l-3.3,0.8l-1.2-1.9L72.9,211.2z M73.7,204.6L73.7,204.6
                l-0.4,4.1l2.6-0.6L73.7,204.6z"/>
              <path d="M85.4,205.6l1.2-7.9L90,197l-2.3,13l-2.4,0.6l-7.7-10.7l3.3-0.8L85.4,205.6z"/>
              <path d="M94.4,198.7l0.5,2l3.5-0.8l0.6,2.6l-3.5,0.8l0.5,2l3.7-0.8l0.6,2.6l-6.7,1.6l-2.7-11.8l6.7-1.6l0.6,2.6L94.4,198.7z"/>
              <path d="M111.6,192l3.8-0.9l-3.4,6.7l6.6,5.1l-4,0.9l-5.2-4.2l0,0l1.2,5.1l-3.1,0.7l-2.7-11.8l3.1-0.7l1.1,4.9l0,0L111.6,192z"/>
              <path d="M122.4,202l-3.1,0.7l-2.7-11.8l3.1-0.7L122.4,202z"/>
              <path d="M121.7,189.7l3.1-0.7l7.3,5.9l0,0l-1.7-7.2l3.1-0.7l2.7,11.8l-3.1,0.7l-7.3-6l0,0l1.7,7.3l-3.1,0.7L121.7,189.7z"/>
              <path d="M148.5,189c0.4,1.7,0.6,3.2-0.1,5c-0.8,1.9-2.4,3-4.3,3.5c-3.7,0.9-6.9-1.1-7.8-4.8c-0.9-3.8,1.1-7,5-7.9
                c2.4-0.6,4.6,0.1,6.1,2.1l-2.6,1.9c-0.7-1-1.8-1.6-3-1.3c-2,0.5-2.6,2.6-2.2,4.5c0.4,1.8,2,3.5,4,3c1.3-0.3,2.2-1.2,2-2.6
                l-2.5,0.6l-0.6-2.4L148.5,189z"/>
              <path d="M153.1,182.4l-1.7,5.9l-1.8,0.4l0.8-5.7L153.1,182.4z"/>
              <path d="M161.1,183.8c-0.7-0.3-1.5-0.5-2.2-0.3c-0.6,0.1-1.2,0.6-1.1,1.3c0.2,0.7,1.1,0.8,1.6,0.8l0.8,0.1
                c1.8,0.1,3.2,0.6,3.7,2.6c0.3,1.2,0.3,2.5-0.5,3.5c-0.7,1-1.9,1.6-3.1,1.9c-1.5,0.3-3.1,0.2-4.5-0.4l0.7-2.8c0.9,0.5,2,0.8,3,0.6
                c0.7-0.2,1.4-0.7,1.2-1.5c-0.2-0.9-1.5-0.9-2.2-0.9c-2.1-0.1-3.4-0.3-4-2.6c-0.6-2.4,0.8-4.4,3.2-4.9c1.2-0.3,2.7-0.2,3.9,0.1
                L161.1,183.8z"/>
              <path d="M176.4,189.5l-3.1,0.7l-2.1-9.2l-2.5,0.6L168,179l8.2-1.9l0.6,2.6l-2.5,0.6L176.4,189.5z"/>
              <path d="M189.7,186.5l-3.8,0.9l-4-3.9l0,0l1.1,4.6l-3.1,0.7l-2.7-11.8l4.6-1.1c2.3-0.5,4.4,0.2,5,2.7c0.4,1.6-0.2,3.3-1.8,3.9
                L189.7,186.5z M181.4,181.5l0.3-0.1c1-0.2,2.1-0.7,1.8-2c-0.3-1.3-1.5-1.2-2.5-1l-0.3,0.1L181.4,181.5z"/>
              <path d="M197.8,172.1l1.5,6.7c0.4,1.5,0.6,3-0.3,4.5c-0.8,1.2-2.2,1.9-3.6,2.2s-3,0.3-4.2-0.4c-1.4-0.9-1.9-2.4-2.2-3.9l-1.5-6.7
                l3.1-0.7l1.4,6.2c0.4,1.5,0.9,3.2,2.8,2.7c2-0.5,1.7-2.2,1.3-3.7l-1.4-6.2L197.8,172.1z"/>
              <path d="M209.1,173.7c-0.8-0.7-2-0.9-3-0.7c-1.9,0.4-2.8,2.2-2.4,4c0.4,1.9,2,2.9,3.9,2.5c1-0.2,1.9-1,2.4-1.9l0.9,3.7
                c-0.9,0.6-1.6,1-2.6,1.2c-1.7,0.4-3.4,0.1-4.8-0.7c-1.6-0.9-2.5-2.3-2.9-4c-0.4-1.6-0.1-3.3,0.7-4.7c0.9-1.5,2.4-2.6,4.1-3
                c1-0.2,2-0.2,2.9-0.1L209.1,173.7z"/>
              <path d="M216.9,167.7l3.8-0.9l-3.4,6.7l6.6,5.1l-4,0.9l-5.2-4.2l0,0l1.2,5.1l-3.1,0.7l-2.7-11.8l3.1-0.7l1.1,4.9l0,0L216.9,167.7
                z"/>
              <path d="M227.8,177.7l-3.1,0.7l-2.7-11.8l3.1-0.7L227.8,177.7z"/>
              <path d="M227,165.4l3.1-0.7l7.3,5.9l0,0l-1.7-7.2l3.1-0.7l2.7,11.8l-3.1,0.7l-7.3-6l0,0l1.7,7.3l-3.1,0.7L227,165.4z"/>
              <path d="M253.9,164.7c0.4,1.7,0.6,3.2-0.1,5c-0.8,1.9-2.4,3-4.4,3.5c-3.7,0.9-6.9-1.1-7.8-4.8c-0.9-3.8,1.1-7,5-7.9
                c2.4-0.6,4.6,0.1,6.1,2.1l-2.6,1.9c-0.7-1-1.8-1.6-3-1.3c-2,0.5-2.6,2.6-2.2,4.5c0.4,1.8,2,3.5,4,3c1.3-0.3,2.2-1.2,2-2.6
                l-2.5,0.6l-0.6-2.4L253.9,164.7z"/>
              <path d="M268.9,159.9c-0.8-0.7-2-0.9-3-0.7c-1.9,0.4-2.8,2.2-2.4,4c0.4,1.9,2,2.9,3.9,2.5c1-0.2,1.9-1,2.4-1.9l0.9,3.7
                c-0.9,0.6-1.6,1-2.6,1.2c-1.6,0.4-3.4,0.1-4.8-0.7c-1.6-0.9-2.5-2.3-2.9-4c-0.4-1.6-0.1-3.3,0.7-4.7c0.9-1.5,2.4-2.6,4.1-3
                c1-0.2,2-0.2,2.9-0.1L268.9,159.9z"/>
              <path d="M283.5,158.3c0.9,3.8-1.2,7.2-5,8.1c-3.8,0.9-7.2-1.2-8.1-5c-0.8-3.6,1.7-6.8,5.1-7.6C279,153,282.7,154.7,283.5,158.3z
                 M273.6,160.6c0.5,2,2.3,3.2,4.2,2.8c1.8-0.4,3-2.3,2.5-4.3c-0.4-1.6-2.2-2.8-4.1-2.4C274.4,157.2,273.2,159,273.6,160.6z"/>
              <path d="M289,161.9c0.2,1-0.4,2-1.4,2.3c-1,0.2-2-0.4-2.3-1.4c-0.2-1,0.4-2,1.4-2.3S288.7,160.9,289,161.9z"/>
              <path d="M62.1,227.1l0.7,3.2l3.5-0.8l0.1,0.5l-3.5,0.8l0.9,4l3.6-0.8l0.1,0.5l-4.1,1l-2-8.7l4.1-1l0.1,0.5L62.1,227.1z"/>
              <path d="M73.2,233.2l-0.6,0.1l-3.8-3.5l-0.3,0.1l1,4.1l-0.6,0.1l-2-8.7l1.1-0.2c0.7-0.2,1.4-0.3,2.1,0c0.7,0.3,1.1,0.9,1.3,1.7
                c0.3,1.5-0.5,2.5-2,2.8L73.2,233.2z M69.1,229.3c0.5-0.1,1.1-0.3,1.4-0.8c0.3-0.4,0.4-1,0.3-1.5c-0.1-0.6-0.6-1.2-1.3-1.4
                c-0.5-0.1-1.1,0-1.6,0.2l-0.4,0.1l0.8,3.5L69.1,229.3z"/>
              <path d="M74.9,232.8l-0.6,0.1l-2-8.7l0.6-0.1L74.9,232.8z"/>
              <path d="M79.4,222.6l0.7-0.2l-3.3,5.2l5.6,3.5l-0.7,0.2l-5.1-3.2l-0.2,0.3l0.9,3.9l-0.6,0.1l-2-8.7l0.6-0.1l0.9,4.1L79.4,222.6z"
                />
              <path d="M85.5,221.7l0.7,3.2l2.9-0.7l0.1,0.5l-2.9,0.7l1,4.5l-0.6,0.1l-2-8.7l3.5-0.8l0.1,0.5L85.5,221.7z"/>
              <path d="M95.9,228l-0.6,0.1l-3.8-3.5l-0.3,0.1l1,4.1l-0.6,0.1l-2-8.7l1.1-0.2c0.7-0.2,1.4-0.3,2.1,0c0.7,0.3,1.1,0.9,1.3,1.7
                c0.3,1.5-0.5,2.5-2,2.8L95.9,228z M91.8,224c0.5-0.1,1.1-0.3,1.4-0.8c0.3-0.4,0.4-1,0.3-1.5c-0.1-0.6-0.6-1.2-1.3-1.4
                c-0.5-0.1-1.1,0-1.6,0.2l-0.4,0.1l0.8,3.5L91.8,224z"/>
              <path d="M97.6,224.6l-0.5,3.1l-0.6,0.1l1.6-9.8l5.7,8.1l-0.6,0.1l-1.8-2.6L97.6,224.6z M98.4,219.4l-0.7,4.6l3.4-0.8L98.4,219.4z
                "/>
              <path d="M105.9,225.6l-0.6,0.1l-1.9-8.2l-2.2,0.5l-0.1-0.5l5-1.2l0.1,0.5l-2.2,0.5L105.9,225.6z"/>
              <path d="M114.4,223.1l0.1,0.5l-6.1,1.4l3.4-9.4l-4.8,1.1l-0.1-0.5l5.8-1.3l-3.4,9.4L114.4,223.1z"/>
              <path d="M118.2,213.6l0.7-0.2l-3.3,5.2l5.6,3.5l-0.7,0.2l-5.1-3.2l-0.2,0.3l0.9,3.9l-0.6,0.1l-2-8.7l0.6-0.1l0.9,4.1L118.2,213.6
                z"/>
              <path d="M120.8,213.6l0.7,3.2l3.5-0.8l0.1,0.5l-3.5,0.8l0.9,4l3.6-0.8l0.1,0.5l-4.1,1l-2-8.7l4.1-1l0.1,0.5L120.8,213.6z"/>
              <path d="M132,220.3l1.4-0.3l0.1,0.6l-2,0.5l-2.5-11l2-0.5l0.1,0.6l-1.4,0.3L132,220.3z"/>
              <path d="M142.4,212.8c0.3,1.1,0.3,2.1-0.2,3.1c-0.6,1.1-1.7,1.9-3,2.2c-2.4,0.6-4.9-1-5.5-3.4c-0.6-2.5,1-5,3.5-5.5
                c1.6-0.4,3,0.1,4.2,1.2l-0.4,0.5c-1-1-2.4-1.4-3.8-1.1c-2.1,0.5-3.5,2.8-3,4.9c0.5,2.1,2.7,3.5,4.9,3c0.9-0.2,1.8-0.8,2.3-1.5
                c0.6-0.8,0.7-1.6,0.5-2.5l-3.1,0.7l-0.1-0.5L142.4,212.8z"/>
              <path d="M147.9,206.8l0.6-0.1l1.2,5.4c0.2,0.9,0.4,1.6,0,2.5c-0.4,0.8-1.3,1.4-2.1,1.6c-0.9,0.2-1.9,0.1-2.6-0.5
                c-0.8-0.6-0.9-1.3-1.1-2.2l-1.2-5.4l0.6-0.1l1.2,5.3c0.2,0.8,0.4,1.6,1,2.1c0.6,0.5,1.5,0.5,2.1,0.4s1.5-0.6,1.8-1.3
                c0.3-0.7,0.1-1.5-0.1-2.3L147.9,206.8z"/>
              <path d="M152.8,214.8l-0.6,0.1l-2-8.7l0.6-0.1L152.8,214.8z"/>
              <path d="M156.5,214l-0.6,0.1l-1.9-8.2l-2.2,0.5l-0.1-0.5l5-1.2l0.1,0.5l-2.2,0.5L156.5,214z"/>
              <path d="M159.2,210.3l-0.5,3.1l-0.6,0.1l1.6-9.8l5.7,8.1l-0.6,0.1l-1.8-2.6L159.2,210.3z M160,205.2l-0.7,4.6l3.4-0.8L160,205.2z
                "/>
              <path d="M170.6,210.7l-0.6,0.1l-3.8-3.5l-0.3,0.1l1,4.1l-0.6,0.1l-2-8.7l1.1-0.2c0.7-0.2,1.4-0.3,2.1,0c0.7,0.3,1.1,0.9,1.3,1.7
                c0.3,1.5-0.5,2.5-2,2.8L170.6,210.7z M166.5,206.8c0.5-0.1,1.1-0.3,1.4-0.8c0.3-0.4,0.4-1,0.3-1.5c-0.1-0.6-0.6-1.2-1.3-1.4
                c-0.5-0.1-1.1,0-1.6,0.2l-0.4,0.1l0.8,3.5L166.5,206.8z"/>
              <path d="M171.1,200.9l-1.4,0.3l-0.1-0.6l2-0.5l2.5,11l-2,0.5l-0.1-0.6l1.4-0.3L171.1,200.9z"/>
              <path d="M180.4,203.5c0.2,0.7-0.2,1.4-1,1.6c-0.7,0.2-1.4-0.3-1.6-1c-0.2-0.7,0.3-1.4,1-1.6C179.6,202.4,180.3,202.8,180.4,203.5
                z"/>
              <path d="M184.8,198.3l1.6-0.4c1.3-0.3,2.3-0.3,3.5,0.3c1.1,0.6,1.8,1.7,2.1,2.9c0.3,1.2,0.1,2.4-0.6,3.5c-0.7,1.1-1.7,1.6-3,1.9
                l-1.6,0.4L184.8,198.3z M188.3,206.1c1.1-0.3,2-0.7,2.7-1.7c0.6-0.9,0.8-2,0.5-3c-0.3-1.1-0.9-2-1.9-2.6c-1-0.6-1.9-0.5-3-0.3
                l-1,0.2l1.8,7.7L188.3,206.1z"/>
              <path d="M194.1,202.3l-0.5,3.1l-0.6,0.1l1.6-9.8l5.7,8.1l-0.6,0.1l-1.8-2.6L194.1,202.3z M195,197.1l-0.7,4.6l3.4-0.8L195,197.1z
                "/>
              <path d="M202.6,202L202.6,202l0.9-8l0.6-0.1l-1.1,9.7l-5.2-8.3l0.6-0.1L202.6,202z"/>
              <path d="M205.5,194l0.7,3.2l3.5-0.8l0.1,0.5l-3.5,0.8l0.9,4l3.6-0.8l0.1,0.5l-4.1,1l-2-8.7l4.1-1l0.1,0.5L205.5,194z"/>
              <path d="M219,190.4l0.7-0.2l-3.3,5.2l5.6,3.5l-0.7,0.2l-5.1-3.2l-0.2,0.3l0.9,3.9l-0.6,0.1l-2-8.7l0.6-0.1l0.9,4.1L219,190.4z"/>
              <path d="M223.4,198.5l-0.6,0.1l-2-8.7l0.6-0.1L223.4,198.5z"/>
              <path d="M233.1,196.6l-9.1-6.1l1.7,7.5l-0.6,0.1l-2-8.8l9.1,6l-1.8-7.6l0.6-0.1L233.1,196.6z"/>
              <path d="M242.1,189.8c0.3,1.1,0.3,2.1-0.2,3.1c-0.6,1.1-1.8,1.9-3,2.2c-2.4,0.6-4.9-1-5.5-3.4c-0.6-2.5,1-5,3.5-5.5
                c1.6-0.4,3,0.1,4.2,1.2l-0.4,0.5c-1-1-2.4-1.4-3.8-1.1c-2.1,0.5-3.5,2.8-3,4.8c0.5,2.1,2.7,3.5,4.8,3c0.9-0.2,1.8-0.8,2.3-1.5
                c0.6-0.8,0.7-1.6,0.5-2.5l-3.1,0.7l-0.1-0.5L242.1,189.8z"/>
              <path d="M248.4,193.5l1.4-0.3l0.1,0.6l-2,0.5l-2.5-11l2-0.5l0.1,0.6l-1.4,0.3L248.4,193.5z"/>
              <path d="M249.7,183.3l1.6-0.4c1.3-0.3,2.3-0.3,3.5,0.4c1.1,0.6,1.8,1.7,2.1,2.9c0.3,1.2,0.1,2.4-0.6,3.5c-0.7,1.1-1.7,1.6-3,1.9
                l-1.6,0.4L249.7,183.3z M253.2,191.1c1.1-0.3,2-0.7,2.7-1.7c0.6-0.9,0.8-2,0.5-3c-0.3-1.1-0.9-2-1.9-2.6c-1-0.6-1.9-0.5-3-0.3
                l-1,0.2l1.8,7.7L253.2,191.1z"/>
              <path d="M263.5,189.2l-0.6,0.1l-3.8-3.5l-0.3,0.1l1,4.1l-0.6,0.1l-2-8.7l1.1-0.2c0.7-0.2,1.4-0.3,2.1,0c0.7,0.3,1.1,0.9,1.3,1.7
                c0.3,1.5-0.5,2.5-2,2.8L263.5,189.2z M259.4,185.3c0.5-0.1,1.1-0.3,1.4-0.8c0.3-0.4,0.4-1,0.3-1.5c-0.1-0.6-0.6-1.2-1.3-1.4
                c-0.5-0.1-1.1,0-1.6,0.2l-0.4,0.1l0.8,3.5L259.4,185.3z"/>
              <path d="M267.9,179.1l0.6-0.1l1.2,5.4c0.2,0.9,0.4,1.6,0,2.5c-0.4,0.8-1.3,1.4-2.1,1.6c-0.9,0.2-1.9,0.1-2.6-0.5
                c-0.8-0.6-0.9-1.4-1.1-2.2l-1.2-5.4l0.6-0.1l1.2,5.3c0.2,0.8,0.4,1.6,1,2.1c0.6,0.5,1.5,0.5,2.1,0.4s1.5-0.6,1.8-1.3
                c0.3-0.7,0.1-1.5-0.1-2.3L267.9,179.1z"/>
              <path d="M277.9,178.4L277.9,178.4l-1.3,8.2l-4.7-6.8l0,0l0.2,7.5l-0.5,0.1l-0.2-9.4l5,7.2l1.4-8.6l3.9,8.5l-0.5,0.1L277.9,178.4z
                "/>
              <path d="M284.9,176.7c-0.5-0.5-1.2-0.8-2-0.6c-0.9,0.2-1.5,1.1-1.3,2c0.2,0.9,1.2,1.1,1.9,1.3l1.9,0.5c0.8,0.3,1.2,0.7,1.4,1.5
                c0.3,1.4-0.7,2.8-2.1,3.2c-1.2,0.3-2.3-0.3-3-1.3l0.4-0.3c0.6,0.8,1.4,1.3,2.5,1.1c1.1-0.3,1.9-1.4,1.7-2.5
                c-0.2-1-1.3-1.2-2.2-1.4l-1.8-0.5c-0.7-0.2-1.1-0.7-1.3-1.3c-0.3-1.3,0.4-2.4,1.7-2.7c0.9-0.2,1.8,0.1,2.4,0.7L284.9,176.7z"/>
              <path d="M288,174l-1.4,0.3l-0.1-0.6l2-0.5l2.5,11l-2,0.5l-0.1-0.6l1.4-0.3L288,174z"/>
              <path d="M68,251.2l-0.5,3.1l-0.6,0.1l1.6-9.8l5.7,8.1l-0.6,0.1l-1.8-2.6L68,251.2z M68.8,246.1l-0.7,4.6l3.4-0.8L68.8,246.1z"/>
              <path d="M73.1,243.9l1.6-0.4c1.3-0.3,2.3-0.3,3.5,0.3c1.1,0.6,1.8,1.7,2.1,2.9c0.3,1.2,0.1,2.4-0.6,3.5c-0.7,1.1-1.7,1.6-3,1.9
                l-1.6,0.4L73.1,243.9z M76.6,251.7c1.1-0.3,2-0.7,2.7-1.7c0.6-0.9,0.8-2,0.5-3c-0.3-1.1-0.9-2-1.9-2.6c-1-0.6-1.9-0.5-3-0.3
                l-1,0.2l1.8,7.7L76.6,251.7z"/>
              <path d="M82.5,247.9L82,251l-0.6,0.1l1.6-9.8l5.7,8.1l-0.6,0.1l-1.8-2.6L82.5,247.9z M83.3,242.7l-0.7,4.6l3.4-0.8L83.3,242.7z"
                />
              <path d="M95.6,240.3L95.6,240.3l-1.3,8.2l-4.7-6.8l0,0l0.2,7.5l-0.5,0.1l-0.2-9.4l5,7.2l1.4-8.6l3.9,8.5l-0.5,0.1L95.6,240.3z"/>
              <path d="M104.3,245.3l2.2-0.5l0.1,0.5l-2.8,0.6l-2-8.7l0.6-0.1L104.3,245.3z"/>
              <path d="M108.1,245l-0.6,0.1l-2-8.7l0.6-0.1L108.1,245z"/>
              <path d="M117.8,243l-9.1-6.1l1.7,7.5l-0.6,0.1l-2-8.8l9.1,6l-1.8-7.6l0.6-0.1L117.8,243z"/>
              <path d="M124.7,240.6l0.1,0.5l-6.1,1.4l3.4-9.4l-4.8,1.1l-0.1-0.5l5.8-1.3l-3.4,9.4L124.7,240.6z"/>
              <path d="M130.2,240.6l1.4-0.3l0.1,0.6l-2,0.5l-2.5-11l2-0.5l0.1,0.6l-1.4,0.3L130.2,240.6z"/>
              <path d="M133.4,239.1l-2-8.7l1.7-0.4c0.7-0.2,1.3-0.2,1.9,0.1c0.6,0.3,1,0.9,1.1,1.6c0.2,0.8,0,1.5-0.6,2c1.1,0,2,0.7,2.3,1.8
                c0.2,0.7,0,1.4-0.4,2c-0.5,0.7-1.1,0.9-1.9,1.1L133.4,239.1z M132.9,234.3l1-0.2c0.6-0.1,1.1-0.2,1.5-0.7s0.5-0.9,0.3-1.5
                c-0.1-0.6-0.5-1.1-1-1.3c-0.5-0.2-1-0.1-1.6,0.1l-1,0.2L132.9,234.3z M133.9,238.5l1.3-0.3c0.6-0.1,1.2-0.3,1.7-0.7
                c0.4-0.5,0.6-1.1,0.5-1.7c-0.1-0.6-0.6-1.2-1.3-1.3c-0.6-0.1-1.3,0-1.9,0.1l-1.2,0.3L133.9,238.5z"/>
              <path d="M139.9,234.6l-0.5,3.1l-0.6,0.1l1.6-9.8l5.7,8.1l-0.6,0.1l-1.8-2.6L139.9,234.6z M140.8,229.5l-0.7,4.6l3.4-0.8
                L140.8,229.5z"/>
              <path d="M149.3,227.8c-0.5-0.5-1.2-0.8-2-0.6c-0.9,0.2-1.5,1.1-1.3,2s1.2,1.1,1.9,1.3l1.9,0.5c0.8,0.3,1.2,0.7,1.4,1.5
                c0.3,1.4-0.7,2.8-2.1,3.2c-1.2,0.3-2.3-0.3-3-1.3l0.4-0.3c0.6,0.8,1.4,1.3,2.5,1.1c1.1-0.3,1.9-1.4,1.7-2.5
                c-0.2-1-1.3-1.2-2.2-1.4l-1.8-0.5c-0.7-0.2-1.1-0.7-1.3-1.3c-0.3-1.3,0.4-2.4,1.7-2.7c0.9-0.2,1.8,0.1,2.4,0.7L149.3,227.8z"/>
              <path d="M155.5,226.4c-0.5-0.5-1.2-0.8-2-0.6c-0.9,0.2-1.5,1.1-1.3,2c0.2,0.9,1.2,1.1,1.9,1.3l1.9,0.5c0.8,0.3,1.2,0.7,1.4,1.5
                c0.3,1.4-0.7,2.8-2.1,3.2c-1.2,0.3-2.3-0.3-3-1.3l0.4-0.3c0.6,0.8,1.4,1.3,2.5,1.1c1.1-0.3,1.9-1.4,1.7-2.5
                c-0.2-1-1.3-1.2-2.2-1.4l-1.8-0.5c-0.7-0.2-1.1-0.7-1.3-1.3c-0.3-1.3,0.4-2.4,1.7-2.7c0.9-0.2,1.8,0.1,2.4,0.7L155.5,226.4z"/>
              <path d="M158.6,223.7l-1.4,0.3l-0.1-0.6l2-0.5l2.5,11l-2,0.5l-0.1-0.6l1.4-0.3L158.6,223.7z"/>
              <path d="M167.9,226.3c0.2,0.7-0.2,1.4-1,1.6c-0.7,0.2-1.4-0.3-1.6-1c-0.2-0.7,0.3-1.4,1-1.6C167.1,225.1,167.8,225.6,167.9,226.3
                z"/>
              <path d="M179.6,221.2c-0.9-0.7-2.2-0.9-3.2-0.7c-2.2,0.5-3.5,2.8-3,4.9c0.2,1,0.9,1.9,1.8,2.4c0.9,0.5,2,0.8,3.1,0.6
                c1-0.2,2.1-1.1,2.6-2l0.2,0.8c-0.7,0.9-1.6,1.5-2.6,1.8c-2.4,0.6-5-1-5.6-3.4c-0.6-2.5,1-4.9,3.5-5.5c1-0.2,2.2-0.1,3.1,0.5
                L179.6,221.2z"/>
              <path d="M187.3,221.4l-0.9-3.7l0.6-0.1l2,8.7l-0.6,0.1l-1-4.5l-5.3,1.2l1,4.5l-0.6,0.1l-2-8.7l0.6-0.1l0.9,3.7L187.3,221.4z"/>
              <path d="M195.1,224.9l-0.6,0.1l-3.8-3.5l-0.3,0.1l0.9,4.1l-0.6,0.1l-2-8.7l1.1-0.2c0.7-0.2,1.4-0.3,2.1,0
                c0.7,0.3,1.1,0.9,1.3,1.7c0.3,1.5-0.5,2.5-2,2.8L195.1,224.9z M191,221c0.5-0.1,1.1-0.3,1.4-0.8c0.3-0.4,0.4-1,0.3-1.5
                c-0.1-0.6-0.6-1.2-1.3-1.4c-0.5-0.1-1.1,0-1.6,0.2l-0.4,0.1l0.8,3.5L191,221z"/>
              <path d="M196.8,224.5l-0.6,0.1l-2-8.7l0.6-0.1L196.8,224.5z"/>
              <path d="M200.9,215.9c-0.5-0.5-1.2-0.8-2-0.6c-0.9,0.2-1.5,1.1-1.3,2c0.2,0.9,1.2,1.1,1.9,1.3l1.9,0.5c0.8,0.3,1.2,0.7,1.4,1.5
                c0.3,1.4-0.7,2.8-2.1,3.2c-1.2,0.3-2.3-0.3-3-1.3l0.4-0.3c0.6,0.8,1.4,1.3,2.5,1.1c1.1-0.3,1.9-1.4,1.7-2.5
                c-0.2-1-1.3-1.2-2.2-1.4l-1.8-0.5c-0.7-0.2-1.1-0.7-1.3-1.3c-0.3-1.3,0.4-2.4,1.7-2.7c0.9-0.2,1.8,0.1,2.4,0.7L200.9,215.9z"/>
              <path d="M210.7,213.7c-0.5-0.5-1.2-0.8-2-0.6c-0.9,0.2-1.5,1.1-1.3,2c0.2,0.9,1.2,1.1,1.9,1.3l1.9,0.5c0.8,0.3,1.2,0.7,1.4,1.5
                c0.3,1.4-0.7,2.8-2.1,3.2c-1.2,0.3-2.3-0.3-3-1.3l0.4-0.3c0.6,0.8,1.4,1.3,2.5,1.1c1.1-0.3,1.9-1.4,1.7-2.5
                c-0.2-1-1.3-1.2-2.2-1.4l-1.8-0.5c-0.7-0.2-1.1-0.7-1.3-1.3c-0.3-1.3,0.4-2.4,1.7-2.7c0.9-0.2,1.8,0.1,2.4,0.7L210.7,213.7z"/>
              <path d="M215,220.3l-0.6,0.1l-2-8.7l1.5-0.4c0.7-0.2,1.3-0.3,2,0.1c0.6,0.3,1,0.9,1.2,1.6c0.1,0.6,0.1,1.4-0.3,1.9
                c-0.4,0.6-1.1,0.8-1.8,1l-1,0.2L215,220.3z M214.9,215.4c0.6-0.1,1.1-0.3,1.4-0.8c0.3-0.4,0.4-0.9,0.3-1.4c-0.1-0.5-0.5-1-1-1.3
                c-0.5-0.2-1.1-0.1-1.6,0l-0.9,0.2l0.8,3.5L214.9,215.4z"/>
              <path d="M218.3,210.9l0.7,3.2l3.5-0.8l0.1,0.5l-3.5,0.8l0.9,4l3.6-0.8l0.1,0.5l-4.1,1l-2-8.7l4.1-1l0.1,0.5L218.3,210.9z"/>
              <path d="M223.8,209.7l0.7,3.2l3.5-0.8l0.1,0.5l-3.5,0.8l0.9,4l3.6-0.8l0.1,0.5l-4.1,1l-2-8.7l4.1-1l0.1,0.5L223.8,209.7z"/>
              <path d="M228.5,208l1.6-0.4c1.3-0.3,2.3-0.3,3.5,0.3c1.1,0.6,1.8,1.7,2.1,2.9c0.3,1.2,0.1,2.4-0.6,3.5c-0.7,1.1-1.7,1.6-3,1.9
                l-1.6,0.4L228.5,208z M231.9,215.9c1.1-0.3,2-0.7,2.7-1.7c0.6-0.9,0.8-2,0.5-3c-0.3-1.1-0.9-2-1.9-2.6c-1-0.6-1.9-0.5-3-0.3
                l-1,0.2l1.8,7.7L231.9,215.9z"/>
              <path d="M242.1,214.8l1.4-0.3l0.1,0.6l-2,0.5l-2.5-11l2-0.5l0.1,0.6l-1.4,0.3L242.1,214.8z"/>
              <path d="M247.3,212.9l-0.6,0.1l-1.9-8.2l-2.2,0.5l-0.1-0.5l5-1.2l0.1,0.5l-2.2,0.5L247.3,212.9z"/>
              <path d="M249.1,203.8l0.7,3.2l3.5-0.8l0.1,0.5l-3.5,0.8l0.9,4l3.6-0.8l0.1,0.5l-4.1,1l-2-8.7l4.1-1l0.1,0.5L249.1,203.8z"/>
              <path d="M263.8,209.4l-9.1-6.1l1.7,7.5l-0.6,0.1l-2-8.8l9.1,6l-1.8-7.6l0.6-0.1L263.8,209.4z"/>
              <path d="M273.1,202.3c0.6,2.4-1,4.9-3.5,5.5c-2.4,0.6-5-1-5.5-3.4c-0.6-2.4,1-4.9,3.5-5.5C270,198.3,272.5,199.9,273.1,202.3z
                 M264.6,204.3c0.5,2.1,2.7,3.5,4.9,3c2.2-0.5,3.5-2.7,3-4.9c-0.5-2.1-2.7-3.5-4.9-3C265.5,199.9,264.1,202.1,264.6,204.3z"/>
              <path d="M279.7,205.4l-0.6,0.1l-3.8-3.5l-0.3,0.1l1,4.1l-0.6,0.1l-2-8.7l1.1-0.2c0.7-0.2,1.4-0.3,2.1,0c0.7,0.3,1.1,0.9,1.3,1.7
                c0.3,1.5-0.5,2.5-2,2.8L279.7,205.4z M275.6,201.4c0.5-0.1,1.1-0.3,1.4-0.8c0.3-0.4,0.4-1,0.3-1.5c-0.1-0.6-0.6-1.2-1.3-1.4
                c-0.5-0.1-1.1,0-1.6,0.2l-0.4,0.1l0.8,3.5L275.6,201.4z"/>
              <path d="M286.9,196.1c-0.5-0.5-1.2-0.8-2-0.6c-0.9,0.2-1.5,1.1-1.3,2c0.2,0.9,1.2,1.1,1.9,1.3l1.9,0.5c0.8,0.3,1.2,0.7,1.4,1.5
                c0.3,1.4-0.7,2.8-2.1,3.2c-1.2,0.3-2.3-0.3-3-1.3l0.4-0.3c0.6,0.8,1.4,1.3,2.5,1.1c1.1-0.3,1.9-1.4,1.7-2.5
                c-0.2-1-1.3-1.2-2.2-1.4l-1.8-0.5c-0.7-0.2-1.1-0.7-1.3-1.3c-0.3-1.3,0.4-2.4,1.7-2.7c0.9-0.2,1.8,0.1,2.4,0.7L286.9,196.1z"/>
              <path d="M290.9,199.8l-0.5,3.1l-0.6,0.1l1.6-9.8l5.7,8.1l-0.6,0.1l-1.8-2.6L290.9,199.8z M291.7,194.6l-0.7,4.6l3.4-0.8
                L291.7,194.6z"/>
              <path d="M295.6,192.5l0.6-0.1l2.9,3.3l1.1-4.2l0.6-0.1l-1.3,4.8l3.4,3.9l-0.6,0.1l-3-3.4l-1.2,4.4l-0.6,0.1l1.3-5L295.6,192.5z"
                />
              <path d="M303.5,190.3l-1.4,0.3l-0.1-0.6l2-0.5l2.5,11l-2,0.5l-0.1-0.6l1.4-0.3L303.5,190.3z"/>
              <path d="M72.2,273.1l-2-8.7l1.7-0.4c0.7-0.2,1.3-0.2,1.9,0.1c0.6,0.3,1,0.9,1.1,1.6c0.2,0.8,0,1.5-0.6,2c1.1,0,2,0.7,2.3,1.8
                c0.2,0.7,0,1.4-0.4,2c-0.5,0.7-1.1,0.9-1.9,1.1L72.2,273.1z M71.6,268.3l1-0.2c0.6-0.1,1.1-0.2,1.5-0.7c0.4-0.5,0.5-0.9,0.3-1.5
                c-0.1-0.6-0.5-1.1-1-1.3c-0.5-0.2-1-0.1-1.5,0.1l-1,0.2L71.6,268.3z M72.6,272.5l1.3-0.3c0.6-0.1,1.2-0.3,1.7-0.7
                c0.4-0.5,0.6-1.1,0.5-1.7c-0.1-0.6-0.6-1.2-1.3-1.3c-0.6-0.1-1.3,0-1.9,0.1l-1.2,0.3L72.6,272.5z"/>
              <path d="M82.9,270.7l-0.6,0.1l-3.8-3.5l-0.3,0.1l1,4.1l-0.6,0.1l-2-8.7l1.1-0.2c0.7-0.2,1.4-0.3,2.1,0c0.7,0.3,1.1,0.9,1.3,1.7
                c0.3,1.5-0.5,2.5-2,2.8L82.9,270.7z M78.8,266.7c0.5-0.1,1.1-0.3,1.4-0.8c0.3-0.4,0.4-1,0.3-1.5c-0.1-0.6-0.6-1.2-1.3-1.4
                c-0.5-0.1-1.1,0-1.6,0.2l-0.4,0.1l0.8,3.5L78.8,266.7z"/>
              <path d="M84.6,267.3l-0.5,3.1l-0.6,0.1l1.6-9.8l5.7,8.1l-0.6,0.1l-1.8-2.6L84.6,267.3z M85.4,262.1l-0.7,4.6l3.4-0.8L85.4,262.1z
                "/>
              <path d="M99.7,267.1l-9.1-6.1l1.7,7.5l-0.6,0.1l-2-8.8l9.1,6l-1.8-7.6l0.6-0.1L99.7,267.1z"/>
              <path d="M99.4,257.7l1.6-0.4c1.3-0.3,2.3-0.3,3.5,0.3c1.1,0.6,1.8,1.7,2.1,2.9c0.3,1.2,0.1,2.4-0.6,3.5c-0.7,1.1-1.7,1.6-3,1.9
                l-1.6,0.4L99.4,257.7z M102.9,265.5c1.1-0.3,2-0.7,2.7-1.7c0.6-0.9,0.8-2,0.5-3c-0.3-1.1-0.9-2-1.9-2.6c-1-0.6-1.9-0.5-3-0.3
                l-1,0.2l1.8,7.7L102.9,265.5z"/>
              <path d="M116.4,258.3c0.6,2.4-1,4.9-3.5,5.5s-5-1-5.5-3.4c-0.6-2.4,1-4.9,3.5-5.5C113.3,254.4,115.9,255.9,116.4,258.3z
                 M108,260.3c0.5,2.1,2.7,3.5,4.9,3c2.2-0.5,3.5-2.7,3-4.9c-0.5-2.1-2.7-3.5-4.9-3C108.9,255.9,107.5,258.2,108,260.3z"/>
              <path d="M126.7,260.9l-9.1-6.1l1.7,7.5l-0.6,0.1l-2-8.8l9.1,6l-1.8-7.6l0.6-0.1L126.7,260.9z"/>
              <path d="M134,257.6l1.4-8.7l5.1,7.2l0.7-8l0.6-0.1l-0.9,9.7l-5.2-7.3l-1.5,8.8l-5-8.3l0.6-0.1L134,257.6z"/>
              <path d="M151.9,250.2c0.6,2.4-1,4.9-3.5,5.5c-2.4,0.6-5-1-5.5-3.4c-0.6-2.4,1-4.9,3.5-5.5C148.8,246.2,151.3,247.7,151.9,250.2z
                 M143.5,252.1c0.5,2.1,2.7,3.5,4.9,3c2.2-0.5,3.5-2.7,3-4.9c-0.5-2.1-2.7-3.5-4.9-3C144.3,247.8,143,250,143.5,252.1z"/>
              <path d="M158.7,252.6l0.1,0.5l-6.1,1.4l3.4-9.4l-4.8,1.1l-0.1-0.5l5.8-1.3l-3.4,9.4L158.7,252.6z"/>
              <path d="M167.7,251.4l-9.1-6.1l1.7,7.5l-0.6,0.1l-2-8.8l9.1,6l-1.8-7.6l0.6-0.1L167.7,251.4z"/>
              <path d="M170.1,250.5l-0.6,0.1l-2-8.7l0.6-0.1L170.1,250.5z"/>
              <path d="M172,247.1l-0.5,3.1l-0.6,0.1l1.6-9.8l5.7,8.1l-0.6,0.1l-1.8-2.6L172,247.1z M172.9,241.9l-0.7,4.6l3.4-0.8L172.9,241.9z
                "/>
              <path d="M181.8,238.7l0.7-0.2l-3.3,5.2l5.6,3.5l-0.7,0.2l-5.1-3.2l-0.2,0.3l0.9,3.9l-0.6,0.1l-2-8.7l0.6-0.1l0.9,4.1L181.8,238.7
                z"/>
              <path d="M189.8,246.7l1.4-0.3l0.1,0.6l-2,0.5l-2.5-11l2-0.5l0.1,0.6l-1.4,0.3L189.8,246.7z"/>
              <path d="M195,244.8l-0.6,0.1l-1.9-8.2l-2.2,0.5l-0.1-0.5l5-1.2l0.1,0.5l-2.2,0.5L195,244.8z"/>
              <path d="M196.8,235.8l0.7,3.2l3.5-0.8l0.1,0.5l-3.5,0.8l0.9,4l3.6-0.8l0.1,0.5l-4.1,1l-2-8.7l4.1-1l0.1,0.5L196.8,235.8z"/>
              <path d="M211.5,241.3l-9.1-6.1l1.7,7.5l-0.6,0.1l-2-8.8l9.1,6l-1.8-7.6l0.6-0.1L211.5,241.3z"/>
              <path d="M220.7,234.3c0.6,2.4-1,4.9-3.5,5.5c-2.4,0.6-5-1-5.5-3.4c-0.6-2.4,1-4.9,3.5-5.5C217.7,230.3,220.2,231.8,220.7,234.3z
                 M212.3,236.2c0.5,2.1,2.7,3.5,4.9,3c2.2-0.5,3.5-2.7,3-4.9c-0.5-2.1-2.7-3.5-4.9-3C213.2,231.9,211.8,234.1,212.3,236.2z"/>
              <path d="M227.4,237.3l-0.6,0.1L223,234l-0.3,0.1l1,4.1l-0.6,0.1l-2-8.7l1.1-0.2c0.7-0.2,1.4-0.3,2.1,0c0.7,0.3,1.1,0.9,1.3,1.7
                c0.3,1.5-0.5,2.5-2,2.8L227.4,237.3z M223.3,233.4c0.5-0.1,1.1-0.3,1.4-0.8c0.3-0.4,0.4-1,0.3-1.5c-0.1-0.6-0.6-1.2-1.3-1.4
                c-0.5-0.1-1.1,0-1.6,0.2l-0.4,0.1l0.8,3.5L223.3,233.4z"/>
              <path d="M234.6,228c-0.5-0.5-1.2-0.8-2-0.6c-0.9,0.2-1.5,1.1-1.3,2c0.2,0.9,1.2,1.1,1.9,1.3l1.9,0.5c0.8,0.3,1.2,0.7,1.4,1.5
                c0.3,1.4-0.7,2.8-2.1,3.2c-1.2,0.3-2.3-0.3-3-1.3l0.4-0.3c0.6,0.8,1.4,1.3,2.5,1.1c1.1-0.3,1.9-1.4,1.7-2.5
                c-0.2-1-1.3-1.2-2.2-1.4l-1.8-0.5c-0.7-0.2-1.1-0.7-1.3-1.3c-0.3-1.3,0.4-2.4,1.7-2.7c0.9-0.2,1.8,0.1,2.4,0.7L234.6,228z"/>
              <path d="M238.5,231.7l-0.5,3.1l-0.6,0.1l1.6-9.8l5.7,8.1l-0.6,0.1l-1.8-2.6L238.5,231.7z M239.4,226.6l-0.7,4.6l3.4-0.8
                L239.4,226.6z"/>
              <path d="M243.3,224.5l0.6-0.1l2.9,3.3l1.1-4.2l0.6-0.1l-1.3,4.8l3.4,3.9l-0.6,0.1l-3-3.4l-1.2,4.4l-0.6,0.1l1.3-5L243.3,224.5z"
                />
              <path d="M251.1,222.2l-1.4,0.3l-0.1-0.6l2-0.5l2.5,11l-2,0.5l-0.1-0.6l1.4-0.3L251.1,222.2z"/>
              <path d="M5.5,217.4l11.5-3l5.2,22.5l-8.1,1.9l-3.5-15.3l-3.4,1L5.5,217.4z"/>
              <path d="M24.8,212.9l11.5-3l5.2,22.5l-8.1,1.9L29.9,219l-3.4,1L24.8,212.9z"/>
              <path d="M14.9,255.3l-0.7-3.1l11.7-2.7L21,265.6l-4.1,0.9l3.9-12.6L14.9,255.3z"/>
              <path d="M35.6,254.3l0.7,2.8l-9.4,2.2l-0.7-2.8L35.6,254.3z"/>
              <path d="M40.6,261l2.9-5.7l0,0c-0.6,0.4-1.1,0.7-1.9,0.9c-2.8,0.6-5.1-1.3-5.7-4c-0.8-3.5,1.6-6,4.9-6.8c1.4-0.3,3-0.3,4.3,0.3
                c1.4,0.7,2.5,2,2.8,3.5c0.5,2.1-0.1,4.3-1,6.2l-2.1,4.7L40.6,261z M39.7,251.2c0.3,1.3,1.5,2.1,2.8,1.8s2.1-1.6,1.8-2.9
                c-0.3-1.3-1.6-2.1-2.9-1.8C40.2,248.6,39.4,249.9,39.7,251.2z"/>
              <path d="M21.5,273.1l5-1.2c2.7-0.6,4.9,0.2,5.5,3.1c0.7,3-0.6,4.7-3.5,5.3l-1.9,0.4l1,4.2l-3.3,0.8L21.5,273.1z M26.1,278.1
                l0.6-0.1c1.2-0.3,2.4-0.5,2-2.1c-0.4-1.6-1.5-1.4-2.7-1.1l-0.6,0.1L26.1,278.1z"/>
              <path d="M35.6,269.8l3.2-0.7l4.1,6.2l1.2-7.4l3.3-0.8l4.8,12.2l-3.3,0.8l-2.6-7.1l0,0l-1.4,8l-1.3,0.3l-4.6-6.6l0,0l0.6,7.5
                l-3.3,0.8L35.6,269.8z"/>
              <line class="st27-postcard-jazz" x1="3.4" y1="247.3" x2="53.5" y2="235.7"/>
           </g>
        </g>
        </svg>
