<svg xmlns="http://www.w3.org/2000/svg" viewBox="0 0 48.8 29">
  <defs>
    <style>
      .cls-1 {
        fill: #1e9e9e;
      }
    </style>
  </defs>
  <title>Cow</title>
  <g class="cls-1" data-name="Layer 2">
      <path d="M45.7,19.9s2.6,0,2,2.4,1.1,5.2,1.1,5.2a2.6,2.6,0,0,1-3.3,1c-2.4-.8-4.6-4.1-4.8-5.2s-1.1-3.1-2-3a2.2,2.2,0,0,0-1.9,2.5c.3,1.2.7,4.3,1.3,4.5S39.8,29,39.8,29H37a8.5,8.5,0,0,1-1.3-2.2c-.1-.6-1.2-5.5-2-5.4a3.8,3.8,0,0,1-2.5-.6c-.5-.5-1.1,1.7-1.9,2.5s-1.3,3.9-.8,4.2A8.7,8.7,0,0,1,30.1,29H27.4l-1.1-1.6s.5-3.7.6-4.2.5-4.3-.4-4.2-4.9,1.9-7.7,1.5-4.4-2-5.6-.2-2.9,3.6-2.4,4.4a23.8,23.8,0,0,0,2.8,2.8l.5,1.5H11.7l-1.2-1.5s-3.4-5.6-4-5.6-1.5,2.8-1.4,3.8a5.1,5.1,0,0,0,.3,1.4l1.1.9v1H4l-.8-1.7.2-7.3L5.1,17S3,10.2,3,8.5s.3-3.6.3-3.6l-.9.8L1.3,17A6.3,6.3,0,0,0,2,19c.4.4-.2,2-.2,2L.7,19.2,0,17S.4,5.4.8,4.9,2.8,1,6.2,1.5s9.7.7,12.1,0S26.1-.7,30.3.4s7.4,2.5,8.8,4.8a22.6,22.6,0,0,1,2.2,5.1l3,5.6.9-1.5s1.5.4,1.6,1.4S45.7,19.9,45.7,19.9Z"/>
  </g>
</svg>
