<svg xmlns="https://www.w3.org/2000/svg" viewBox="0 0 48.8 63.9">
  <defs>
    <style>
      .cls-1 {
        fill: #1e9e9e;
      }
    </style>
  </defs>
  <title>utensil3</title>
  <g class="cls-1" data-name="Layer 2">
        <path d="M28.8,35l-4.3,3.5a18.3,18.3,0,0,1,6.8,7.6,24.4,24.4,0,0,0,8.3,10.2s4,1.9,4.8,5.5c0,0,1.9,4.2,4.3.4a6.9,6.9,0,0,0-1.6-6C44.7,53.2,28.8,35,28.8,35Z"/>
        <path d="M2.8.7C2.6,2,2.4,2.5,3.4,7c-.7.3-2.2-.8-2.5-7A10.6,10.6,0,0,0,.4,7.2C.9,9.1,17.3,34.7,17.7,34.6c2.3-.4,5,1.2,5,1.2l4-3.3S5.6,9.6,2.8.7Z"/>
  </g>
</svg>
