<svg xmlns="https://www.w3.org/2000/svg" viewBox="0 0 21.8 67.5">
  <defs>
    <style>
      .cls-1 {
        fill: #1e9e9e;
      }
    </style>
  </defs>
  <title>Utensil2</title>
  <g class="cls-1" data-name="Layer 2">
      <path d="M18.1,17.4c0,.9-.1,1.7-.2,1.7H3.7c-.1,0-.2-.7-.2-1.7V16.1l.2-.3H17.8l.2.3Zm3.7.3C21.2,15.1,16.7,3,15.7,1.6S11.8,0,11,0h-.1C10,0,7.1.2,6.2,1.6S.7,15.1.1,17.7s1.3,4,3.5,4.9l3.7,1.5c1.2.3,2.2,1,2.2,1.8a86.9,86.9,0,0,1-.7,9.7s-1.4.1-1.5.8.2,11.6,0,15.3.3,14.3.9,15.2,2.4.6,2.7.6,2.2.2,2.7-.6,1.1-11.6.9-15.2.1-14.6,0-15.3-1.5-.8-1.5-.8a86.4,86.4,0,0,1-.7-9.7c0-.9,1-1.5,2.2-1.8l3.7-1.5C20.4,21.7,22.3,20.3,21.7,17.7Z"/>
  </g>
</svg>
