<svg xmlns="https://www.w3.org/2000/svg" viewBox="0 0 24 41.5">
  <defs>
    <style>
      .cls-1 {
        fill: #1e9e9e;
      }
    </style>
  </defs>
  <title>Utensil1</title>
  <g class="cls-1" data-name="Layer 2">
        <path d="M20.4,21a1.4,1.4,0,1,1,1.4-1.4A1.4,1.4,0,0,1,20.4,21Zm0,8.4A1.4,1.4,0,1,1,21.8,28,1.4,1.4,0,0,1,20.4,29.4Zm0,8.4a1.4,1.4,0,1,1,1.4-1.4A1.4,1.4,0,0,1,20.4,37.8Zm-3.1-5.6a1.4,1.4,0,1,1,1.4,1.4A1.4,1.4,0,0,1,17.3,32.2Zm-1.1,5.6a1.4,1.4,0,1,1,1.4-1.4A1.4,1.4,0,0,1,16.2,37.8Zm-3.5-5.6a1.4,1.4,0,1,1,1.4,1.4A1.4,1.4,0,0,1,12.7,32.2ZM12,37.8a1.4,1.4,0,1,1,1.4-1.4A1.4,1.4,0,0,1,12,37.8ZM9.5,33.6a1.4,1.4,0,1,1,1.4-1.4A1.4,1.4,0,0,1,9.5,33.6ZM7.8,37.8a1.4,1.4,0,1,1,1.4-1.4A1.4,1.4,0,0,1,7.8,37.8ZM5,16.8a1.4,1.4,0,1,1,1.4-1.4A1.4,1.4,0,0,1,5,16.8Zm0,8.4a1.4,1.4,0,1,1,1.4-1.4A1.4,1.4,0,0,1,5,25.2Zm0,8.4a1.4,1.4,0,1,1,1.4-1.4A1.4,1.4,0,0,1,5,33.6ZM3.6,37.8A1.4,1.4,0,1,1,5,36.4,1.4,1.4,0,0,1,3.6,37.8Zm0-11.1A1.4,1.4,0,1,1,2.2,28,1.4,1.4,0,0,1,3.6,26.6Zm0-8.4a1.4,1.4,0,1,1-1.4,1.4A1.4,1.4,0,0,1,3.6,18.2Zm4.2,8.4A1.4,1.4,0,1,1,6.4,28,1.4,1.4,0,0,1,7.8,26.6Zm0-8.4a1.4,1.4,0,1,1-1.4,1.4A1.4,1.4,0,0,1,7.8,18.2ZM9.5,14a1.4,1.4,0,1,1-1.4,1.4A1.4,1.4,0,0,1,9.5,14ZM12,18.2a1.4,1.4,0,1,1-1.4,1.4A1.4,1.4,0,0,1,12,18.2ZM14.1,14a1.4,1.4,0,1,1-1.4,1.4A1.4,1.4,0,0,1,14.1,14Zm3.5,5.6a1.4,1.4,0,1,1-1.4-1.4A1.4,1.4,0,0,1,17.6,19.6Zm-.3,4.2a1.4,1.4,0,1,1,1.4,1.4A1.4,1.4,0,0,1,17.3,23.8Zm-1.1,2.8A1.4,1.4,0,1,1,14.8,28,1.4,1.4,0,0,1,16.2,26.6Zm-3.5-2.8a1.4,1.4,0,1,1,1.4,1.4A1.4,1.4,0,0,1,12.7,23.8ZM9.5,25.2a1.4,1.4,0,1,1,1.4-1.4A1.4,1.4,0,0,1,9.5,25.2ZM12,26.6A1.4,1.4,0,1,1,10.6,28,1.4,1.4,0,0,1,12,26.6ZM18.6,14a1.4,1.4,0,1,1-1.4,1.4A1.4,1.4,0,0,1,18.6,14Zm3.8-3.2a2,2,0,0,0-2-2H3.5a2,2,0,0,0-2,2L0,39.5a2,2,0,0,0,2,2H22.1a2,2,0,0,0,2-2Z"/>
        <path class="cls-1" d="M6.4,3.1H17.6V7h3.1V1.5A1.5,1.5,0,0,0,19.1,0H4.9A1.5,1.5,0,0,0,3.4,1.5V7H6.4V3.1Z"/>
  </g>
</svg>
